<?xml version="1.0" standalone="no"?>
<!DOCTYPE svg PUBLIC "-//W3C//DTD SVG 20010904//EN"
 "http://www.w3.org/TR/2001/REC-SVG-20010904/DTD/svg10.dtd">
<svg version="1.0" xmlns="http://www.w3.org/2000/svg"
 width="120.000000pt" height="120.000000pt" viewBox="0 0 120.000000 120.000000"
 preserveAspectRatio="xMidYMid meet">
<metadata>
Created by potrace 1.14, written by Peter Selinger 2001-2017
</metadata>
<g transform="translate(0.000000,120.000000) scale(0.100000,-0.100000)"
fill="#000000" stroke="none">
<path d="M507 1110 c-10 -16 -30 -38 -45 -49 -26 -18 -77 -91 -53 -77 6 4 2
-9 -10 -28 -12 -20 -19 -42 -16 -50 7 -18 -12 -36 -29 -29 -11 4 -12 9 -4 18
18 22 5 104 -21 126 -32 27 -38 24 -29 -16 4 -19 4 -37 0 -40 -8 -5 -31 -96
-35 -138 -1 -10 -8 -23 -15 -30 -10 -9 -11 -9 -6 1 4 7 1 12 -8 12 -15 0 -33
59 -28 88 4 20 -6 14 -24 -13 -19 -30 -31 -135 -15 -135 6 0 7 -8 4 -17 -5
-12 -2 -15 9 -10 11 4 15 1 12 -11 -3 -9 4 -35 15 -56 12 -22 19 -41 17 -43
-2 -2 -15 1 -29 6 -16 6 -38 7 -58 1 -17 -5 -36 -7 -40 -4 -11 7 -11 -7 0 -24
5 -8 20 -15 34 -15 14 -1 23 -5 21 -8 -2 -3 14 -11 36 -18 28 -8 38 -16 34
-26 -4 -8 -10 -12 -15 -9 -6 3 -17 0 -25 -7 -29 -24 -89 -30 -136 -13 -21 7
-38 10 -38 6 0 -20 50 -75 70 -77 3 0 10 -3 15 -7 18 -11 87 -15 158 -9 37 4
67 3 67 -1 0 -5 7 -8 16 -8 12 0 7 -10 -17 -38 -26 -29 -40 -37 -59 -34 -21 4
-23 2 -12 -9 21 -22 118 -17 138 7 8 10 13 13 9 6 -8 -15 0 -15 26 -2 29 16
22 -1 -16 -40 -19 -19 -35 -38 -35 -42 0 -4 -18 -19 -40 -33 -22 -14 -40 -29
-40 -33 0 -5 18 -9 40 -10 45 -2 110 21 110 38 0 6 4 9 9 5 6 -3 25 9 43 27
38 37 85 65 95 55 3 -4 1 -18 -5 -32 -7 -14 -12 -34 -12 -43 1 -14 5 -12 23 8
12 14 34 31 50 38 27 11 27 11 21 -16 -4 -15 -11 -32 -16 -39 -18 -23 13 -123
39 -123 7 0 13 -4 13 -10 0 -5 7 -10 15 -10 11 0 15 10 14 37 -1 21 6 58 16
83 9 25 21 66 27 93 10 44 28 65 28 32 0 -8 4 -15 9 -15 13 0 21 29 17 63 -5
41 8 33 55 -33 38 -54 72 -80 86 -66 3 3 1 11 -5 18 -12 16 -30 78 -37 133 -2
22 -7 52 -11 68 -5 26 8 38 21 17 12 -20 26 -10 15 10 -15 29 -4 41 26 30 14
-6 44 -10 67 -10 23 0 54 -7 70 -14 21 -12 27 -12 27 -2 0 19 -54 72 -92 92
-18 9 -52 35 -76 58 -41 39 -42 41 -20 46 37 9 34 37 -6 51 -41 15 -39 21 6
24 21 2 38 12 51 29 16 23 26 26 75 26 l57 0 -30 16 c-16 9 -61 18 -100 21
-38 2 -92 8 -120 12 l-50 8 34 8 c28 7 30 10 16 17 -9 6 -36 7 -61 5 -40 -5
-42 -4 -32 12 6 9 20 22 31 27 26 12 63 61 53 71 -4 5 -13 0 -20 -10 -8 -10
-33 -20 -62 -23 -27 -4 -66 -15 -87 -25 l-38 -18 25 44 c29 48 32 60 14 49 -7
-4 -28 -9 -47 -11 -20 -2 -38 -7 -41 -11 -3 -4 -12 -8 -20 -10 -8 -1 -27 -16
-41 -33 -21 -23 -29 -27 -35 -17 -5 7 -7 21 -5 32 2 13 -1 16 -10 10 -7 -4 -4
6 7 22 26 36 36 64 25 64 -5 0 -7 9 -4 20 8 30 -10 24 -30 -10z m168 -232 c64
-28 130 -98 150 -158 33 -99 21 -187 -33 -261 -30 -40 -93 -89 -116 -89 -7 0
-16 -3 -20 -7 -9 -10 -33 -14 -91 -16 -27 -1 -56 -6 -62 -10 -9 -5 -11 -3 -8
5 6 15 -80 52 -96 42 -5 -3 -6 3 -2 12 5 14 3 16 -11 11 -10 -4 -15 -3 -11 3
8 13 -22 43 -34 36 -5 -3 -7 4 -3 16 4 16 2 19 -8 13 -8 -5 -11 -4 -7 2 4 6 0
24 -8 39 -8 16 -15 35 -15 42 0 8 -5 10 -12 6 -10 -6 -10 -4 -2 7 5 8 9 33 8
55 -2 52 26 138 59 175 13 15 22 31 18 35 -3 4 0 4 7 0 8 -5 22 0 35 12 53 49
187 64 262 30z"/>
<path d="M363 680 c-12 -5 -26 -18 -32 -29 -40 -73 40 -153 122 -122 40 15 33
30 -11 24 -48 -6 -72 15 -72 62 0 24 6 38 19 45 28 15 61 12 67 -5 9 -23 26
-18 22 8 -3 19 -10 22 -48 24 -25 1 -55 -2 -67 -7z"/>
<path d="M490 680 c0 -5 5 -10 10 -10 6 0 10 -27 10 -60 0 -33 -4 -60 -10 -60
-5 0 -10 -4 -10 -10 0 -5 18 -10 40 -10 22 0 40 5 40 10 0 6 -4 10 -10 10 -5
0 -10 11 -10 25 0 20 5 25 24 25 45 0 72 50 44 78 -14 14 -128 16 -128 2z m95
-35 c0 -11 -8 -21 -17 -23 -14 -3 -18 3 -18 23 0 20 4 26 18 23 9 -2 17 -12
17 -23z"/>
<path d="M665 665 c-47 -46 -25 -124 39 -141 33 -8 94 13 106 36 17 32 12 88
-10 110 -30 30 -103 28 -135 -5z m99 -11 c18 -18 21 -56 6 -85 -16 -29 -64
-25 -78 6 -16 34 -15 46 4 73 18 26 46 28 68 6z"/>
</g>
</svg>
