<svg xmlns="http://www.w3.org/2000/svg" style="border: 0 !important; clip: rect(0 0 0 0) !important; height: 1px !important; margin: -1px !important; overflow: hidden !important; padding: 0 !important; position: absolute !important; width: 1px !important;" class="root-svg-symbols-element">
    <symbol id="email" viewBox="0 0 32 32">
      <path d="M26.5,28.1h-21c-2,0-3.5-1.5-3.5-3.5V3.8h28v20.7C30,26.5,28.4,28.1,26.5,28.1z M4,7v17.6c0,0.8,0.7,1.5,1.5,1.5h21 c0.7,0,1.5-0.6,1.5-1.6V7l-9.3,8.1c-1.5,1.3-3.8,1.3-5.2,0L4,7z M5.7,5.8l9,7.7c0.7,0.7,1.9,0.7,2.6,0l9-7.8H5.7z"/>
    </symbol>
    <symbol id="global" viewBox="0 0 496 512">
      <path d="M248 8C111 8 0 119 0 256s111 248 248 248 248-111 248-248S385 8 248 8zm193.2 152h-82.5c-9-44.4-24.1-82.2-43.2-109.1 55 18.2 100.2 57.9 125.7 109.1zM336 256c0 22.9-1.6 44.2-4.3 64H164.3c-2.7-19.8-4.3-41.1-4.3-64s1.6-44.2 4.3-64h167.4c2.7 19.8 4.3 41.1 4.3 64zM248 40c26.9 0 61.4 44.1 78.1 120H169.9C186.6 84.1 221.1 40 248 40zm-67.5 10.9c-19 26.8-34.2 64.6-43.2 109.1H54.8c25.5-51.2 70.7-90.9 125.7-109.1zM32 256c0-22.3 3.4-43.8 9.7-64h90.5c-2.6 20.5-4.2 41.8-4.2 64s1.5 43.5 4.2 64H41.7c-6.3-20.2-9.7-41.7-9.7-64zm22.8 96h82.5c9 44.4 24.1 82.2 43.2 109.1-55-18.2-100.2-57.9-125.7-109.1zM248 472c-26.9 0-61.4-44.1-78.1-120h156.2c-16.7 75.9-51.2 120-78.1 120zm67.5-10.9c19-26.8 34.2-64.6 43.2-109.1h82.5c-25.5 51.2-70.7 90.9-125.7 109.1zM363.8 320c2.6-20.5 4.2-41.8 4.2-64s-1.5-43.5-4.2-64h90.5c6.3 20.2 9.7 41.7 9.7 64s-3.4 43.8-9.7 64h-90.5z"/>
    </symbol>
    <symbol id="icon1" viewBox="0 0 595.3 595.3">
      <path d="M330.1,576.2c-8.3,0-16.6-1.3-24.6-3.9l-144.9-47.2h-9.9v5.9c0,3.3-2.7,6-6,6h-25.1c-3.3,0-6-2.7-6-6s2.7-6,6-6h19.1V383.8 c0-0.1,0-0.2,0-0.3V378h-19.1c-3.3,0-6-2.7-6-6s2.7-6,6-6h25.1c3.3,0,6,2.7,6,6v3.2c60.2-19.9,100.7-11.3,124.5-0.2 c21.3,10,33,23.4,37.4,29.3h62.2c27.1,0,43.3,12.7,52.7,25.1l34.9-7.5c4-3.8,16.8-15.8,32.4-27.6c25.7-19.4,46-28.4,60.1-26.7 c20.5,2.5,29.3,13.8,32.7,20.3c4.7,9,4.5,18.5,1.9,23.2c-3.5,6.4-67.5,67.5-94.9,93.4c-0.4,0.4-0.9,0.8-1.5,1l-128.2,62.6 C353.8,573.5,342,576.2,330.1,576.2z M150.6,513.1h10.8c0.6,0,1.3,0.1,1.9,0.3l145.8,47.5c16.7,5.4,34.6,4.2,50.4-3.5l127.4-62.2 c33.6-31.9,87.4-83.6,92-89.9c0.4-1.2,0.9-6.5-2.4-12.4c-2.9-5.2-9.2-11.7-23.1-13.4c-22.5-2.7-68.2,36.8-83.9,52.2 c-0.8,0.8-1.8,1.3-2.9,1.6l-32.3,6.9c6.3,12.3,7.9,23.1,8,23.7c0.2,1.7-0.3,3.5-1.4,4.8s-2.8,2.1-4.5,2.1H309.3c-3.3,0-6-2.7-6-6 s2.7-6,6-6h119.4c-3.8-13.5-16.5-42.4-54.1-42.4h-65.4c-2.1,0-4-1.1-5.1-2.9c-0.1-0.1-10.6-16.7-34.9-27.9 c-31.5-14.5-72.5-13.7-118.7,2.3V513.1z M93.3,575.8H12.3c-3.3,0-6-2.7-6-6s2.7-6,6-6h75.1V378H12.3c-3.3,0-6-2.7-6-6s2.7-6,6-6 h81.1c3.3,0,6,2.7,6,6v197.9C99.3,573.1,96.7,575.8,93.3,575.8z M420.6,410.5c-2.4,0-4.6-1.4-5.6-3.7c-1.3-3.1,0.2-6.6,3.3-7.8 c71.7-29.4,118.1-98.4,118.1-175.9C536.4,118.2,451.2,33,346.4,33C241.6,33,156.3,118.2,156.3,223c0,39,11.7,76.4,34,108.4 c1.9,2.7,1.2,6.5-1.5,8.4c-2.7,1.9-6.5,1.2-8.4-1.5c-23.6-34-36.1-73.9-36.1-115.3c0-53.6,21.1-104.3,59.5-142.6 c38.3-38.3,89-59.5,142.6-59.5C400,21,450.6,42.1,489,80.4c38.3,38.3,59.5,89,59.5,142.6c0,40.2-11.9,79.1-34.3,112.6 c-22.5,33.5-54,59.2-91.2,74.4C422.2,410.3,421.4,410.5,420.6,410.5z M405,372.7c-2.4,0-4.6-1.4-5.6-3.7c-1.3-3.1,0.2-6.6,3.3-7.8 c56.4-23,92.8-77.2,92.8-138.1c0-82.2-66.9-149.1-149.1-149.1S197.2,140.8,197.2,223c0,30.4,9.1,59.7,26.4,84.7 c1.9,2.7,1.2,6.5-1.5,8.3c-2.7,1.9-6.5,1.2-8.3-1.5c-18.7-27-28.5-58.7-28.5-91.6c0-42.8,16.8-83.2,47.4-113.7s71-47.4,113.7-47.4 s83.2,16.8,113.7,47.4s47.4,71,47.4,113.7c0,32.1-9.5,63.1-27.4,89.8c-17.9,26.7-43.1,47.2-72.8,59.3 C406.5,372.5,405.8,372.7,405,372.7z M301.6,318c-3.3,0-6-2.7-6-6v-28.4h-23.3c-3.3,0-6-2.7-6-6s2.7-6,6-6h23.3V154.7 c0-7.5,6.1-13.6,13.6-13.6h61c32.4,0,58.7,26.3,58.7,58.7c0,32.4-26.3,58.7-58.7,58.7h-62.6v13.2h53.9c3.3,0,6,2.7,6,6s-2.7,6-6,6 h-53.9V312C307.6,315.3,304.9,318,301.6,318z M307.6,246.4h62.6c25.7,0,46.7-20.9,46.7-46.7s-20.9-46.7-46.7-46.7h-61 c-0.9,0-1.6,0.7-1.6,1.6V246.4z"/>
    </symbol>
    <symbol id="icon10" viewBox="0 0 595.3 595.3">
      <path d="M438.4,574.9c-3.3,0-6-2.7-6-6v-44.2H321.9v44.2c0,3.3-2.7,6-6,6s-6-2.7-6-6v-50.2c0-3.3,2.7-6,6-6h122.5c3.3,0,6,2.7,6,6 v50.2C444.4,572.2,441.7,574.9,438.4,574.9z M282.6,574.9c-3.3,0-6-2.7-6-6v-44.2H166.1v44.2c0,3.3-2.7,6-6,6c-3.3,0-6-2.7-6-6 v-50.2c0-3.3,2.7-6,6-6h122.5c3.3,0,6,2.7,6,6v50.2C288.6,572.2,286,574.9,282.6,574.9z M434.3,508.5c-3.3,0-6-2.7-6-6V493h-86.4 v9.6c0,3.3-2.7,6-6,6s-6-2.7-6-6V487c0-3.3,2.7-6,6-6h98.4c3.3,0,6,2.7,6,6v15.6C440.3,505.8,437.7,508.5,434.3,508.5z M262.6,508.5c-3.3,0-6-2.7-6-6V493h-86.4v9.6c0,3.3-2.7,6-6,6c-3.3,0-6-2.7-6-6V487c0-3.3,2.7-6,6-6h98.4c3.3,0,6,2.7,6,6v15.6 C268.6,505.8,266,508.5,262.6,508.5z M430.6,477.9c-1.2,0-2.5-0.4-3.5-1.2c-2.7-2-3.3-5.7-1.3-8.4l6.5-8.9c0.6-0.8,1.4-1.5,2.3-1.9 l91.9-43.3c9.1-4.7,16-12.6,19.3-22.3l28.4-82.7c0.7-27.6,1.6-71.6,1-78.4c-0.6-0.8-2.7-2.6-5.8-3.2c-4.1-0.8-8.5,0.5-13.1,4.1 c-9.2,7.2-12.8,39.3-13,57.8c0,0.9-0.2,1.8-0.6,2.7l-15.6,30.9c-1.5,3-5.1,4.1-8.1,2.6c-3-1.5-4.1-5.1-2.6-8.1l15-29.7 c0.2-9.7,1.9-53.4,17.6-65.7c10.9-8.6,20.5-7.3,25.3-5.8c6,1.9,11.2,6.4,12.5,10.8c0.4,1.3,1.5,5.1-0.5,83.2c0,0.6-0.1,1.2-0.3,1.8 l-28.7,83.5c-4.4,12.7-13.3,23-25.3,29.1c-0.1,0-0.1,0.1-0.2,0.1l-90.6,42.7l-5.6,7.7C434.3,477,432.5,477.9,430.6,477.9z M167.9,477.9c-1.8,0-3.7-0.9-4.8-2.5l-5.6-7.7l-90.6-42.7c-0.1,0-0.1-0.1-0.2-0.1c-12-6.1-20.9-16.4-25.3-29.1l-28.7-83.5 c-0.2-0.6-0.3-1.2-0.3-1.8c-2.1-78-0.9-81.9-0.5-83.2c1.3-4.5,6.5-8.9,12.5-10.8c4.8-1.5,14.4-2.8,25.3,5.8 c15.6,12.3,17.4,56,17.6,65.7l15,29.7c1.5,3,0.3,6.6-2.6,8.1c-3,1.5-6.6,0.3-8.1-2.6l-15.6-30.9c-0.4-0.8-0.6-1.7-0.6-2.7 c-0.2-18.5-3.9-50.6-13-57.8c-4.5-3.6-8.9-4.9-13.1-4.1c-3.1,0.6-5.1,2.4-5.8,3.2c-0.6,6.8,0.2,50.8,1,78.4L52.6,392 c3.3,9.7,10.2,17.6,19.3,22.3l91.9,43.3c0.9,0.4,1.7,1.1,2.3,1.9l6.5,8.9c2,2.7,1.4,6.4-1.3,8.4 C170.3,477.5,169.1,477.9,167.9,477.9z M23.1,231.1L23.1,231.1L23.1,231.1z M349,476c-3.3,0-6-2.7-6-6c0-20.9,9-42.7,9.4-43.6 c0-0.1,0.1-0.2,0.1-0.2c18.4-39.3,41.7-54.6,58-60.5c13-4.7,23.8-4.4,29.1-3.8l26.5-26.5c21.7-21.7,47.8-11.9,58.6-3.7 c1.4,1,2.2,2.6,2.4,4.4s-0.5,3.4-1.7,4.6l-55.6,55.6c-2.3,2.3-6.1,2.3-8.5,0c-2.3-2.3-2.3-6.1,0-8.5l50.1-50.1 c-8.2-3.8-23.1-7.5-36.8,6.1l-28.6,28.6c-1.5,1.5-3.6,2.1-5.6,1.6c-0.1,0-11.5-2.5-26.4,3.1c-20,7.5-37.4,26.2-50.4,53.9 c-0.6,1.6-8.4,21.1-8.4,38.9C355,473.4,352.3,476,349,476z M249.6,476c-3.3,0-6-2.7-6-6c0-17.8-7.8-37.3-8.4-38.9 c-31.5-67.1-76.4-57.1-76.9-57c-2,0.5-4.2-0.1-5.6-1.6L124,343.9c-13.6-13.6-28.6-9.9-36.8-6.1l50.1,50.1c2.3,2.3,2.3,6.1,0,8.5 c-2.3,2.3-6.1,2.3-8.5,0l-55.6-55.6c-1.2-1.2-1.9-2.9-1.7-4.6s1-3.3,2.4-4.4c10.8-8.2,36.9-18,58.6,3.7l26.5,26.5 c5.3-0.6,16.1-0.9,29.1,3.8c16.3,5.9,39.6,21.2,58,60.5c0,0.1,0.1,0.1,0.1,0.2c0.4,0.9,9.4,22.7,9.4,43.6 C255.6,473.4,252.9,476,249.6,476z M300,377.5c-92.8,0-168.2-75.5-168.2-168.2c0-92.8,75.5-168.2,168.2-168.2 c92.8,0,168.2,75.5,168.2,168.2C468.3,302,392.8,377.5,300,377.5z M300,53.1c-86.1,0-156.2,70.1-156.2,156.2 c0,86.1,70.1,156.2,156.2,156.2c86.1,0,156.2-70.1,156.2-156.2C456.3,123.1,386.2,53.1,300,53.1z M300,343.9 c-74.2,0-134.6-60.4-134.6-134.6S225.8,74.6,300,74.6S434.7,135,434.7,209.3S374.3,343.9,300,343.9z M300,86.6 c-67.6,0-122.6,55-122.6,122.6s55,122.6,122.6,122.6c67.6,0,122.6-55,122.6-122.6S367.7,86.6,300,86.6z M259.7,291.8 c-3.3,0-6-2.7-6-6V262h-19.4c-3.3,0-6-2.7-6-6c0-3.3,2.7-6,6-6h19.4V149.3c0-7,5.7-12.6,12.6-12.6h52.9c28.5,0,51.7,23.2,51.7,51.7 v0c0,28.5-23.2,51.7-51.7,51.7h-53.6v9.8h46c3.3,0,6,2.7,6,6c0,3.3-2.7,6-6,6h-46v23.8C265.7,289.1,263,291.8,259.7,291.8z M265.7,228.1h53.6c21.9,0,39.7-17.8,39.7-39.7s-17.8-39.7-39.7-39.7h-52.9c-0.3,0-0.6,0.3-0.6,0.6V228.1z"/>
    </symbol>
    <symbol id="icon2" viewBox="0 0 595.3 595.3">
      <path d="M524.3,573.4H61.7c-21,0-38.1-17.1-38.1-38.1V184.3v0c0-17.2,14-31.1,31.1-31.1h101.4c3.3,0,6,2.7,6,6c0,3.3-2.7,6-6,6 H54.7c-10.5,0-19.1,8.6-19.1,19.1s8.6,19.1,19.1,19.1h457.9v-16.9c0-11.8-9.6-21.4-21.4-21.4h-47.3c-3.3,0-6-2.7-6-6 c0-3.3,2.7-6,6-6h47.3c18.4,0,33.4,15,33.4,33.4v16.9c20.9,0.2,37.8,17.2,37.8,38.1v67.3c0,3.3-2.7,6-6,6s-6-2.7-6-6v-67.3 c0-14.4-11.7-26.1-26.1-26.1c-1,0-2-0.3-2.8-0.7c-0.8,0.5-1.8,0.7-2.8,0.7H54.7c-7.2,0-13.8-2.5-19.1-6.6v326.4 c0,14.4,11.7,26.1,26.1,26.1h462.6c14.4,0,26.1-11.7,26.1-26.1v-67.8c0-3.3,2.7-6,6-6s6,2.7,6,6v67.8 C562.4,556.3,545.3,573.4,524.3,573.4z M551.9,453.9h-80.1c-35.5,0-64.4-28.9-64.4-64.4v-2.8c0-35.5,28.9-64.4,64.4-64.4h80.1 c16.1,0,29.1,13.1,29.1,29.1v73.2C581.1,440.8,568,453.9,551.9,453.9z M471.8,334.4c-28.9,0-52.4,23.5-52.4,52.4v2.8 c0,28.9,23.5,52.4,52.4,52.4h80.1c9.4,0,17.1-7.7,17.1-17.1v-73.2c0-9.4-7.7-17.1-17.1-17.1H471.8z M485.2,427.8 c-21.7,0-39.4-17.7-39.4-39.4s17.7-39.4,39.4-39.4s39.4,17.7,39.4,39.4S506.9,427.8,485.2,427.8z M485.2,361 c-15.1,0-27.4,12.3-27.4,27.4s12.3,27.4,27.4,27.4s27.4-12.3,27.4-27.4S500.3,361,485.2,361z M222.4,195.6c-2,0-4-1-5.1-2.8 c-9.6-15.4-14.7-33.2-14.7-51.4c0-53.7,43.7-97.4,97.4-97.4s97.4,43.7,97.4,97.4c0,18.2-5.1,36-14.7,51.4c-1.8,2.8-5.5,3.7-8.3,1.9 s-3.7-5.5-1.9-8.3c8.4-13.5,12.9-29.1,12.9-45.1c0-47.1-38.3-85.4-85.4-85.4s-85.4,38.3-85.4,85.4c0,16,4.4,31.6,12.9,45.1 c1.8,2.8,0.9,6.5-1.9,8.3C224.6,195.3,223.5,195.6,222.4,195.6z M195.3,195.6c-2.3,0-4.4-1.3-5.5-3.5c-7.4-16-11.1-33.1-11.1-50.8 c0-66.9,54.4-121.3,121.3-121.3c66.9,0,121.3,54.4,121.3,121.3c0,17.7-3.7,34.8-11.1,50.8c-1.4,3-5,4.3-8,2.9s-4.3-5-2.9-8 c6.6-14.4,10-29.8,10-45.8c0-60.2-49-109.3-109.3-109.3c-60.2,0-109.3,49-109.3,109.3c0,16,3.4,31.4,10,45.8c1.4,3,0.1,6.6-2.9,8 C197,195.4,196.2,195.6,195.3,195.6z M272,191.3c-3.3,0-6-2.7-6-6v-14.6h-11.6c-3.3,0-6-2.7-6-6c0-3.3,2.7-6,6-6H266V91 c0-5.8,4.7-10.6,10.6-10.6h36.6c20.7,0,37.6,16.9,37.6,37.6c0,20.7-16.9,37.6-37.6,37.6H278v3.1h29.9c3.3,0,6,2.7,6,6 c0,3.3-2.7,6-6,6H278v14.6C278,188.6,275.4,191.3,272,191.3z M278,143.6h35.2c14.1,0,25.6-11.5,25.6-25.6s-11.5-25.6-25.6-25.6H278 V143.6z"/><path d="M502,532.3h-32c-3.3,0-6-2.7-6-6s2.7-6,6-6h32c3.3,0,6,2.7,6,6S505.3,532.3,502,532.3z M437,532.3h-32c-3.3,0-6-2.7-6-6 s2.7-6,6-6h32c3.3,0,6,2.7,6,6S440.3,532.3,437,532.3z M372,532.3h-32c-3.3,0-6-2.7-6-6s2.7-6,6-6h32c3.3,0,6,2.7,6,6 S375.3,532.3,372,532.3z M307,532.3h-32c-3.3,0-6-2.7-6-6s2.7-6,6-6h32c3.3,0,6,2.7,6,6S310.3,532.3,307,532.3z M242,532.3h-32 c-3.3,0-6-2.7-6-6s2.7-6,6-6h32c3.3,0,6,2.7,6,6S245.3,532.3,242,532.3z M177,532.3h-32c-3.3,0-6-2.7-6-6s2.7-6,6-6h32 c3.3,0,6,2.7,6,6S180.3,532.3,177,532.3z M112,532.3H80c-3.3,0-6-2.7-6-6s2.7-6,6-6h32c3.3,0,6,2.7,6,6S115.3,532.3,112,532.3z M518.6,515.9c-3.3,0-6-2.7-6-6v-32c0-3.3,2.7-6,6-6s6,2.7,6,6v32C524.6,513.2,521.9,515.9,518.6,515.9z"/><path d="M518.6,288.4c-3.3,0-6-2.7-6-6v-32c0-3.3,2.7-6,6-6s6,2.7,6,6v32C524.6,285.7,521.9,288.4,518.6,288.4z M486,256h-32 c-3.3,0-6-2.7-6-6s2.7-6,6-6h32c3.3,0,6,2.7,6,6S489.3,256,486,256z M421,256h-32c-3.3,0-6-2.7-6-6s2.7-6,6-6h32c3.3,0,6,2.7,6,6 S424.3,256,421,256z M356,256h-32c-3.3,0-6-2.7-6-6s2.7-6,6-6h32c3.3,0,6,2.7,6,6S359.3,256,356,256z M291,256h-32 c-3.3,0-6-2.7-6-6s2.7-6,6-6h32c3.3,0,6,2.7,6,6S294.3,256,291,256z M226,256h-32c-3.3,0-6-2.7-6-6s2.7-6,6-6h32c3.3,0,6,2.7,6,6 S229.3,256,226,256z M161,256h-32c-3.3,0-6-2.7-6-6s2.7-6,6-6h32c3.3,0,6,2.7,6,6S164.3,256,161,256z M96,256H64c-3.3,0-6-2.7-6-6 s2.7-6,6-6h32c3.3,0,6,2.7,6,6S99.3,256,96,256z"/>
    </symbol>
    <symbol id="icon3" viewBox="0 0 595.3 595.3">
      <path d="M297.5,571.4c-1,0-2.1-0.3-3-0.8c-2.9-1.7-3.8-5.3-2.2-8.2l83.1-143.3l-25.3-9.3c-1.7-0.6-3-1.9-3.6-3.6 c-0.6-1.7-0.5-3.5,0.4-5l22.4-39.5c0-0.1,0.1-0.2,0.2-0.3l1-1.7l-54.5-25.3l-8.9,58.3c0,0.1,0,0.2,0,0.3l-25.4,167.1 c-0.5,3.3-3.6,5.5-6.8,5c-3.3-0.5-5.5-3.6-5-6.8l24.8-163.1l-37.9-20.3c-2.9-1.6-4-5.2-2.5-8.1c1.6-2.9,5.2-4,8.1-2.5l34.2,18.3 l8.8-57.8c0-0.3,0.1-0.7,0.2-1c0.2-0.7,0.5-1.3,0.9-1.8c0.5-0.7,1.2-1.3,2-1.7c0.8-0.4,1.6-0.7,2.5-0.7c0.7,0,1.4,0,2.1,0.3 c0.3,0.1,0.6,0.2,0.9,0.4l67.5,31.3c1.5,0.7,2.7,2,3.2,3.6c0.5,1.6,0.3,3.3-0.5,4.8l-0.9,1.5c5.8,2.5,14.8,6.5,26.8,12.1 c30.7,14.1,45.3,34.5,45.8,64.3c0.4,23.2,1.3,122.2,1.3,123.1c0,3.3-2.6,6-5.9,6.1c0,0,0,0-0.1,0c-3.3,0-6-2.6-6-5.9 c0-1-0.9-99.9-1.3-123.1c-0.4-25-12.4-41.5-38.8-53.6c-15.6-7.1-23.6-10.7-27.8-12.5L360.9,401l25.4,9.3c1.7,0.6,3,1.9,3.6,3.6 c0.6,1.7,0.4,3.5-0.5,5.1l-86.7,149.5C301.6,570.4,299.6,571.4,297.5,571.4z"/><path d="M200.3,571.4c-2.1,0-4.1-1.1-5.2-3l-86.7-149.5c-0.9-1.5-1.1-3.4-0.5-5.1c0.6-1.7,1.9-3,3.6-3.6L137,401L120.6,372 c-4.1,1.8-12.2,5.3-27.8,12.5c-26.4,12.1-38.4,28.6-38.8,53.6c-0.4,23.2-1.3,122.1-1.3,123.1c0,3.3-2.7,5.9-6,5.9c0,0,0,0-0.1,0 c-3.3,0-6-2.7-5.9-6.1c0-1,0.9-99.9,1.3-123.1c0.5-29.8,15-50.3,45.8-64.3c12-5.5,21.1-9.6,26.8-12.1l-0.9-1.5 c-0.8-1.5-1-3.2-0.5-4.8s1.7-2.9,3.2-3.6l67.5-31.3c0.3-0.1,0.6-0.3,0.9-0.4c0.7-0.2,1.4-0.3,2.1-0.2c0.9,0,1.7,0.3,2.5,0.7 c0.8,0.4,1.5,1,2,1.7c0.4,0.5,0.7,1.2,0.9,1.8c0.1,0.3,0.2,0.6,0.2,1l8.8,57.8l34.2-18.3c2.9-1.6,6.6-0.5,8.1,2.5 c1.6,2.9,0.5,6.6-2.5,8.1l-37.9,20.3l24.8,163.1c0.5,3.3-1.8,6.3-5,6.8c-3.3,0.5-6.3-1.8-6.8-5L190.8,393c0-0.1,0-0.2,0-0.3 l-8.9-58.3l-54.5,25.3l1,1.7c0,0.1,0.1,0.2,0.1,0.2l22.4,39.5c0.9,1.5,1,3.4,0.4,5c-0.6,1.7-1.9,3-3.6,3.6l-25.3,9.3l83.1,143.3 c1.7,2.9,0.7,6.5-2.2,8.2C202.4,571.2,201.3,571.4,200.3,571.4z"/><path d="M249.7,316.3c-29.2,0-53.7-17.7-71-51.2c-10.5-20.4-15.5-40.8-17.4-50.1c-3.8-0.4-7.1-1.8-9.9-4.2 c-8.5-7.4-8.9-21.7-9.1-33.1c-0.1-2.9-0.1-5.7-0.3-7.8c-1-10.8,4.1-17,9.1-20.1c-4.9-46.7,1.9-80.8,20.2-101.3 c21.8-24.6,55.1-24.5,75-24.6h0.5c31.1,0,54.4,15,61.4,20.1c4.9-0.4,14.8,0.1,23.9,8.3c17.4,15.5,23,49.8,16.6,102 c-0.4,3.3-3.4,5.6-6.7,5.2c-3.3-0.4-5.6-3.4-5.2-6.7c7.4-59.5-2.7-82.5-12.4-91.4c-7.8-7.1-16.1-5.4-16.5-5.3 c-1.8,0.5-3.7,0-5.2-1.2c-0.2-0.2-23.7-19-55.9-19h-0.5c-19,0-47.8,0-66,20.5c-16.4,18.5-22.1,50.9-16.7,96.3 c0.4,3.1-1.5,5.9-4.5,6.5c-1.4,0.4-5.7,2.3-5,9.5c0.2,2.6,0.3,5.5,0.4,8.7c0.2,8.6,0.5,20.4,5,24.3c0.9,0.8,2.6,1.8,6.3,1.3 c3.3-0.4,6.2,1.9,6.7,5.2c0.1,1,15.3,96.1,77.4,96.1c3.3,0,6,2.7,6,6S253,316.3,249.7,316.3z"/><path d="M249.7,316.3c-3.3,0-6-2.7-6-6s2.7-6,6-6c62.1,0,77.3-95.1,77.4-96.1c0.4-3.3,3.4-5.6,6.7-5.2c3.8,0.5,5.4-0.5,6.3-1.3 c4.5-3.9,4.8-15.7,5-24.3c0.1-3.1,0.1-6.1,0.4-8.7c0.7-7.3-3.7-9.1-5-9.5l0.1,0l2.7-11.7c5.5,1.3,15.5,7.6,14.1,22.3 c-0.2,2.1-0.3,4.9-0.3,7.8c-0.3,11.5-0.6,25.7-9.1,33.1c-2.8,2.4-6.1,3.8-9.9,4.2c-1.9,9.3-6.8,29.8-17.4,50.1 C303.5,298.6,278.9,316.3,249.7,316.3z"/><path d="M157.4,158.4c-1,0-1.9-0.3-2.8-0.9c-2.3-1.5-2.9-4.6-1.4-6.9c0.1-0.2,8.5-13.1,10-34.7c0.2-5.2,3-9.7,7.3-12.2 c5.3-3,12.1-2.6,18.8,1.1c10,5.5,46.8,20.8,101.2-10.1c6.1-3.4,16.2-8.9,25.8-5.5c5.9,2.1,10.5,7.1,13.7,14.9 c8.1,19.5,17.8,37.9,17.9,38.1c1.3,2.4,0.4,5.5-2.1,6.8c-2.4,1.3-5.5,0.4-6.8-2.1c-0.1-0.2-10.1-19-18.4-39 c-2.1-5.1-4.7-8.2-7.8-9.3c-5.4-1.9-12.7,2.1-17.6,4.8c-58.8,33.5-99.7,16.2-110.8,10.2c-3.6-2-6.9-2.4-9.1-1.2 c-1.4,0.8-2.2,2.2-2.2,4c0,0,0,0.1,0,0.1c-1.7,24.6-11.2,39-11.6,39.6C160.6,157.6,159,158.4,157.4,158.4z"/><path d="M200.9,204.8c-6.6,0-12.4-0.4-15.7-1.2c-10.7-2.6-11.5-28.9-11.5-31.8c0-0.2,0-2.7,2.6-5.5c4.8-5,15.1-7.6,30.5-7.6 c12.4,0,28.3,1.2,34,6.9c1.5,1.5,2.3,3.3,2.3,5.3c0,0.1,0,0.2,0,0.3c-0.2,1.3-0.3,2.8-0.5,4.6c-0.9,9.6-2.2,24.2-13,26.6 C222.9,203.9,211.1,204.8,200.9,204.8z M206.8,162.7c-28.5,0-29.1,8.9-29.1,9c0.2,10.1,2.6,26.6,8.5,28c6.9,1.7,31.4,1.3,42.6-1.3 c7.9-1.8,9.1-14.6,9.9-23.1c0.2-1.7,0.3-3.3,0.5-4.6c0-0.8-0.4-1.6-1.1-2.3C234.4,164.8,223,162.7,206.8,162.7z M241.1,170.9 L241.1,170.9L241.1,170.9z"/><path d="M300.5,204.8c-10.1,0-21.9-0.9-28.7-2.4c-10.7-2.4-12.1-17-13-26.6c-0.2-1.8-0.3-3.3-0.5-4.6c0-0.1,0-0.2,0-0.3 c0-2,0.8-3.8,2.3-5.3c5.7-5.7,21.6-6.9,34-6.9c15.4,0,25.7,2.6,30.5,7.6c2.6,2.7,2.6,5.3,2.6,5.5c0,2.9-0.8,29.2-11.5,31.8 C312.9,204.4,307.1,204.8,300.5,204.8z M262.3,170.8c0.2,1.3,0.3,2.9,0.5,4.6c0.8,8.5,2,21.3,9.9,23.1c11.2,2.6,35.7,3,42.6,1.3 c5.8-1.4,8.3-17.9,8.5-28c0-0.1-0.6-9-29.1-9c-16.2,0-27.6,2.1-31.2,5.7C262.7,169.2,262.3,169.9,262.3,170.8z"/><path d="M250.5,374.3c-34.2,0-58.5-30.9-59.5-32.2c-0.8-1.1-1.3-2.3-1.3-3.7v-57.3c0-3.3,2.7-6,6-6s6,2.7,6,6v55.1 c5,5.7,24.4,26,48.8,26c24.3,0,42.9-20.3,47.7-26v-55.2c0-3.3,2.7-6,6-6s6,2.7,6,6v57.3c0,1.3-0.4,2.5-1.2,3.6 C308,343.4,284.8,374.3,250.5,374.3z"/><path d="M272.4,414.1h-41.7c-2.3,0-4.4-1.3-5.4-3.5l-6.4-13.7c-1.4-3-0.1-6.6,2.9-8c3-1.4,6.6-0.1,8,2.9l4.8,10.3h33.7l3.7-9.8 c1.2-3.1,4.6-4.7,7.7-3.5c3.1,1.2,4.7,4.6,3.5,7.7l-5.1,13.7C277.1,412.5,274.9,414.1,272.4,414.1z"/><path d="M227.9,487.4c-0.4,0-0.7,0-1.1-0.1c-3.3-0.6-5.4-3.7-4.8-7l11.3-60.6c0.6-3.3,3.7-5.4,7-4.8c3.3,0.6,5.4,3.7,4.8,7 l-11.3,60.6C233.2,485.3,230.7,487.4,227.9,487.4z"/><path d="M273.7,487.4c-2.8,0-5.4-2-5.9-4.9l-11.3-60.6c-0.6-3.3,1.5-6.4,4.8-7c3.3-0.6,6.4,1.5,7,4.8l11.3,60.6 c0.6,3.3-1.5,6.4-4.8,7C274.4,487.3,274.1,487.4,273.7,487.4z"/><path d="M567.6,107.3l2.9-27.5l-25.3-11.2L534,43.2l-27.5,2.9L484,29.8l-22.4,16.2l-27.5-2.9l-11.2,25.3l-25.3,11.2l2.9,27.5 l-16.2,22.4l16.2,22.4l-2.9,27.5l25.3,11.2l5.8,13.1v121.3l55.3-34.6l55.3,34.6V204l5.8-13.1l25.3-11.2l-2.9-27.5l16.2-22.4 L567.6,107.3z M484,276.2l-43,26.9v-87.6l20.6-2.2l22.4,16.2l22.4-16.2l20.6,2.2v87.6L484,276.2z M557.3,172l-21.4,9.5l-9.5,21.4 l-23.3-2.4l-19,13.8l-19-13.8l-23.3,2.4l-9.5-21.4l-21.4-9.5l2.4-23.3l-13.8-19l13.8-19l-2.4-23.3l21.4-9.5l9.5-21.4l23.3,2.4 L484,45l19,13.8l23.3-2.4l9.5,21.4l21.4,9.5l-2.4,23.3l13.8,19l-13.8,19L557.3,172z"/><path d="M484,68.2c-33.9,0-61.5,27.6-61.5,61.5s27.6,61.5,61.5,61.5s61.5-27.6,61.5-61.5S517.9,68.2,484,68.2z M484,178.9 c-27.1,0-49.2-22.1-49.2-49.2s22.1-49.2,49.2-49.2s49.2,22.1,49.2,49.2S511.2,178.9,484,178.9z"/><path d="M507.4,157.6l-21.8-11.5l-21.8,11.5l4.2-24.3l-17.7-17.2l24.4-3.5l10.9-22.1l10.9,22.1l24.4,3.5l-17.7,17.2L507.4,157.6z M471.8,123.1l6.9,6.7l-1.6,9.5l8.5-4.5l8.5,4.5l-1.6-9.5l6.9-6.7l-9.5-1.4l-4.3-8.7l-4.3,8.7L471.8,123.1z"/>
    </symbol>
    <symbol id="icon4" viewBox="0 0 595.3 595.3">
      <path d="M329.6,573.2c-63.2,0-122.6-24.6-167.2-69.3c-44.7-44.7-69.3-104.1-69.3-167.2c0-63.2,24.6-122.6,69.3-167.2 c36.4-36.4,82.6-59.5,132.6-66.8c-10.9-10-18-24.2-18-37.7c0-28.4,23.1-51.5,51.5-51.5s51.5,23.1,51.5,51.5 c0,14.3-7.7,27.9-17.6,37.4c44.9,6.2,86.8,25,121.5,54.8l8.4-9.7l-14.8-13.2c-3.5-3.2-5.6-7.5-5.9-12.2c-0.3-4.7,1.3-9.3,4.5-12.8 l3.7-4.1c6.5-7.3,17.8-7.9,25.1-1.4l35,31.3c3.5,3.2,5.6,7.5,5.9,12.2c0.3,4.7-1.3,9.3-4.5,12.8l-3.7,4.1v0 c-6.5,7.3-17.8,7.9-25.1,1.4L501,155.6l-8.5,9.7c1.4,1.4,2.8,2.7,4.2,4.1c44.7,44.7,69.3,104.1,69.3,167.2 c0,63.2-24.6,122.6-69.3,167.2C452.1,548.6,392.7,573.2,329.6,573.2z M329.6,112.2c-123.8,0-224.5,100.7-224.5,224.5 c0,123.8,100.7,224.5,224.5,224.5c123.8,0,224.5-100.7,224.5-224.5C554.1,212.9,453.4,112.2,329.6,112.2z M532.9,160.3L532.9,160.3 L532.9,160.3z M504.5,142.6l15.8,14.2c2.4,2.1,6,1.9,8.1-0.4l3.7-4.1c1-1.1,1.5-2.6,1.5-4.1c-0.1-1.5-0.8-2.9-1.9-4l-35-31.3 c-2.4-2.1-6-1.9-8.1,0.4l-3.7,4.1c-1,1.1-1.5,2.6-1.5,4.1c0.1,1.5,0.8,2.9,1.9,4L504.5,142.6C504.5,142.6,504.5,142.6,504.5,142.6z M317.9,66.2v34.3c7.4-0.4,14.9-0.4,22.3,0V66.2H317.9z M328.4,25.5c-21.8,0-39.5,17.7-39.5,39.5c0,11.2,7,23.6,17,31.3V60.2 c0-3.3,2.7-6,6-6h34.3c3.3,0,6,2.7,6,6v35.2c9.3-8.2,15.6-20,15.6-30.4C367.8,43.2,350.1,25.5,328.4,25.5z M174,549.5H36.3 c-3.3,0-6-2.7-6-6s2.7-6,6-6H174c3.3,0,6,2.7,6,6S177.4,549.5,174,549.5z M140.7,524.6H74.3c-3.3,0-6-2.7-6-6s2.7-6,6-6h66.5 c3.3,0,6,2.7,6,6S144,524.6,140.7,524.6z M329.6,513.6c-55.9,0-109.2-26.9-142.4-71.9c-0.9-1.3-1.3-2.9-1.1-4.5 c0.2-1.6,1.1-3,2.4-3.9l91.8-67.8c2.7-2,6.4-1.4,8.4,1.3c2,2.7,1.4,6.4-1.3,8.4l-86.9,64.1c31.1,39.1,78.9,62.2,129.1,62.2 c90.9,0,164.9-74,164.9-164.9c0-89.1-71-161.9-159.4-164.8v108.6c0,3.3-2.7,6-6,6s-6-2.7-6-6V165.8c0-3.3,2.7-6,6-6l0.5,0 c47,0,91.3,18.5,124.9,52.1c33.6,33.6,52.1,77.9,52.1,124.9S488,428,454.4,461.6C420.9,495.2,376.5,513.6,329.6,513.6z M336.7,488 c-3.2,0-5.8-2.5-6-5.7l-1.8-33.4c-0.2-3.3,2.4-6.1,5.7-6.3c3.3-0.2,6.1,2.4,6.3,5.7l1.8,33.4c0.2,3.3-2.4,6.1-5.7,6.3 C336.9,488,336.8,488,336.7,488z M263.1,472.4c-0.9,0-1.8-0.2-2.7-0.7c-3-1.5-4.1-5.1-2.6-8.1l15.2-29.9c1.5-3,5.1-4.1,8.1-2.6 c3,1.5,4.1,5.1,2.6,8.1l-15.2,29.9C267.4,471.2,265.2,472.4,263.1,472.4z M408.3,464.7c-2,0-3.9-1-5-2.7L385,433.9 c-1.8-2.8-1-6.5,1.8-8.3c2.8-1.8,6.5-1,8.3,1.8l18.3,28.1c1.8,2.8,1,6.5-1.8,8.3C410.6,464.4,409.5,464.7,408.3,464.7z M174.3,414.1c-2.3,0-4.4-1.3-5.5-3.5c-10.6-23-16.2-48.6-16.2-73.9c0-41.7,14.9-82.2,42.1-114.3s64.7-53.4,105.8-60.3 c3.3-0.5,6.4,1.7,6.9,4.9c0.5,3.3-1.7,6.4-4.9,6.9c-78.6,13.1-137.8,83-137.8,162.7c0,23.6,5.2,47.5,15.1,68.9c1.4,3,0.1,6.6-2.9,8 C176,413.9,175.1,414.1,174.3,414.1z M458.7,408.7c-0.9,0-1.8-0.2-2.7-0.7l-29.9-15.2c-3-1.5-4.1-5.1-2.6-8.1s5.1-4.1,8.1-2.6 l29.9,15.2c3,1.5,4.1,5.1,2.6,8.1C463,407.5,460.9,408.7,458.7,408.7z M329.6,368.9c-17.8,0-32.2-14.5-32.2-32.2 s14.5-32.2,32.2-32.2s32.2,14.5,32.2,32.2S347.3,368.9,329.6,368.9z M329.6,316.5c-11.2,0-20.2,9.1-20.2,20.2s9.1,20.2,20.2,20.2 s20.2-9.1,20.2-20.2S340.7,316.5,329.6,316.5z M183.8,350.4c-3.2,0-5.8-2.5-6-5.7c-0.2-3.3,2.4-6.1,5.7-6.3l33.4-1.8 c3.3-0.2,6.1,2.4,6.3,5.7c0.2,3.3-2.4,6.1-5.7,6.3l-33.4,1.8C184,350.4,183.9,350.4,183.8,350.4z M440.9,336.8 c-3.2,0-5.8-2.5-6-5.7c-0.2-3.3,2.4-6.1,5.7-6.3L474,323c3.3-0.2,6.1,2.4,6.3,5.7c0.2,3.3-2.4,6.1-5.7,6.3l-33.4,1.8 C441.1,336.8,441,336.8,440.9,336.8z M229.2,291.9c-0.9,0-1.8-0.2-2.7-0.7l-29.9-15.2c-3-1.5-4.1-5.1-2.6-8.1 c1.5-3,5.1-4.1,8.1-2.6l29.9,15.2c3,1.5,4.1,5.1,2.6,8.1C233.5,290.7,231.4,291.9,229.2,291.9z M422.9,281.7c-2,0-3.9-1-5-2.7 c-1.8-2.8-1-6.5,1.8-8.3l28.1-18.3c2.8-1.8,6.5-1,8.3,1.8c1.8,2.8,1,6.5-1.8,8.3l-28.1,18.3C425.2,281.4,424.1,281.7,422.9,281.7z M268,248.8c-2,0-3.9-1-5-2.7L244.7,218c-1.8-2.8-1-6.5,1.8-8.3c2.8-1.8,6.5-1,8.3,1.8l18.3,28.1c1.8,2.8,1,6.5-1.8,8.3 C270.3,248.5,269.1,248.8,268,248.8z M379.8,242.9c-0.9,0-1.8-0.2-2.7-0.7c-3-1.5-4.1-5.1-2.6-8.1l15.2-29.9c1.5-3,5.1-4.1,8.1-2.6 c3,1.5,4.1,5.1,2.6,8.1l-15.2,29.9C384.1,241.7,382,242.9,379.8,242.9z M174,140.8h-66.6c-3.3,0-6-2.7-6-6c0-3.3,2.7-6,6-6H174 c3.3,0,6,2.7,6,6C180,138.1,177.4,140.8,174,140.8z M214.3,114.4H71.1c-3.3,0-6-2.7-6-6c0-3.3,2.7-6,6-6h143.2c3.3,0,6,2.7,6,6 C220.3,111.7,217.6,114.4,214.3,114.4z M254.9,89.2H31.4c-3.3,0-6-2.7-6-6s2.7-6,6-6h223.4c3.3,0,6,2.7,6,6S258.2,89.2,254.9,89.2z"/>
    </symbol>
    <symbol id="icon5" viewBox="0 0 595.3 595.3">
      <path d="M260.2,571.2c-6.6,0-12.9-2.6-17.6-7.3l-3.5-3.5c-5.2-5.2-7.6-12.2-7.2-19c-3.4,1.7-7.2,2.6-11.1,2.6 c-6.6,0-12.9-2.6-17.6-7.3l-3.5-3.5c-4.7-4.7-7.3-10.9-7.3-17.6c0-0.2,0-0.4,0-0.6c-9.6,6.2-22.6,5.1-31-3.3l-4.3-4.3 c-4.7-4.7-7.3-10.9-7.3-17.6c0-3.9,0.9-7.7,2.6-11.1c-0.1,0-0.2,0-0.2,0c-6.5,0-12.7-2.6-17.3-7.2l-4.5-4.5 c-4.6-4.6-7.2-10.8-7.2-17.3c0-6.5,2.6-12.7,7.2-17.3l0.9-0.9L105,422l-6.3,18c-1,2.8-3.9,4.5-6.9,3.9L29.4,431 c-3.2-0.7-5.3-3.8-4.7-7.1c0.7-3.2,3.8-5.3,7.1-4.7l57.4,11.8l6.5-18.7c0,0,0-0.1,0-0.1l36.8-105.7c0-0.1,0.1-0.2,0.1-0.2l1.8-5.3 L28.7,264.7c-3.1-1.1-4.8-4.5-3.7-7.6c1.1-3.1,4.5-4.8,7.6-3.7L144,291.6c1.5,0.5,2.8,1.6,3.5,3c0.7,1.4,0.8,3.1,0.3,4.6l-1.6,4.5 l74.4,13.3c3.3,0.6,5.4,3.7,4.9,7c-0.6,3.3-3.7,5.4-7,4.9l-76.2-13.6L109,410.7l31.7,11.5c9.6-9,24.7-8.8,34,0.6l4.5,4.5 c4.6,4.6,7.2,10.8,7.2,17.3c0,0.9,0,1.8-0.1,2.7c2.3-0.7,4.8-1.1,7.3-1.1c6.6,0,12.9,2.6,17.6,7.3l4.3,4.3c5.7,5.7,8,13.4,7.1,20.7 c2.8-1,5.7-1.6,8.7-1.6c6.6,0,12.9,2.6,17.6,7.3l3.5,3.5c6,6,8.3,14.3,6.9,22c2.2-0.6,4.4-0.9,6.7-0.9c6.6,0,12.9,2.6,17.6,7.3 l3.5,3.5c7.3,7.3,9.1,18,5.4,27l16.3,9c1.2,0.5,10.1,4,16.2-2.7c3-3.3,4.4-7.8,3.8-12.4c-0.6-5.1-3.6-9.7-8.3-13 c-0.1-0.1-0.3-0.2-0.4-0.3c-2.7-1.8-3.5-5.6-1.6-8.3c1.8-2.7,5.5-3.5,8.3-1.7c0.2,0.1,0.3,0.2,0.5,0.3 c12.1,8.1,29.6,16.7,33.7,18.7c3.8,0.4,12.6,0.4,15.2-4.2c2.8-4.8,3.6-9.3,2.3-13.5c-1.8-5.8-7.8-11.5-17.5-16.4 c-0.7-0.3-1.4-0.7-2.1-1.1c-3-1.5-4.2-5-2.7-8c1.4-3,5-4.2,8-2.8c0.8,0.4,1.5,0.7,2.3,1.1c26.4,13,35,16.6,35.1,16.6 c0.9,0.4,9.5,3.5,14.1-3.9c3.5-5.6,3.4-8.4,2.9-10.4c-1.6-5.9-10.4-13-27-21.5c-0.1-0.1-0.2-0.1-0.3-0.2c0,0,0,0,0,0c0,0,0,0,0,0 c-2.9-1.5-4.1-5.1-2.6-8.1c1.5-2.9,5.1-4.1,8.1-2.6c0.1,0.1,0.3,0.1,0.4,0.2c29.1,15.1,45.9,22.3,49.4,23.8c2,0.2,9,0.3,13.1-6.8 c2.7-4.6,3.5-9.1,2.4-13.1c-0.9-3.4-3.3-6.2-6.7-8.1c-1.8-1-5.1-2.7-9.2-4.8c-18.6-9.5-53-27.2-69.5-41.3l-0.3-0.1 c-16.5-6.8-41.2-16.9-52.7-53.4c-10.7-0.1-26.2,0-33.7,0c-2.6,7.3-9,21.5-21.7,29.1c-8.5,5.1-18.3,6.3-28.9,3.5 c-7.5-2-13.2-6.8-16.2-13.7c-3-7-2.8-15.6,0.5-21.8c4.3-8,20.7-34.3,21.4-35.4c0.5-0.7,1.1-1.4,1.8-1.9c1.6-1,39.5-25.6,82.3-33.3 c0.9-0.2,1.7-0.1,2.6,0.1c18.4,4.8,68.1,24.5,79,28.8l38.2-13.2l-0.4-1.1c-0.5-1.5-0.4-3.2,0.3-4.6c0.7-1.4,1.9-2.5,3.4-3.1 l110.5-38.2c3.1-1.1,6.5,0.6,7.6,3.7c1.1,3.1-0.6,6.5-3.7,7.6L461.3,301l0.4,1.1c0,0,0,0,0,0.1c0,0,0,0,0,0l37.5,107.8 c0,0,0,0.1,0,0.1l7.3,21.1l56.4-11.5c3.3-0.7,6.4,1.4,7.1,4.7c0.7,3.2-1.4,6.4-4.7,7.1l-61.5,12.6c-2.9,0.6-5.9-1.1-6.9-3.9 l-6.9-19.7l-19.8,9.6v4.8c0,3.3-2.7,6-6,6s-6-2.7-6-6v-8.6c0-2.3,1.3-4.4,3.4-5.4l24.5-11.9l-33.8-97.2L412,325.6 c-1.4,0.5-2.9,0.4-4.2-0.1c-0.6-0.2-57.6-23.1-78.4-28.9c-36,6.8-69.1,26.6-75.4,30.6c-3.3,5.3-16.6,26.8-20.3,33.6 c-1.3,2.4-1.9,7-0.1,11.3c1.5,3.5,4.3,5.8,8.2,6.9c7.5,2,14,1.2,19.8-2.2c12.7-7.6,17.5-26,17.5-26.2c0.7-2.7,3-4.5,5.8-4.6 c1.2,0,29-0.3,42.9,0c2.7,0.1,5,1.9,5.7,4.4c9.2,34.3,30.1,42.9,46.9,49.8l1.2,0.5c0.6,0.3,1.2,0.6,1.7,1 c15.1,13.2,50.7,31.5,67.9,40.3c4.2,2.1,7.5,3.8,9.5,4.9c6.3,3.4,10.7,8.9,12.5,15.4c2,7.1,0.7,15-3.6,22.3 c-9,15.4-25.4,12.6-26.1,12.5c-0.4-0.1-0.8-0.2-1.2-0.3c-0.3-0.1-4.5-1.8-12.4-5.5c1.9,7.9-1.6,14.8-4.4,19.3 c-8.1,12.9-22.4,11.3-28.9,8.6c-0.2-0.1-2.1-0.8-6.7-3c1.8,7.1,0.6,14.7-3.7,22c-7.6,13-27.4,10-28.3,9.9c-0.6-0.1-1.1-0.3-1.6-0.5 c-0.5-0.2-7.3-3.5-15.8-8c0.9,7.9-1.6,15.7-6.9,21.5c-9.9,10.9-24.1,8.3-30.3,5.4c-0.1-0.1-0.2-0.1-0.4-0.2l-17.8-9.9l-7.4,7.4 C273,568.6,266.8,571.2,260.2,571.2z M265.8,520.9c-3.4,0-6.6,1.3-9.1,3.8l-9.1,9.1c-5,5-5,13.1,0,18.1l3.5,3.5 c2.4,2.4,5.6,3.8,9.1,3.8c3.4,0,6.6-1.3,9.1-3.8l9.1-9.1c5-5,5-13.1,0-18.1l-3.5-3.5C272.5,522.2,269.2,520.9,265.8,520.9z M231.2,489c-3.4,0-6.6,1.3-9.1,3.8l-13.9,13.9c-2.4,2.4-3.8,5.6-3.8,9.1s1.3,6.7,3.8,9.1l3.5,3.5c2.4,2.4,5.6,3.8,9.1,3.8 s6.7-1.3,9.1-3.8l13.9-13.9c2.4-2.4,3.8-5.6,3.8-9.1c0-3.4-1.3-6.7-3.8-9.1l-3.5-3.5C237.9,490.4,234.6,489,231.2,489z M192.4,507.6L192.4,507.6L192.4,507.6z M193.6,458.3c-3.4,0-6.6,1.3-9.1,3.8l-18.8,18.8c-2.4,2.4-3.8,5.6-3.8,9.1s1.3,6.7,3.8,9.1 l4.3,4.3c5,5,13.1,5,18.1,0l18.8-18.8c5-5,5-13.1,0-18.1l-4.3-4.3C200.3,459.7,197,458.3,193.6,458.3z M146.4,433.5l-7.5,7.5 c-2.4,2.4-3.7,5.5-3.7,8.9c0,3.3,1.3,6.5,3.7,8.9l4.5,4.5c2.4,2.4,5.5,3.7,8.9,3.7c3.3,0,6.5-1.3,8.9-3.7l9.7-9.7 c2.4-2.4,3.7-5.5,3.7-8.8c0-3.3-1.3-6.5-3.7-8.8l-4.5-4.5c-4.9-4.9-12.8-4.9-17.7,0l-2,2C146.5,433.4,146.5,433.4,146.4,433.5z M199.2,299.5c-1,0-2.1-0.3-3-0.8c-2.9-1.7-3.8-5.4-2.1-8.2l16.4-27.8c1.7-2.9,5.4-3.8,8.2-2.1c2.9,1.7,3.8,5.4,2.1,8.2l-16.4,27.8 C203.3,298.4,201.3,299.5,199.2,299.5z M391.5,290.1c-2,0-4-1-5.1-2.9l-11.7-19.4c-1.7-2.8-0.8-6.5,2-8.2c2.8-1.7,6.5-0.8,8.2,2 l11.7,19.4c1.7,2.8,0.8,6.5-2,8.2C393.7,289.8,392.6,290.1,391.5,290.1z M298.8,277.9c-12.4,0-20.3-11-20.6-11.5 c-1.9-2.7-1.3-6.5,1.5-8.4c2.7-1.9,6.4-1.3,8.3,1.4c0.1,0.2,4.8,6.4,10.8,6.4c5.8,0,9.5-5.9,9.6-6c1.7-2.9,5.4-3.8,8.2-2.1 c2.9,1.7,3.8,5.4,2.1,8.2C318.4,266.5,311.5,277.9,298.8,277.9z M468,270.7c-1.4,0-2.8-0.5-3.9-1.4l-40.2-34.2 c-2.5-2.1-2.8-5.9-0.7-8.5c2.1-2.5,5.9-2.8,8.5-0.7l40.2,34.2c2.5,2.1,2.8,5.9,0.7,8.5C471.3,270,469.6,270.7,468,270.7z M129.8,269c-1.7,0-3.4-0.7-4.6-2.1c-2.1-2.5-1.8-6.3,0.7-8.5l38.5-32.5c2.5-2.1,6.3-1.8,8.5,0.7c2.1,2.5,1.8,6.3-0.7,8.5 l-38.5,32.5C132.5,268.5,131.1,269,129.8,269z M320.8,252.7h-45c-1.5,0-3-0.6-4.1-1.7l-7.6-7.2c-2.4-2.3-2.5-6.1-0.2-8.5 c2.3-2.4,6.1-2.5,8.5-0.2l5.9,5.6h40.4l6.9-5.8c2.5-2.1,6.3-1.8,8.5,0.7c2.1,2.5,1.8,6.3-0.7,8.5l-8.6,7.2 C323.6,252.2,322.2,252.7,320.8,252.7z M319.1,228.1h-20.5c-0.2,0-0.4,0-0.5,0c-0.2,0-0.4,0-0.5,0h-20.5c-3.3,0-6-2.7-6-6 c0-5.4-11.8-19.6-17.4-23.2c-25.9-16.4-41.9-46.4-41.9-78.3c0-50.3,38.5-91.2,85.8-91.2c0.2,0,0.4,0,0.5,0c0.2,0,0.4,0,0.5,0 c47.3,0,85.8,40.9,85.8,91.2c0,31.9-16.1,62-41.9,78.3c-5.6,3.5-17.4,17.8-17.4,23.2C325.1,225.4,322.4,228.1,319.1,228.1z M304.5,216.1h9.7c3.8-10.9,15.9-23.6,21.8-27.3c22.4-14.2,36.3-40.3,36.3-68.2c0-43.6-33.1-79.2-73.8-79.2c-0.2,0-0.4,0-0.5,0 c-0.2,0-0.4,0-0.5,0c-40.7,0-73.8,35.5-73.8,79.2c0,27.9,13.9,54,36.3,68.2c5.9,3.7,18.1,16.4,21.8,27.3h10.7v-49.7 c0-1,0.2-1.9,0.7-2.8l18.9-35.8h-39c-3.3,0-6-2.7-6-6c0-3.3,2.7-6,6-6h49c2.1,0,4.1,1.1,5.1,2.9c1.1,1.8,1.1,4,0.2,5.9l-22.9,43.3 V216.1z M526.2,211.7c-0.7,0-1.4-0.1-2.1-0.4L451.6,184c-3.1-1.2-4.7-4.6-3.5-7.7c1.2-3.1,4.6-4.7,7.7-3.5l72.5,27.3 c3.1,1.2,4.7,4.6,3.5,7.7C531,210.2,528.7,211.7,526.2,211.7z M71,211.7c-2.4,0-4.7-1.5-5.6-3.9c-1.2-3.1,0.4-6.6,3.5-7.7 l71.3-27.3c3.1-1.2,6.6,0.4,7.7,3.5c1.2,3.1-0.4,6.6-3.5,7.7l-71.3,27.3C72.4,211.5,71.7,211.7,71,211.7z M539.1,127.8h-74.9 c-3.3,0-6-2.7-6-6c0-3.3,2.7-6,6-6h74.9c3.3,0,6,2.7,6,6C545.1,125.1,542.5,127.8,539.1,127.8z M131.8,127.8H57.3c-3.3,0-6-2.7-6-6 c0-3.3,2.7-6,6-6h74.4c3.3,0,6,2.7,6,6C137.8,125.1,135.1,127.8,131.8,127.8z M142.2,71.5c-0.7,0-1.4-0.1-2.1-0.4L68.9,44.3 c-3.1-1.2-4.7-4.6-3.5-7.7c1.2-3.1,4.6-4.7,7.7-3.5l71.3,26.8c3.1,1.2,4.7,4.6,3.5,7.7C147,70,144.7,71.5,142.2,71.5z M453.7,71.5 c-2.4,0-4.7-1.5-5.6-3.9c-1.2-3.1,0.4-6.6,3.5-7.7l70.8-26.8c3.1-1.2,6.6,0.4,7.7,3.5c1.2,3.1-0.4,6.6-3.5,7.7l-70.8,26.8 C455.1,71.4,454.4,71.5,453.7,71.5z"/>
    </symbol>
    <symbol id="icon6" viewBox="0 0 595.3 595.3">
      <path d="M330.8,396.5h-5.2c-6.4,0-11.6-5.2-11.6-11.6v-5.2c0-6.4,5.2-11.6,11.6-11.6h5.2c6.4,0,11.6,5.2,11.6,11.6v5.2 C342.4,391.4,337.2,396.5,330.8,396.5z M325.6,377.2c-1.4,0-2.6,1.1-2.6,2.6v5.2c0,1.4,1.1,2.6,2.6,2.6h5.2c1.4,0,2.6-1.1,2.6-2.6 v-5.2c0-1.4-1.1-2.6-2.6-2.6H325.6z M269,396.5h-5.2c-6.4,0-11.6-5.2-11.6-11.6v-5.2c0-6.4,5.2-11.6,11.6-11.6h5.2 c6.4,0,11.6,5.2,11.6,11.6v5.2C280.5,391.4,275.4,396.5,269,396.5z M263.8,377.2c-1.4,0-2.6,1.1-2.6,2.6v5.2c0,1.4,1.1,2.6,2.6,2.6 h5.2c1.4,0,2.6-1.1,2.6-2.6v-5.2c0-1.4-1.1-2.6-2.6-2.6H263.8z M204.3,396.5h-5.2c-6.4,0-11.6-5.2-11.6-11.6v-5.2 c0-6.4,5.2-11.6,11.6-11.6h5.2c6.4,0,11.6,5.2,11.6,11.6v5.2C215.8,391.4,210.6,396.5,204.3,396.5z M199.1,377.2 c-1.4,0-2.6,1.1-2.6,2.6v5.2c0,1.4,1.1,2.6,2.6,2.6h5.2c1.4,0,2.6-1.1,2.6-2.6v-5.2c0-1.4-1.1-2.6-2.6-2.6H199.1z M392.6,341h-5.2 c-6.4,0-11.6-5.2-11.6-11.6v-5.2c0-6.4,5.2-11.6,11.6-11.6h5.2c6.4,0,11.6,5.2,11.6,11.6v5.2C404.2,335.8,399,341,392.6,341z M387.4,321.7c-1.4,0-2.6,1.1-2.6,2.6v5.2c0,1.4,1.1,2.6,2.6,2.6h5.2c1.4,0,2.6-1.1,2.6-2.6v-5.2c0-1.4-1.1-2.6-2.6-2.6H387.4z M330.8,341h-5.2c-6.4,0-11.6-5.2-11.6-11.6v-5.2c0-6.4,5.2-11.6,11.6-11.6h5.2c6.4,0,11.6,5.2,11.6,11.6v5.2 C342.4,335.8,337.2,341,330.8,341z M325.6,321.7c-1.4,0-2.6,1.1-2.6,2.6v5.2c0,1.4,1.1,2.6,2.6,2.6h5.2c1.4,0,2.6-1.1,2.6-2.6v-5.2 c0-1.4-1.1-2.6-2.6-2.6H325.6z M269,341h-5.2c-6.4,0-11.6-5.2-11.6-11.6v-5.2c0-6.4,5.2-11.6,11.6-11.6h5.2 c6.4,0,11.6,5.2,11.6,11.6v5.2C280.5,335.8,275.4,341,269,341z M263.8,321.7c-1.4,0-2.6,1.1-2.6,2.6v5.2c0,1.4,1.1,2.6,2.6,2.6h5.2 c1.4,0,2.6-1.1,2.6-2.6v-5.2c0-1.4-1.1-2.6-2.6-2.6H263.8z M204.3,341h-5.2c-6.4,0-11.6-5.2-11.6-11.6v-5.2 c0-6.4,5.2-11.6,11.6-11.6h5.2c6.4,0,11.6,5.2,11.6,11.6v5.2C215.8,335.8,210.6,341,204.3,341z M199.1,321.7 c-1.4,0-2.6,1.1-2.6,2.6v5.2c0,1.4,1.1,2.6,2.6,2.6h5.2c1.4,0,2.6-1.1,2.6-2.6v-5.2c0-1.4-1.1-2.6-2.6-2.6H199.1z M454.4,286.7 h-5.2c-6.4,0-11.6-5.2-11.6-11.6V270c0-6.4,5.2-11.6,11.6-11.6h5.2c6.4,0,11.6,5.2,11.6,11.6v5.2 C466,281.5,460.8,286.7,454.4,286.7z M449.2,267.4c-1.4,0-2.6,1.1-2.6,2.6v5.2c0,1.4,1.1,2.6,2.6,2.6h5.2c1.4,0,2.6-1.1,2.6-2.6 V270c0-1.4-1.1-2.6-2.6-2.6H449.2z M392.6,286.7h-5.2c-6.4,0-11.6-5.2-11.6-11.6V270c0-6.4,5.2-11.6,11.6-11.6h5.2 c6.4,0,11.6,5.2,11.6,11.6v5.2C404.2,281.5,399,286.7,392.6,286.7z M387.4,267.4c-1.4,0-2.6,1.1-2.6,2.6v5.2c0,1.4,1.1,2.6,2.6,2.6 h5.2c1.4,0,2.6-1.1,2.6-2.6V270c0-1.4-1.1-2.6-2.6-2.6H387.4z M330.8,286.7h-5.2c-6.4,0-11.6-5.2-11.6-11.6V270 c0-6.4,5.2-11.6,11.6-11.6h5.2c6.4,0,11.6,5.2,11.6,11.6v5.2C342.4,281.5,337.2,286.7,330.8,286.7z M325.6,267.4 c-1.4,0-2.6,1.1-2.6,2.6v5.2c0,1.4,1.1,2.6,2.6,2.6h5.2c1.4,0,2.6-1.1,2.6-2.6V270c0-1.4-1.1-2.6-2.6-2.6H325.6z M269,286.7h-5.2 c-6.4,0-11.6-5.2-11.6-11.6V270c0-6.4,5.2-11.6,11.6-11.6h5.2c6.4,0,11.6,5.2,11.6,11.6v5.2C280.5,281.5,275.4,286.7,269,286.7z M263.8,267.4c-1.4,0-2.6,1.1-2.6,2.6v5.2c0,1.4,1.1,2.6,2.6,2.6h5.2c1.4,0,2.6-1.1,2.6-2.6V270c0-1.4-1.1-2.6-2.6-2.6H263.8z M204.3,286.7h-5.2c-6.4,0-11.6-5.2-11.6-11.6V270c0-6.4,5.2-11.6,11.6-11.6h5.2c6.4,0,11.6,5.2,11.6,11.6v5.2 C215.8,281.5,210.6,286.7,204.3,286.7z M199.1,267.4c-1.4,0-2.6,1.1-2.6,2.6v5.2c0,1.4,1.1,2.6,2.6,2.6h5.2c1.4,0,2.6-1.1,2.6-2.6 V270c0-1.4-1.1-2.6-2.6-2.6H199.1z M454.4,232.5h-5.2c-6.4,0-11.6-5.2-11.6-11.6v-5.2c0-6.4,5.2-11.6,11.6-11.6h5.2 c6.4,0,11.6,5.2,11.6,11.6v5.2C466,227.3,460.8,232.5,454.4,232.5z M449.2,213.2c-1.4,0-2.6,1.1-2.6,2.6v5.2c0,1.4,1.1,2.6,2.6,2.6 h5.2c1.4,0,2.6-1.1,2.6-2.6v-5.2c0-1.4-1.1-2.6-2.6-2.6H449.2z M392.6,232.5h-5.2c-6.4,0-11.6-5.2-11.6-11.6v-5.2 c0-6.4,5.2-11.6,11.6-11.6h5.2c6.4,0,11.6,5.2,11.6,11.6v5.2C404.2,227.3,399,232.5,392.6,232.5z M387.4,213.2 c-1.4,0-2.6,1.1-2.6,2.6v5.2c0,1.4,1.1,2.6,2.6,2.6h5.2c1.4,0,2.6-1.1,2.6-2.6v-5.2c0-1.4-1.1-2.6-2.6-2.6H387.4z M330.8,232.5 h-5.2c-6.4,0-11.6-5.2-11.6-11.6v-5.2c0-6.4,5.2-11.6,11.6-11.6h5.2c6.4,0,11.6,5.2,11.6,11.6v5.2 C342.4,227.3,337.2,232.5,330.8,232.5z M325.6,213.2c-1.4,0-2.6,1.1-2.6,2.6v5.2c0,1.4,1.1,2.6,2.6,2.6h5.2c1.4,0,2.6-1.1,2.6-2.6 v-5.2c0-1.4-1.1-2.6-2.6-2.6H325.6z M269,232.5h-5.2c-6.4,0-11.6-5.2-11.6-11.6v-5.2c0-6.4,5.2-11.6,11.6-11.6h5.2 c6.4,0,11.6,5.2,11.6,11.6v5.2C280.5,227.3,275.4,232.5,269,232.5z M263.8,213.2c-1.4,0-2.6,1.1-2.6,2.6v5.2c0,1.4,1.1,2.6,2.6,2.6 h5.2c1.4,0,2.6-1.1,2.6-2.6v-5.2c0-1.4-1.1-2.6-2.6-2.6H263.8z M204.3,232.5h-5.2c-6.4,0-11.6-5.2-11.6-11.6v-5.2 c0-6.4,5.2-11.6,11.6-11.6h5.2c6.4,0,11.6,5.2,11.6,11.6v5.2C215.8,227.3,210.6,232.5,204.3,232.5z M199.1,213.2 c-1.4,0-2.6,1.1-2.6,2.6v5.2c0,1.4,1.1,2.6,2.6,2.6h5.2c1.4,0,2.6-1.1,2.6-2.6v-5.2c0-1.4-1.1-2.6-2.6-2.6H199.1z"/><path d="M370.1,434.8H174.7c0,0,0,0,0,0c0,0,0,0,0,0c-1.6,0-3.1-0.7-4.2-1.7L97.7,361c-2.4-2.3-2.4-6.1,0-8.5s6.1-2.4,8.5,0 l62.6,62v-53.2h-41.1c-3.3,0-6-2.7-6-6s2.7-6,6-6h47.1c3.3,0,6,2.7,6,6v67.6h189.5c3.3,0,6,2.7,6,6S373.4,434.8,370.1,434.8z M493.5,307.7c-3.3,0-6-2.7-6-6V179.7H101.9c-3.3,0-6-2.7-6-6v-48.4c0-12.4,10.1-22.6,22.6-22.6c3.3,0,6,2.7,6,6c0,3.3-2.7,6-6,6 c-5.8,0-10.6,4.7-10.6,10.6v42.4h379.6v-42.4c0-5.8-4.7-10.6-10.6-10.6c-3.3,0-6-2.7-6-6c0-3.3,2.7-6,6-6 c12.4,0,22.6,10.1,22.6,22.6v176.4C499.5,305,496.8,307.7,493.5,307.7z M451.8,153.8c-8.5,0-15.5-6.9-15.5-15.5V89.1 c0-8.5,6.9-15.5,15.5-15.5c8.5,0,15.5,6.9,15.5,15.5v49.2C467.3,146.9,460.4,153.8,451.8,153.8z M451.8,85.7 c-1.9,0-3.5,1.5-3.5,3.5v49.2c0,1.9,1.5,3.5,3.5,3.5s3.5-1.5,3.5-3.5V89.1C455.3,87.2,453.7,85.7,451.8,85.7z M390,153.8 c-8.5,0-15.5-6.9-15.5-15.5V89.1c0-8.5,6.9-15.5,15.5-15.5s15.5,6.9,15.5,15.5v13.6h14.9c3.3,0,6,2.7,6,6c0,3.3-2.7,6-6,6h-14.9 v23.7C405.5,146.9,398.5,153.8,390,153.8z M390,85.7c-1.9,0-3.5,1.5-3.5,3.5v49.2c0,1.9,1.5,3.5,3.5,3.5s3.5-1.5,3.5-3.5V89.1 C393.5,87.2,391.9,85.7,390,85.7z M328.2,153.8c-8.5,0-15.5-6.9-15.5-15.5V89.1c0-8.5,6.9-15.5,15.5-15.5s15.5,6.9,15.5,15.5v13.6 h15.1c3.3,0,6,2.7,6,6c0,3.3-2.7,6-6,6h-15.1v23.7C343.7,146.9,336.7,153.8,328.2,153.8z M328.2,85.7c-1.9,0-3.5,1.5-3.5,3.5v49.2 c0,1.9,1.5,3.5,3.5,3.5s3.5-1.5,3.5-3.5V89.1C331.7,87.2,330.1,85.7,328.2,85.7z M266.4,153.8c-8.5,0-15.5-6.9-15.5-15.5V89.1 c0-8.5,6.9-15.5,15.5-15.5s15.5,6.9,15.5,15.5v13.6h14.9c3.3,0,6,2.7,6,6c0,3.3-2.7,6-6,6h-14.9v23.7 C281.8,146.9,274.9,153.8,266.4,153.8z M266.4,85.7c-1.9,0-3.5,1.5-3.5,3.5v49.2c0,1.9,1.5,3.5,3.5,3.5s3.5-1.5,3.5-3.5V89.1 C269.8,87.2,268.3,85.7,266.4,85.7z M204.6,153.8c-8.5,0-15.5-6.9-15.5-15.5V89.1c0-8.5,6.9-15.5,15.5-15.5S220,80.6,220,89.1v13.6 h14.9c3.3,0,6,2.7,6,6c0,3.3-2.7,6-6,6H220v23.7C220,146.9,213.1,153.8,204.6,153.8z M204.6,85.7c-1.9,0-3.5,1.5-3.5,3.5v49.2 c0,1.9,1.5,3.5,3.5,3.5s3.5-1.5,3.5-3.5V89.1C208,87.2,206.5,85.7,204.6,85.7z M142.8,153.8c-8.5,0-15.5-6.9-15.5-15.5V89.1 c0-8.5,6.9-15.5,15.5-15.5s15.5,6.9,15.5,15.5v13.6h15.1c3.3,0,6,2.7,6,6c0,3.3-2.7,6-6,6h-15.1v23.7 C158.2,146.9,151.3,153.8,142.8,153.8z M142.8,85.7c-1.9,0-3.5,1.5-3.5,3.5v49.2c0,1.9,1.5,3.5,3.5,3.5c1.9,0,3.5-1.5,3.5-3.5V89.1 C146.2,87.2,144.7,85.7,142.8,85.7z"/><path d="M82.8,292c-15.6,0-28.3-12.7-28.3-28.3s12.7-28.3,28.3-28.3s28.3,12.7,28.3,28.3S98.4,292,82.8,292z M82.8,247.5 c-9,0-16.3,7.3-16.3,16.3S73.9,280,82.8,280s16.3-7.3,16.3-16.3S91.8,247.5,82.8,247.5z" id="XMLID_224_"/><path d="M88.4,342.1H77.3c-9.4,0-17.1-7.7-17.1-17.1v-3.4c0-3.9-2-7.3-5.3-9.3c-3.3-1.9-7.3-1.9-10.7,0l-2.9,1.7 c-8.2,4.7-18.7,1.9-23.4-6.3l-5.6-9.6c-4.7-8.2-1.9-18.7,6.3-23.4l2.9-1.7c3.4-1.9,5.3-5.4,5.3-9.3s-2-7.3-5.3-9.3l-2.9-1.7 c-8.2-4.7-11-15.2-6.3-23.4l5.6-9.6c4.7-8.2,15.2-11,23.4-6.3l2.9,1.7c3.3,1.9,7.3,1.9,10.7,0c3.3-1.9,5.3-5.4,5.3-9.3v-3.4 c0-9.4,7.7-17.1,17.1-17.1h11.1c9.4,0,17.1,7.7,17.1,17.1v3.4c0,3.9,2,7.3,5.3,9.3c3.3,1.9,7.3,1.9,10.7,0l2.9-1.7 c8.2-4.7,18.7-1.9,23.4,6.3l5.6,9.6c2.3,4,2.9,8.6,1.7,13c-1.2,4.4-4,8.1-8,10.4l-2.9,1.7c-3.4,1.9-5.4,5.4-5.4,9.3s2,7.3,5.3,9.3 l2.9,1.7c4,2.3,6.8,6,8,10.4c1.2,4.4,0.6,9-1.7,13l-5.6,9.6c-4.7,8.2-15.2,11-23.4,6.3l-2.9-1.7c-3.3-1.9-7.3-1.9-10.7,0 c-3.3,1.9-5.3,5.4-5.3,9.3v3.4C105.5,334.4,97.8,342.1,88.4,342.1z M49.4,298.8c3.9,0,7.8,1,11.3,3.1c7.1,4.1,11.3,11.5,11.3,19.7 v3.4c0,2.8,2.3,5.1,5.1,5.1h11.1c2.8,0,5.1-2.3,5.1-5.1v-3.4c0-8.2,4.2-15.6,11.3-19.7c7.1-4.1,15.6-4.1,22.7,0l2.9,1.7 c2.4,1.4,5.6,0.6,7-1.9l5.6-9.6c0.7-1.2,0.9-2.6,0.5-3.9c-0.4-1.3-1.2-2.4-2.4-3.1l-2.9-1.7c-7.1-4.1-11.3-11.4-11.3-19.7 s4.2-15.5,11.3-19.7l2.9-1.7c1.2-0.7,2-1.8,2.4-3.1c0.4-1.3,0.2-2.7-0.5-3.9c0,0,0,0,0,0l-5.6-9.6c-0.7-1.2-1.8-2-3.1-2.4 c-1.3-0.4-2.7-0.2-3.9,0.5l-2.9,1.7c-7.1,4.1-15.6,4.1-22.7,0c-7.1-4.1-11.3-11.4-11.3-19.6v-3.4c0-2.8-2.3-5.1-5.1-5.1H77.3 c-2.8,0-5.1,2.3-5.1,5.1v3.4c0,8.2-4.2,15.6-11.3,19.7c-7.1,4.1-15.6,4.1-22.7,0l-2.9-1.7c-2.4-1.4-5.6-0.6-7,1.9l-5.6,9.6 c-0.7,1.2-0.9,2.6-0.5,3.9c0.4,1.3,1.2,2.4,2.4,3.1l2.9,1.7c7.1,4.1,11.3,11.4,11.3,19.7s-4.2,15.5-11.3,19.7l-2.9,1.7 c-1.2,0.7-2,1.8-2.4,3.1c-0.4,1.3-0.2,2.7,0.5,3.9l5.6,9.6c1.4,2.5,4.6,3.3,7,1.9l2.9-1.7C41.6,299.9,45.5,298.8,49.4,298.8z" id="XMLID_242_"/><path d="M486.1,521.6c-54.4,0-98.6-44.2-98.6-98.6s44.2-98.6,98.6-98.6s98.6,44.2,98.6,98.6S540.5,521.6,486.1,521.6z M486.1,336.4 c-47.7,0-86.6,38.8-86.6,86.6s38.8,86.6,86.6,86.6s86.6-38.8,86.6-86.6S533.8,336.4,486.1,336.4z"/><path d="M549.6,496.4c-2.2,0-4.4-1.2-5.4-3.4c-2-4-15.9-9.4-27.1-13.7l-2.8-1.1c-18.5-7.1-17.7-21.4-17.3-29 c0.1-1.2,0.1-2.3,0.1-3.2c0-2.1,1.1-4.1,3-5.2c4.8-2.8,6.8-7,6.5-13.5c-0.1-2.3,1.1-4.5,3.1-5.6c2.1-1.2,2.8-3.5,3-4.8 c0.4-2.3-0.2-4.4-0.9-5.1c-1.5-1.5-2-3.7-1.4-5.8c4.1-14.4,4-25.6-0.2-32.6c-3.4-5.6-8.5-6.6-8.7-6.7c-1.7-0.2-2.8-1-3.8-2.4 c-0.2-0.3-7-8.7-22.6-3.5c-22.9,7.5-20.6,26.9-16,42.8l0.2,0.9c0.6,2,0.1,4.1-1.3,5.7c-2.6,2.9-2.2,4.8,2.4,11 c0.6,0.8,1.2,1.6,1.7,2.3c0.7,1,1,2.1,1,3.2c0.1,5.7,5.9,11.3,8.6,14.1l0.5,0.5c1.1,1.1,1.8,2.7,1.8,4.2c0,17.1-2.4,25.9-16.8,32.2 c-10.2,4.5-30.3,15.9-30.5,16c-2.9,1.6-6.5,0.6-8.2-2.2c-1.6-2.9-0.6-6.5,2.2-8.2c0.8-0.5,20.9-11.9,31.6-16.6 c6.8-3,9.3-4.8,9.6-18.7c-3.7-3.7-9.7-10.5-10.7-19c-0.2-0.2-0.3-0.4-0.5-0.7c-3.2-4.2-10.2-13.6-3.9-23.5 c-1.6-5.7-3.8-15.2-2.4-25.2c2-14.7,11.3-25.2,26.8-30.3c19.3-6.3,30.5,2.1,34.4,6c3.4,1.1,9.8,3.9,14.4,11.3 c6,9.5,6.9,22.9,2.5,39.8c1.9,3.5,2.6,7.9,1.9,12.2c-0.7,4.5-2.8,8.4-5.9,11.2c-0.4,9.7-4.9,15.6-9.6,19.2c0,0.2,0,0.4,0,0.6 c-0.4,7.3-0.7,13.1,9.6,17.1l2.8,1.1c16.5,6.4,29.6,11.4,33.6,19.7c1.4,3,0.2,6.6-2.8,8C551.4,496.2,550.5,496.4,549.6,496.4z"/>
    </symbol>
    <symbol id="icon7" viewBox="0 0 595.3 595.3">
      <path d="M297.9,581.7c-0.1,0-0.2,0-0.2,0c-2,0.1-4-0.8-5.2-2.6l-19.6-28.5c-0.8-1.2-1.2-2.6-1-4.1l4.6-41.4 c-6.7,5.9-12.7,12.6-12.8,17.1c0,0.9,0.2,2,2,3.4c1.9,1.4,2.8,3.8,2.3,6.1c-0.5,2.3-2.4,4.1-4.7,4.6c-2.8,0.6-4.7,2.2-5.6,5.1 c-1.8,5.6,0.3,13.7,5,18.9c1.6,1.8,2,4.3,1,6.5c-1,2.2-3.2,3.5-5.6,3.5c-16.3-0.3-37.9-9.8-45.9-26.6c-3.9-8.1-6-21,5.8-36.4 c20.3-26.4,53.6-44.8,63.9-50l0.1-0.8c-25.6-25.6-30-41.6-29.8-50c-0.4-0.2-0.8-0.4-1.2-0.5c-10.2,13.3-1.9,28.8,5.6,39.6l0.1,0.1 c1.9,2.7,1.2,6.4-1.5,8.3c-7,4.9-14.9,6.4-21.4,5.8l-4.2,16.9c-0.5,2-2,3.7-4,4.3l-82.2,25.8l11.5,21.3c1.6,2.9,0.5,6.6-2.4,8.1 c-2.9,1.6-6.6,0.5-8.1-2.4l-14.6-27.1l-16.1-18.1c-1.3-1.5-1.8-3.4-1.4-5.1c-0.1-0.4-0.1-0.8-0.1-1.2c0-1.8,0.8-3.4,2.1-4.5 l-26.8-49.9L61.9,426c-1.8-0.1-3.5-1.1-4.5-2.5l-14.5-20.7c-1.9-2.7-1.2-6.5,1.5-8.4c2.7-1.9,6.5-1.2,8.4,1.5l12.9,18.4l21.6,1.5 l5.6-13.5L88,382.8c-0.8-3.2,1.2-6.5,4.4-7.3c3.2-0.8,6.5,1.2,7.3,4.4l5.2,21.2c0.3,1.2,0.2,2.5-0.3,3.7l-6.9,16.7l29.3,54.5h4.7 l39.8-13.8c3.1-1.1,6.5,0.6,7.6,3.7c1.1,3.1-0.6,6.5-3.7,7.6l-40.8,14.1c-0.4,0.1-0.8,0.2-1.3,0.3l4.2,7.8l81.1-25.5l3.1-12.5 c-4.8,2.9-10.3,5.1-13.3,6.2c-1.8,0.7-3.8,0.4-5.4-0.6c-2-1.3-7.7-5.3-11-10.3c-9.9-0.6-21.5-2.8-26.9-9.7c-2-2.5-1.7-6.1,0.7-8.2 c0.1-0.1,11.9-11.3,15.7-30.4c3.8-18.8,33.9-26.3,47.5-28.7c-0.3-2-0.5-4-0.5-6.1V355h-25.3c-7.8,17.7-32.4,30.7-41.8,32.3 c-2.3,0.4-4.6-0.6-5.9-2.4c-6-8.4-10.2-23.3-11.2-38.1c-16.1,9.7-39.7,12-43,12.3c-1.9,0.2-3.8-0.6-5.1-2.1 c-1.3-1.5-1.7-3.5-1.3-5.3c0.2-0.8,3.9-15.4,12-28.6c-19,2.5-41.9,2.6-43.2,2.6c-2.2,0-4.3-1.2-5.3-3.2c-1.1-2-0.9-4.3,0.3-6.2 c0.4-0.7,9.1-13.4,27.2-27.2c-43.9-7.2-62.2-35.3-63-36.7c-1.2-1.8-1.2-4.1-0.2-6s3-3.1,5.2-3.2c0.2,0,12.4-0.3,35.4-0.2 c-33.7-19.5-49.2-51.7-50-53.4c-1-2.1-0.7-4.6,0.8-6.4c1.5-1.8,3.9-2.6,6.1-2c0.2,0.1,16.1,4.2,39.4,11.9 c-31.4-30.3-30.2-57.6-30.1-59c0.1-2,1.3-3.8,3-4.8s3.9-1,5.7-0.1c0.7,0.4,13.6,7.1,33.2,19.6c-10.7-30.3,2.4-54.5,3.1-55.8 c1-1.8,2.8-2.9,4.9-3.1c2-0.1,4,0.8,5.2,2.4l48.2,65c2,2.7,1.4,6.4-1.2,8.4c-2.7,2-6.4,1.4-8.4-1.2l-41.7-56.3 c-3.2,11.6-5.2,32.6,11.2,55.1c1.7,2.4,1.5,5.6-0.6,7.7c-2,2.1-5.3,2.4-7.7,0.7c-17.4-12-32.1-20.9-41.3-26.2 c0.9,3.4,2.4,7.6,4.7,12.2c6.2,12.6,20,31.3,50.3,49.3c2.7,1.6,3.7,5,2.3,7.8c-1.4,2.8-4.7,4.1-7.6,3 c-25.1-9.7-47.4-16.8-61.3-20.8c10.4,15,31.8,39.1,65.2,46.4c3,0.7,5,3.5,4.7,6.5c-0.3,3-2.9,5.3-6,5.3c0,0,0,0-0.1,0 c-25-0.3-43.4-0.3-54.6-0.2c9.9,9.4,29.7,22.7,62.3,23.6c2.7,0.1,5,1.9,5.6,4.5c0.7,2.6-0.4,5.3-2.7,6.7 c-13.6,8.2-23.3,17-29.4,23.5c13.2-0.5,33-1.8,43.4-5.1c2.7-0.8,5.6,0.3,7,2.8c1.4,2.5,0.9,5.6-1.3,7.4 c-8.2,7.2-13.6,19.2-16.6,27.4c12.2-2.2,29.8-7,36-15.7c1.6-2.2,4.4-3.1,6.9-2.2c2.5,0.9,4.1,3.4,3.9,6.1c-1,13.6,2,30.4,6.9,40.2 c9.7-3.7,27-15.4,30-26.9c0.7-2.6,3.1-4.5,5.8-4.5h29.5v-25l-11.9,0.2l-18,8c-2.2,1-4.8,0.6-6.5-1.1L175,309.4l-20.3-2.3 c-2.9-0.3-5.1-2.6-5.3-5.5c-0.1-0.8-0.4-7.3,2.7-21.8c-18-11.3-14.5-39.3-14.3-40.5c0.3-1.9,1.1-3.8,2.8-4.7c1.7-0.9,3.3-1,5-0.2 c0.7,0.1,3.4,0.4,9.1-0.4c-11.7-19.7-8-47.7-7.9-49.1c0.3-2.2,1.8-4.1,3.9-4.8c2.1-0.8,4.5-0.3,6.1,1.2 c1.2,1.1,30.5,28.2,46.4,47.2c8.5,10.1,10.3,22,5,32.5c-2.9,5.8-7.8,10.4-12.8,12.6c0.4,1.9,1,3.3,2,4.2c1.8,1.8,5.1,2.7,10.1,2.7 c6.5,0,16.3-5.5,21.2-8.7v-7.6c0-2.3,0.7-4.4,2-6.1c-5.7-5.3-11.5-13.6-11.3-25.6c0-3,2.2-5.5,5.2-5.9c0.2,0,17.4-2.7,20.2-13.5 c1.6-5.9-0.3-18.1-22.1-39.8H172c-3,0-5.5-2.2-5.9-5.2c-0.1-0.7-2.1-16.2,7.2-26.3c4.5-4.9,10.6-7.6,18.2-8.2 c-6.7-9.9-13.8-27-8.7-37.9c2.7-5.9,9.4-11.7,25.7-8.8V74.5c0-3.3,2.7-6,6-6c3.3,0,6,2.7,6,6v12.7c11.1-1.6,19.1,0.6,23.7,6.5 c6.8,8.8,3.3,22.5-0.4,31.7c6.7-0.1,14.3-0.2,23-0.2c2.4,0,4.6,1.5,5.5,3.7c0.9,2.2,0.4,4.8-1.3,6.5c-3.3,3.3-6.3,6.9-8.6,10 c3.7,1.1,7.8,3.1,12.2,6.6c10.5,8.5,18.2,23,23,43.3c4.9-20.3,12.6-34.8,23-43.3c4.3-3.5,8.5-5.5,12.2-6.6c-2.3-3.1-5.2-6.6-8.6-10 c-1.7-1.7-2.2-4.3-1.3-6.5s3.1-3.7,5.5-3.7c8.7,0,16.3,0.1,23,0.2c-3.7-9.3-7.1-23-0.4-31.7c4.6-5.9,12.5-8.1,23.7-6.5V74.5 c0-3.3,2.7-6,6-6s6,2.7,6,6v12.3c16.3-2.9,23,3,25.7,8.8c5.1,10.9-2,28-8.7,37.9c7.6,0.5,13.7,3.3,18.2,8.2 c9.3,10.1,7.3,25.7,7.2,26.3c-0.4,3-2.9,5.2-5.9,5.2h-50.7c-21.8,21.8-23.7,33.9-22.1,39.8c2.8,10.8,20.1,13.5,20.2,13.5 c2.9,0.4,5.1,2.9,5.2,5.9c0.2,11.9-5.4,20.1-11.1,25.4c1.4,1.7,2.2,3.9,2.2,6.3v7.9c5.2,3.3,14.5,8.3,20.8,8.3 c5,0,8.3-0.9,10.1-2.7c0.9-1,1.6-2.4,2-4.2c-5-2.1-9.9-6.7-12.8-12.6c-5.3-10.5-3.5-22.4,5-32.5c15.9-19,45.1-46,46.4-47.2 c1.6-1.5,4-2,6.1-1.2c2.1,0.8,3.6,2.6,3.9,4.8c0.2,1.4,3.9,29.4-7.9,49.1c5.7,0.8,8.4,0.5,9.1,0.4c1.7-0.8,3.3-0.6,5,0.2 c1.7,0.9,2.6,2.7,2.8,4.7c0.2,1.3,3.7,29.2-14.3,40.5c3.1,14.5,2.8,21,2.7,21.8c-0.2,2.9-2.4,5.2-5.3,5.5l-20.3,2.3L403,325.2 c-1.8,1.6-4.3,2-6.5,1.1l-18-8l-11.4-0.2v25h29.1c2.7,0,5.1,1.8,5.8,4.5c3,11.5,20.3,23.1,30,26.9c4.9-9.7,7.9-26.6,6.9-40.2 c-0.2-2.7,1.4-5.2,3.9-6.1c2.5-0.9,5.4,0,6.9,2.2c6.2,8.7,23.7,13.5,36,15.7c-3-8.2-8.5-20.2-16.6-27.4c-2.1-1.9-2.7-5-1.3-7.4 c1.4-2.5,4.3-3.6,7-2.8c10.3,3.2,30.2,4.6,43.4,5.1c-6.2-6.5-15.9-15.3-29.4-23.5c-2.3-1.4-3.4-4.1-2.7-6.7s3-4.4,5.6-4.5 c32.6-0.9,52.4-14.3,62.3-23.6c-11.2-0.1-29.6-0.1-54.6,0.2c0,0,0,0-0.1,0c-3,0-5.6-2.3-6-5.3c-0.3-3.1,1.7-5.9,4.7-6.5 c33.5-7.4,54.9-31.4,65.3-46.4c-13.8,4.1-36.2,11.1-61.3,20.8c-2.9,1.1-6.2-0.2-7.6-3s-0.3-6.2,2.3-7.8 c39.4-23.3,51.4-47.9,55.1-61.5c-9.2,5.3-23.9,14.2-41.3,26.3c-2.4,1.7-5.7,1.4-7.7-0.7c-2-2.1-2.3-5.4-0.6-7.7 c16.2-22.3,14.3-43.4,11.2-55.1l-41.6,56.2c-2,2.7-5.7,3.2-8.4,1.2c-2.7-2-3.2-5.7-1.2-8.4l48.2-65c1.2-1.6,3.2-2.6,5.2-2.4 c2,0.1,3.9,1.3,4.9,3.1c0.7,1.2,13.8,25.4,3.1,55.8c19.6-12.5,32.5-19.2,33.2-19.6c1.8-0.9,3.9-0.9,5.7,0.1c1.8,1,2.9,2.8,3,4.8 c0.1,1.4,1.3,28.8-30.1,59c23.3-7.7,39.2-11.8,39.4-11.9c2.3-0.6,4.6,0.2,6.1,2c1.5,1.8,1.8,4.3,0.8,6.4 c-0.8,1.7-16.3,33.9-50,53.4c23.1,0,35.3,0.2,35.4,0.2c2.2,0,4.1,1.3,5.2,3.2c1,1.9,0.9,4.2-0.2,6c-0.8,1.3-19.2,29.5-63,36.7 c18.1,13.8,26.8,26.6,27.2,27.2c1.2,1.8,1.3,4.2,0.3,6.2s-3.1,3.2-5.3,3.2c-1.3,0-24.2-0.2-43.2-2.6c8.1,13.3,11.8,27.8,12,28.6 c0.5,1.9,0,3.9-1.3,5.3c-1.3,1.5-3.2,2.2-5.1,2.1c-3.3-0.3-26.9-2.7-43-12.3c-1,14.8-5.2,29.7-11.2,38.1c-1.3,1.9-3.6,2.8-5.9,2.4 c-9.4-1.6-33.9-14.6-41.8-32.3h-24.8v15.2c0,2.1-0.2,4.2-0.5,6.2c13.9,2.5,43.4,10,47.1,28.6c3.8,19.1,15.6,30.3,15.7,30.4 c2.4,2.1,2.7,5.7,0.7,8.2c-5.4,6.8-17,9.1-26.9,9.6c-3.3,5-9,9-11,10.3c-1.6,1-3.6,1.3-5.4,0.6c-3-1.1-8.6-3.3-13.3-6.2l3.1,12.5 l82.2,25.8l8.1-9.1c-3-1-5.8-2.3-8.4-3.9l-2.8,1c-1.3,0.5-2.7,0.5-4,0l-30.4-10.6c-3.1-1.1-4.8-4.5-3.7-7.6 c1.1-3.1,4.5-4.8,7.6-3.7l19,6.6c-3.9-6.3-6.1-13.8-6.1-21.7c0-21.1,15.6-38.6,35.9-41.5v-6h-5.1c-3.3,0-6-2.7-6-6s2.7-6,6-6h5.1 v-6.3c0-3.3,2.7-6,6-6s6,2.7,6,6v6.3h5.7c3.3,0,6,2.7,6,6s-2.7,6-6,6h-5.7v6c20.3,2.9,35.9,20.4,35.9,41.5 c0,22.7-18.2,41.3-40.7,41.9l-16,17.9c-1.6,1.8-4,2.4-6.3,1.7l-89.1-28c-2-0.6-3.5-2.3-4-4.3l-4.2-16.9c-6.6,0.6-14.5-0.9-21.4-5.8 c-2.7-1.9-3.4-5.6-1.5-8.3l0.1-0.1c7.4-10.8,15.7-26.2,5.7-39.5c-0.4,0.2-0.9,0.4-1.3,0.6c0.2,8.4-4.4,24.4-29.8,49.8l0.1,0.8 c10.3,5.2,43.6,23.6,63.9,50c11.8,15.4,9.7,28.3,5.8,36.4c-8.1,16.8-29.7,26.2-45.9,26.6c-2.4,0.1-4.6-1.3-5.6-3.5 c-1-2.2-0.6-4.7,1-6.5c4.7-5.2,6.9-13.4,5-18.9c-0.9-2.8-2.8-4.5-5.6-5.1c-2.3-0.5-4.2-2.3-4.7-4.6c-0.5-2.3,0.4-4.7,2.3-6.1 c1.8-1.4,2-2.4,2-3.4c-0.1-4.5-6.1-11.2-12.8-17.1l4.6,41.4c0.2,1.4-0.2,2.9-1,4.1l-19.6,28.5C301.7,580.8,299.8,581.7,297.9,581.7 z M284,545.6l13.6,19.8l13.6-19.8l-8.8-78.9c-0.2,0.2-0.4,0.3-0.5,0.5c-1.2,1.1-2.7,1.6-4.2,1.5c-1.5,0-3-0.4-4.2-1.5 c-0.2-0.2-0.4-0.3-0.5-0.5l-2.9,25.7c0,0,0,0.1,0,0.1L284,545.6z M342.5,528.1c3,2.3,5.2,5.5,6.5,9.5c1.9,5.7,1.6,12.5-0.6,18.8 c9.9-3,19.8-9.3,23.8-17.8c3.5-7.4,2-15.4-4.5-23.9c-15.2-19.8-39.3-35.2-52.7-42.8l1.9,16.6c7.6,5.3,26.2,19.6,26.7,33.3 C343.7,523.6,343.4,525.8,342.5,528.1z M280.2,471.8c-13.4,7.6-37.5,22.9-52.7,42.8c-6.5,8.5-8,16.6-4.5,23.9 c4.1,8.5,13.9,14.8,23.8,17.8c-2.1-6.3-2.4-13.1-0.6-18.8c1.3-4,3.5-7.2,6.5-9.5c-0.9-2.3-1.2-4.5-1.1-6.3 c0.4-13.8,19.1-28.1,26.7-33.3L280.2,471.8z M479.9,417.4c-16.5,0-29.9,13.4-29.9,29.9c0,16.5,13.4,29.9,29.9,29.9 c16.5,0,29.9-13.4,29.9-29.9C509.8,430.8,496.4,417.4,479.9,417.4z M292.6,450.1c1.6,1.6,3.3,3.1,5.1,4.8c1.8-1.6,3.5-3.2,5.1-4.8 c0.1-0.1,0.2-0.2,0.3-0.3c21.5-21,26.7-33.9,27.8-40.1c-1.1,0.1-2.1,0.1-3.2,0.1h-9.3c-2.6,0-5.1,1.1-6.7,3.1 c-4.1,4.8-7,8.9-8.2,11.5c-1,2.1-3.1,3.5-5.5,3.5c0,0-0.1,0-0.1,0c-2.4,0-4.5-1.5-5.4-3.6c-1.1-2.6-3.7-6.5-7.3-11 c-1.8-2.3-4.5-3.6-7.4-3.6h-9.4c-1.2,0-2.5-0.1-3.7-0.2c1.1,6.2,6.2,19.1,27.8,40.1C292.4,449.8,292.5,450,292.6,450.1z M371,442.2 c2,0,4,1,5.1,2.8c1,1.5,6.3,4.4,11.9,6.8c2.9-2.3,5.3-4.8,5.7-6.1c0.7-2.5,3-4.2,5.6-4.3c7.9-0.2,13.5-1.3,17-2.6 c-4.7-6-11.5-16.7-14.5-31.4c-2.1-10.3-24.9-17-39-19.4c-2.1,4.3-5,8.1-8.5,11.3c6.3,8.6,8.2,18.9,5.5,30.1 c-1.7,6.8-4.8,12.9-7.6,17.4c6,2.1,11.7,0.8,13.1-0.4c0.7-2.1,2.5-3.7,4.7-4.1C370.3,442.3,370.7,442.2,371,442.2z M178.9,438.9 c3.5,1.3,9.1,2.4,17,2.6c2.6,0.1,4.9,1.8,5.6,4.3c0.4,1.3,3,3.9,5.7,6.1c5.6-2.4,10.9-5.3,12-6.8c1.3-2.1,3.7-3.1,6.1-2.7 c2.2,0.4,4,2,4.7,4.1c1.4,1.2,7,2.4,13.1,0.4c-2.7-4.5-5.9-10.5-7.6-17.4c-2.8-11.3-0.8-21.7,5.7-30.4c-3.4-3.2-6.2-6.9-8.3-11.1 c-14.1,2.4-37.4,9.1-39.5,19.5C190.4,422.2,183.6,432.9,178.9,438.9z M240.7,265.8v104.5c0,15.2,12.3,27.5,27.5,27.5h9.4 c6.5,0,12.7,2.9,16.8,8c1.3,1.7,2.5,3.2,3.6,4.7c1.3-1.7,2.7-3.5,4.3-5.4c4-4.7,9.8-7.4,15.9-7.4h9.3c15.2,0,27.5-12.3,27.5-27.5 v-95c0,0,0-0.1,0-0.1v-9.4h-3.6c-0.1,0-0.2,0-0.3,0H244c-0.1,0-0.1,0-0.2,0H240.7z M161.6,295.8l16.7,1.9c1.3,0.1,2.5,0.7,3.4,1.6 l15.7,14.5l15.6-6.9c0.7-0.3,1.5-0.5,2.4-0.5l13.3-0.2v-20.4c-6,3.3-14.1,6.7-21.2,6.7c-8.4,0-14.5-2-18.6-6.3 c-4-4-5.9-9.9-5.8-17.5c0-1.6,0.7-3.2,1.9-4.3c1.2-1.1,2.8-1.7,4.4-1.6c1.2,0,5.5-2.1,8.1-7.3c2.2-4.3,3.4-11.2-3.5-19.4 c-9.9-11.9-25.8-27.5-35.8-37.1c0.2,10.8,2.3,25.9,11.4,34.6c1.6,1.5,2.2,3.8,1.6,5.9c-0.6,2.1-2.3,3.8-4.4,4.3 c-7.9,1.8-13.5,2.5-17.4,2.6c0,7.6,1.7,20.6,11.8,24.5c2.8,1.1,4.3,4.1,3.6,7C162.9,286.2,162,292.1,161.6,295.8z M367.1,306.1 l12.8,0.2c0.8,0,1.6,0.2,2.4,0.5l15.6,6.9l15.7-14.5c0.9-0.9,2.1-1.4,3.4-1.6l16.7-1.9c-0.4-3.7-1.2-9.5-3.2-17.9 c-0.7-2.9,0.9-5.9,3.6-7c10.1-4,11.7-16.9,11.8-24.5c-3.9-0.1-9.5-0.8-17.4-2.6c-2.1-0.5-3.9-2.1-4.4-4.3c-0.6-2.1,0-4.4,1.6-5.9 c9.1-8.7,11.2-23.9,11.4-34.6c-10.1,9.7-25.9,25.3-35.8,37.1c-6.8,8.2-5.7,15.1-3.5,19.4c2.6,5.1,6.8,7.3,8,7.3c0,0,0,0,0.1,0 c1.6-0.1,3.2,0.5,4.4,1.6c1.2,1.1,1.9,2.7,1.9,4.3c0.1,7.5-1.8,13.4-5.8,17.5c-4.1,4.2-10.2,6.3-18.6,6.3c-6.9,0-14.8-3.3-20.8-6.5 V306.1z M303.8,253.8H350c3-1.5,11.5-6.7,13.6-16.5c-9.4-2.6-21.4-8.9-24.6-21.1c-5-18.9,12.2-43.5,52.5-75.1 c-2-0.7-5.7-1.5-12-2.2c-4.9-0.5-10.9-0.9-18.5-1.1c-0.1,0-0.1,0-0.2,0c-5.5-0.2-11.8-0.3-19-0.4c4.2,5.5,6.8,9.8,7,10 c1.2,2.1,1.2,4.7-0.2,6.7c-1.4,1.9-3.8,2.8-6.1,2.3c-0.7-0.1-7.1-0.8-14.5,5.4c-10.3,8.7-22.3,30.2-24.2,83.6 C303.7,248.1,303.8,250.9,303.8,253.8z M245.3,253.8h46.1c0-2.9,0.1-5.7,0.2-8.5c-1.8-53.4-13.9-75-24.2-83.6 c-7.4-6.2-13.8-5.5-14.5-5.4c-2.3,0.6-4.7-0.4-6.1-2.3c-1.4-1.9-1.5-4.6-0.2-6.7c0.2-0.3,2.7-4.6,7-10c-7.2,0.1-13.5,0.2-19,0.4 c-0.1,0-0.1,0-0.2,0c-7.5,0.3-13.6,0.6-18.5,1.1c-6.3,0.7-10,1.5-12,2.2c40.3,31.6,57.5,56.2,52.5,75.1 c-3.2,12.2-15.2,18.6-24.6,21.1C233.8,247.1,242.4,252.3,245.3,253.8z M449.5,234.4L449.5,234.4L449.5,234.4z M145.8,234.4 L145.8,234.4L145.8,234.4z M449.8,234.3L449.8,234.3L449.8,234.3z M145.4,234.3L145.4,234.3L145.4,234.3z M385.7,161.2h31.8 c-0.3-3.6-1.2-8.2-4.2-11.5c-2-2.2-4.9-3.6-8.6-4.1c-0.3,0.4-0.7,0.8-1.2,1.2C396.7,152,390.8,156.8,385.7,161.2z M177.9,161.2 h31.8c-5.2-4.5-11-9.2-17.7-14.3c-0.4-0.3-0.8-0.7-1.2-1.2c-3.7,0.5-6.6,1.9-8.6,4.1C179.1,153,178.1,157.7,177.9,161.2z M364.8,125.8c13.5,0.6,22,1.6,27.7,3c4.5-5.8,12.3-21.8,9.1-28.3c-1.6-3.2-8.4-3.4-18.3-0.7c-0.8,0.4-1.7,0.6-2.6,0.5 c-0.5,0-1.1,0-1.6-0.2c-9.5-2.4-16.2-2.1-18.4,0.7C357.3,105.4,360.8,117.4,364.8,125.8z M200.4,98c-3.5,0-5.9,0.9-6.8,2.6 c-3.3,6.5,4.5,22.5,9.1,28.3c5.7-1.4,14.3-2.4,27.7-3c4-8.4,7.5-20.4,4.1-24.8c-2.2-2.9-8.9-3.1-18.4-0.7c-0.5,0.1-1.1,0.2-1.6,0.2 c-0.9,0-1.8-0.2-2.6-0.5C207.4,98.6,203.5,98,200.4,98z M324.4,109.5h-52.8c-2.2,0-4.2-1.2-5.2-3.1c-2.3-4-21.7-40-7.9-60.4 c6.1-9.1,17.4-13.2,33.5-12.3V19.6c0-3.3,2.7-6,6-6s6,2.7,6,6v14.2c16.2-0.8,27.4,3.3,33.6,12.5c13.7,20.4-5.7,56.2-7.9,60.2 C328.5,108.4,326.5,109.5,324.4,109.5z M275.2,97.5h45.6c5.5-11,14.2-33.6,6.8-44.6c-4.2-6.3-13.9-8.5-28.8-6.6 c-0.3,0-0.5,0.1-0.8,0.1c0,0,0,0,0,0c0,0,0,0,0,0c0,0,0,0,0,0h0c0,0,0,0,0,0c0,0,0,0,0,0c0,0,0,0,0,0c0,0,0,0,0,0 c-0.3,0-0.5,0-0.8-0.1c-14.9-1.9-24.5,0.3-28.7,6.5C260.9,63.8,269.6,86.5,275.2,97.5z"/>
    </symbol>
    <symbol id="icon8" viewBox="0 0 595.3 595.3">
      <path d="M137.2,470.6c-0.1,0-0.2,0-0.3,0c-2.8-0.1-4.9-2.5-4.7-5.2c2.3-45.4,4.6-93.6,4.9-107.9c0-2.2,1.6-4.2,3.8-4.7 c2.2-0.6,4.5,0.4,5.6,2.3c10.2,17.7,43.7,72.9,51.1,85c3.2,5.1,7.4,7.3,11.1,5.6c3-1.3,5.4-5.4,3.9-11.4c-0.1-0.3-0.2-0.6-0.4-0.9 c-0.3-0.7-0.7-1.8-1.2-3.2c-1.1-3-2.6-7.3-4.3-12.2c-0.9-2.6,0.5-5.5,3.1-6.4c2.6-0.9,5.5,0.5,6.4,3.1c2.8,8,4.5,12.8,5.2,14.8 c0.2,0.4,0.4,0.7,0.5,1.1c0,0.1,0,0.1,0.1,0.2c3.5,12-2.3,20.8-9.2,23.9c-6.9,3.1-16.9,1.4-23.7-9.5c-6-9.6-28.5-46.7-42.5-70.4 c-0.9,21.3-2.6,55.7-4.3,90.9C142.1,468.5,139.9,470.6,137.2,470.6z M49.1,470.6c-2.7,0-4.9-2.1-5-4.8c-0.2-4.5-0.4-9-0.5-13 c-37-2.5-38.8-33.4-38.8-33.7c0-0.1,0-0.1,0-0.2V324c0-17.4,4.8-30.2,14.3-38c13-10.8,29.7-7.8,30.4-7.7c1.4,0.3,2.6,1.1,3.4,2.3 l25.9,42.7l4.2-25.5c-3.9-2.2-6.5-6.4-6.5-11.2v-3.7c0-7.1,5.7-12.8,12.8-12.8h7.3c7.1,0,12.8,5.7,12.8,12.8v3.7 c0,4.9-2.8,9.2-6.9,11.4l5.2,25.9l26.3-43.2c0.7-1.2,2-2.1,3.4-2.3c1.2-0.2,28.9-4.8,46.3,43.8c2.8,7.6,5.4,15.1,7.9,22.2 c2.1,5.8,4.1,11.5,6,16.9c0.9,2.6-0.4,5.5-3,6.4c-2.6,0.9-5.5-0.4-6.4-3c-1.9-5.4-3.9-11.1-6-16.9c-2.5-7.1-5.1-14.5-7.9-22.2 c-11.9-33.1-27.5-37.1-33.1-37.4l-31.4,51.8c0,0.1-0.1,0.2-0.2,0.2l-11.8,19.4c-0.2,0.4-0.5,0.7-0.8,1c-0.4,0.4-0.9,0.8-1.4,1 c-0.7,0.3-1.4,0.5-2.1,0.5c0,0,0,0,0,0c-0.7,0-1.4-0.1-2.1-0.4c-0.5-0.2-1-0.6-1.5-1c-0.3-0.3-0.6-0.7-0.8-1l-11.8-19.4 c0-0.1-0.1-0.2-0.1-0.2l-31.6-52c-4-0.3-13.1-0.1-20.1,5.8c-7,5.9-10.6,16.1-10.6,30.3v94.8c0.1,1.7,2.4,24.2,33.7,24.2 c2.7,0,4.9,2.2,5,4.9c0.1,4.9,0.3,11.1,0.6,17.5c0.1,2.8-2,5.1-4.8,5.2C49.2,470.6,49.2,470.6,49.1,470.6z M86.6,336.4l6.7,11 l6.6-10.9l-7.3-36.1L86.6,336.4z M90.3,289.4h4.8c0.1,0,0.3-0.1,0.4-0.1c0.6-0.1,1.2-0.1,1.8,0c1.1-0.4,2-1.4,2-2.7v-3.7 c0-1.5-1.3-2.8-2.8-2.8h-7.3c-1.5,0-2.8,1.3-2.8,2.8v3.7c0,1.1,0.7,2.1,1.6,2.5c0.5-0.1,0.9,0,1.4,0 C89.7,289.2,90,289.3,90.3,289.4z M92.9,251.7c-23.8,0-43.2-19.4-43.2-43.2s19.4-43.2,43.2-43.2c23.8,0,43.2,19.4,43.2,43.2 S116.7,251.7,92.9,251.7z M92.9,175.3c-18.3,0-33.2,14.9-33.2,33.2s14.9,33.2,33.2,33.2s33.2-14.9,33.2-33.2 S111.2,175.3,92.9,175.3z"/><path d="M545.7,470.6c-0.1,0-0.1,0-0.2,0c-2.8-0.1-4.9-2.5-4.8-5.2c0.3-6.4,0.5-12.6,0.6-17.5c0.1-2.7,2.3-4.9,5-4.9 c31.2,0,33.6-22.3,33.7-24.3V324c0-14.2-3.6-24.4-10.6-30.3c-7.1-5.9-16.1-6.1-20.1-5.8l-43.4,71.6c-0.2,0.4-0.5,0.7-0.8,1 c-0.4,0.4-0.9,0.8-1.4,1c-0.7,0.3-1.4,0.5-2.1,0.5c0,0,0,0,0,0c-0.7,0-1.4-0.1-2.1-0.4c-0.5-0.2-1-0.6-1.5-1 c-0.3-0.3-0.6-0.7-0.8-1l-11.8-19.4c0-0.1-0.1-0.1-0.1-0.2l-31.5-51.8c-5.5,0.3-21.3,4.2-33.1,37.4c-2.7,7.5-5.4,15.1-8,22.5 c-2,5.6-4,11.2-6,16.6c-0.9,2.6-3.8,4-6.4,3c-2.6-0.9-4-3.8-3-6.4c1.9-5.4,3.9-11,6-16.6c2.7-7.4,5.4-15,8-22.5 c17.3-48.7,45.2-44.1,46.3-43.8c1.4,0.3,2.6,1.1,3.4,2.3l26.3,43.2l5.2-25.8c-4.2-2.1-7-6.4-7-11.4v-3.7c0-7.1,5.7-12.8,12.8-12.8 h7.3c7.1,0,12.8,5.7,12.8,12.8v3.7c0,4.8-2.6,9-6.5,11.2l4.3,25.6l25.9-42.7c0.7-1.2,2-2.1,3.4-2.3c0.7-0.1,17.4-3,30.4,7.8 c9.4,7.9,14.2,20.6,14.2,38v94.9c0,0.1,0,0.1,0,0.2c0,0.3-1.8,31.2-38.8,33.7c-0.1,4-0.3,8.4-0.5,13 C550.6,468.5,548.4,470.6,545.7,470.6z M495,336.5l6.6,10.9l6.6-10.9l-6-35.9L495,336.5z M499.8,289.4h4.7c0.3-0.1,0.6-0.2,0.9-0.2 c0.5-0.1,1-0.1,1.4,0c0.9-0.4,1.6-1.4,1.6-2.5v-3.7c0-1.5-1.3-2.8-2.8-2.8h-7.3c-1.5,0-2.8,1.3-2.8,2.8v3.7c0,1.3,0.8,2.3,2,2.7 c0.6-0.1,1.2-0.1,1.9,0C499.5,289.3,499.7,289.4,499.8,289.4z M457.6,470.6c-2.6,0-4.9-2.1-5-4.8c-1.6-33.3-3.4-68.9-4.3-90.9 c-12.4,20.8-31.2,51.7-39.4,65.2l-3.2,5.2c-6.7,10.9-16.7,12.7-23.7,9.5c-7-3.1-12.8-12-9.2-24.1c0.9-3.1,2.9-8.9,5.3-15.6 c0.9-2.6,3.8-4,6.4-3c2.6,0.9,4,3.8,3,6.4c-2.3,6.6-4.3,12.2-5.1,15.1c-1.9,6.3,0.6,10.7,3.7,12.1c3.7,1.6,7.9-0.5,11.1-5.6 l3.1-5.2c10.6-17.4,38.6-63.6,48-79.8c1.1-1.9,3.4-2.9,5.6-2.3c2.2,0.6,3.7,2.5,3.8,4.7c0.3,14.6,2.7,63.3,4.9,107.9 c0.1,2.8-2,5.1-4.7,5.2C457.8,470.6,457.7,470.6,457.6,470.6z M501.9,251.7c-23.8,0-43.2-19.4-43.2-43.2s19.4-43.2,43.2-43.2 s43.2,19.4,43.2,43.2S525.7,251.7,501.9,251.7z M501.9,175.3c-18.3,0-33.2,14.9-33.2,33.2s14.9,33.2,33.2,33.2 c18.3,0,33.2-14.9,33.2-33.2S520.2,175.3,501.9,175.3z"/><path d="M400.6,421.8H193.8c-2.8,0-5-2.2-5-5V110.5c0-2.8,2.2-5,5-5h138.1c0.7,0,1.3,0.1,1.9,0.4c0.6,0.2,1.2,0.6,1.6,1.1 l68.7,68.3c1,1,1.5,2.3,1.5,3.6c0,0,0,0,0,0.1v237.9C405.6,419.6,403.4,421.8,400.6,421.8z M198.8,411.8h196.8V183.9l-63.7-0.4 c-2.8,0-5-2.3-5-5v-63H198.8V411.8z M336.9,173.5l51.6,0.3l-51.6-51.3V173.5z M266.6,394.9c-1.9,0-3.6-1-4.4-2.7l-28.5-54.1 c-1.3-2.4-0.3-5.5,2.1-6.8c2.4-1.3,5.5-0.3,6.8,2.1l23.8,45.2l13.5-28.7c0.7-1.4,1.9-2.4,3.4-2.8c1.5-0.3,3.1,0,4.3,1l17.7,14.7 l50.5-25.8c2.5-1.3,5.5-0.3,6.7,2.2c1.3,2.5,0.3,5.5-2.2,6.7l-53.4,27.3c-1.8,0.9-3.9,0.7-5.5-0.6l-15.2-12.7l-15,32 c-0.8,1.7-2.5,2.8-4.4,2.9C266.7,394.9,266.6,394.9,266.6,394.9z M315.2,299.5h-68.4c-2.8,0-5-2.2-5-5s2.2-5,5-5h68.4 c2.8,0,5,2.2,5,5S318,299.5,315.2,299.5z M348,268.8H245.9c-2.8,0-5-2.2-5-5s2.2-5,5-5H348c2.8,0,5,2.2,5,5S350.8,268.8,348,268.8z M348.5,238.1H246.4c-2.8,0-5-2.2-5-5s2.2-5,5-5h102.1c2.8,0,5,2.2,5,5S351.3,238.1,348.5,238.1z M348.5,207.6H246.4 c-2.8,0-5-2.2-5-5s2.2-5,5-5h102.1c2.8,0,5,2.2,5,5S351.3,207.6,348.5,207.6z"/>
    </symbol>
    <symbol id="icon9" viewBox="0 0 595.3 595.3">
      <path d="M391,559.9c-20.1,0-36.4-16.3-36.4-36.4l0-10.4c0-3.3,2.7-6,6-6s6,2.7,6,6l0,10.4c0,13.4,10.9,24.4,24.4,24.4 c13.4,0,24.4-10.9,24.4-24.4V475c-23.1,10.9-48.9,17-76.1,17h-42.2c-3.3,0-6-2.7-6-6s2.7-6,6-6h42.2c91.9,0,166.7-74.8,166.7-166.7 v-23.3c0-69.1-43.5-131.9-108.1-156.2c-3.1-1.2-4.7-4.6-3.5-7.7c1.2-3.1,4.6-4.7,7.7-3.5c33.7,12.7,62.5,35,83.4,64.5 c21.3,30.2,32.6,65.8,32.6,102.9v23.3c0,66.6-36.6,124.7-90.7,155.5v54.7C427.4,543.6,411.1,559.9,391,559.9z M165.8,556.8 c-70.9,0-128.5-57.7-128.5-128.5s57.7-128.5,128.5-128.5s128.5,57.7,128.5,128.5S236.7,556.8,165.8,556.8z M165.8,311.8 c-64.2,0-116.5,52.3-116.5,116.5s52.3,116.5,116.5,116.5s116.5-52.3,116.5-116.5S230.1,311.8,165.8,311.8z M128.7,505.4 c-3.3,0-6-2.7-6-6v-22h-17.8c-3.3,0-6-2.7-6-6s2.7-6,6-6h17.8v-94c0-6.7,5.5-12.2,12.2-12.2h49.6c26.9,0,48.9,21.9,48.9,48.9 s-21.9,48.9-48.9,48.9h-49.8v8.5h42.7c3.3,0,6,2.7,6,6s-2.7,6-6,6h-42.7v22C134.7,502.7,132,505.4,128.7,505.4z M134.7,444.9h49.8 c20.3,0,36.9-16.5,36.9-36.9s-16.5-36.9-36.9-36.9h-49.6c-0.1,0-0.2,0.1-0.2,0.2V444.9z M536.4,342.3c-1.7,0-3.4-0.7-4.6-2.1 c-2.1-2.5-1.8-6.3,0.7-8.5l36.7-30.7c1.6-1.4,2.6-3.4,2.6-5.5v-70.2c0-4-3.2-7.2-7.2-7.2h-43.8c-3.3,0-6-2.7-6-6c0-3.3,2.7-6,6-6 h43.8c10.6,0,19.2,8.6,19.2,19.2v70.2c0,5.7-2.5,11.1-6.9,14.7l-36.7,30.7C539.1,341.9,537.8,342.3,536.4,342.3z M54.9,340.4 c-3,0-5.6-2.2-5.9-5.3c-0.9-7.2-1.3-14.6-1.3-21.9v-23.3c0-34.4,9.8-66.6,26.7-93.8l-4.1,2.6c-0.1,0.1-0.3,0.2-0.4,0.2 c-6.3,3.5-13.5,5.3-20.7,5.3c-22.8,0-41.3-17.6-41.3-39.1c0-21.6,18.5-39.1,41.3-39.1c12.1,0,23.6,5,31.5,13.8 c2.2,2.5,2,6.3-0.4,8.5c-2.5,2.2-6.3,2-8.5-0.4c-5.6-6.2-13.8-9.8-22.5-9.8c-16.2,0-29.3,12.2-29.3,27.1s13.2,27.1,29.3,27.1 c5.2,0,10.3-1.3,14.8-3.7l32.6-21.3c32.6-34.5,78.8-56.1,129.9-56.1H284c3.3,0,6,2.7,6,6c0,3.3-2.7,6-6,6h-57.6 c-91.9,0-166.7,74.8-166.7,166.7v23.3c0,6.8,0.4,13.7,1.2,20.4c0.4,3.3-1.9,6.3-5.2,6.7C55.4,340.4,55.2,340.4,54.9,340.4z M394.1,237.7c-0.5,0-1-0.1-1.4-0.2c-3.2-0.8-5.2-4.1-4.4-7.3c2.1-8.4,11.8-24.3,33.8-24.3c22.3,0,31,16.1,32.5,24.7 c0.6,3.3-1.6,6.4-4.9,6.9c-3.2,0.6-6.3-1.6-6.9-4.8c-0.3-1.5-3.4-14.8-20.7-14.8c-17.7,0-21.7,13.6-22.2,15.2 C399.3,235.9,396.8,237.7,394.1,237.7z M313.7,177.1c-2.5,0-4.8-1.6-5.7-4.1c-13.9-40.6-13.9-74.9-0.2-102 c15.8-31.1,45.5-44.2,61.9-49.3c4.1-1.3,8.4-0.5,11.9,2c3.5,2.5,5.4,6.5,5.4,10.8v136.6c0,3.3-2.7,6-6,6s-6-2.7-6-6V34.5 c0-0.6-0.3-0.9-0.6-1.1c-0.3-0.2-0.7-0.4-1.2-0.2c-14.5,4.5-40.9,16.1-54.7,43.3c-12.2,24.1-11.9,55.2,0.8,92.7 c1.1,3.1-0.6,6.5-3.7,7.6C315,177,314.3,177.1,313.7,177.1z M459.2,142.9c-3.3,0-6-2.7-6-6V46.4c0-0.1,0-0.3-0.2-0.4 c-0.2-0.2-0.4-0.1-0.5,0c-10.2,4.3-28.9,13.4-39.4,25.9c-2.1,2.5-5.9,2.9-8.5,0.7c-2.5-2.1-2.9-5.9-0.7-8.5 c11.5-13.7,30.3-23.4,44-29.2c3.9-1.6,8.3-1.2,11.8,1.1c3.5,2.3,5.6,6.2,5.6,10.5v90.4C465.2,140.2,462.5,142.9,459.2,142.9z"/>
    </symbol>
    <symbol id="internet" viewBox="0 0 32 32">
      <path d="M16,31.4C7.5,31.4,0.6,24.5,0.6,16S7.5,0.5,16,0.5c8.5,0,15.5,6.9,15.5,15.5S24.6,31.4,16,31.4z M4,22 c1.9,3.8,5.6,6.6,10,7.3c-1-1.6-2.4-4.1-3.3-7.3H4z M21.4,22c-0.9,3.1-2.3,5.7-3.3,7.3c4.4-0.7,8-3.4,10-7.3H21.4z M12.8,22 c0.9,3,2.4,5.4,3.2,6.7c0.9-1.3,2.3-3.7,3.2-6.7H12.8z M21.8,20h7c0.4-1.3,0.6-2.6,0.6-4.1c0-1.5-0.2-3-0.7-4.3h-7 c0.3,1.3,0.4,2.8,0.4,4.3C22.2,17.4,22.1,18.7,21.8,20z M12.3,20h7.5c0.3-1.3,0.4-2.7,0.4-4.1c0-1.5-0.2-2.9-0.5-4.3h-7.4 c-0.3,1.3-0.5,2.8-0.5,4.3C11.9,17.4,12,18.7,12.3,20z M3.2,20h7c-0.2-1.3-0.4-2.7-0.4-4.1c0-1.5,0.2-2.9,0.4-4.3h-7 C2.8,13,2.6,14.4,2.6,16C2.6,17.4,2.8,18.7,3.2,20z M21.3,9.6h6.6c-2-3.7-5.6-6.3-9.8-7C19.1,4.2,20.4,6.6,21.3,9.6z M12.9,9.6h6.3 c-0.9-2.9-2.3-5.2-3.2-6.5C15.2,4.4,13.8,6.7,12.9,9.6z M4.2,9.6h6.6c0.9-3,2.2-5.5,3.2-7C9.7,3.3,6.1,6,4.2,9.6z"/>
    </symbol>
    <symbol id="mail" viewBox="0 0 512 512">
      <path d="M464 64H48C21.49 64 0 85.49 0 112v288c0 26.51 21.49 48 48 48h416c26.51 0 48-21.49 48-48V112c0-26.51-21.49-48-48-48zm0 48v40.805c-22.422 18.259-58.168 46.651-134.587 106.49-16.841 13.247-50.201 45.072-73.413 44.701-23.208.375-56.579-31.459-73.413-44.701C106.18 199.465 70.425 171.067 48 152.805V112h416zM48 400V214.398c22.914 18.251 55.409 43.862 104.938 82.646 21.857 17.205 60.134 55.186 103.062 54.955 42.717.231 80.509-37.199 103.053-54.947 49.528-38.783 82.032-64.401 104.947-82.653V400H48z"/>
    </symbol>
    <symbol id="map" viewBox="0 0 384 512">
      <path d="M192 96c-52.935 0-96 43.065-96 96s43.065 96 96 96 96-43.065 96-96-43.065-96-96-96zm0 160c-35.29 0-64-28.71-64-64s28.71-64 64-64 64 28.71 64 64-28.71 64-64 64zm0-256C85.961 0 0 85.961 0 192c0 77.413 26.97 99.031 172.268 309.67 9.534 13.772 29.929 13.774 39.465 0C357.03 291.031 384 269.413 384 192 384 85.961 298.039 0 192 0zm0 473.931C52.705 272.488 32 256.494 32 192c0-42.738 16.643-82.917 46.863-113.137S149.262 32 192 32s82.917 16.643 113.137 46.863S352 149.262 352 192c0 64.49-20.692 80.47-160 281.931z"/>
    </symbol>
    <symbol id="phone" viewBox="0 0 32 32">
      <path d="M29,30.1h-0.2c0,0,0,0,0,0C14,30,2,17.9,2,3.1V3c0-0.6,0.4-1,1-1h7c0.4,0,0.7,0.2,0.9,0.6l2.6,5.2c0.3,0.7,0.3,1.6,0,2.3 l-1.6,3.6c-0.3,0.6-0.2,1.2,0.1,1.8c1.2,1.7,2.7,3.3,4.7,4.5c0.5,0.3,1.3,0.4,1.9,0.1c1.1-0.5,2.4-1.2,3.2-1.6c0,0,0.1,0,0.1-0.1 c0.7-0.3,1.5-0.3,2.2,0l5.3,2.6c0.3,0.2,0.6,0.5,0.6,0.9v7.1C30,29.7,29.6,30.1,29,30.1z M4,4c0.5,13,11,23.6,24,24.1v-5.5 l-4.6-2.3c-0.2-0.1-0.4-0.1-0.7,0c-0.8,0.4-2.2,1.1-3.3,1.6c-1.2,0.5-2.6,0.4-3.7-0.3c-2.2-1.4-4-3.1-5.3-5.1 c-0.7-1.1-0.8-2.5-0.3-3.7l1.6-3.7c0.1-0.2,0.1-0.4,0-0.6L9.4,4H4z"/>
    </symbol>
    <symbol id="pointer" viewBox="0 0 32 32">
      <path d="M16,30.4l-0.6-0.5C12.2,27.3,5,20.4,5,13.1c0-6.1,4.9-11,11-11s11,4.9,11,11c0,5.5-3.8,11.6-10.4,16.8L16,30.4z M16,4.1 c-5,0-9,4-9,9c0,4.4,3.4,9.8,9,14.7c5.7-4.7,9-10,9-14.7C25,8.1,21,4.1,16,4.1z M15.9,17c-2.3,0-4.1-1.8-4.1-4.1s1.8-4.1,4.1-4.1 c2.3,0,4.1,1.8,4.1,4.1C20,15.2,18.2,17,15.9,17z M15.9,10.8c-1.1,0-2.1,1-2.1,2.1s1,2.1,2.1,2.1s2.1-1,2.1-2.1 C18,11.7,17.1,10.8,15.9,10.8z"/>
    </symbol></svg>