<svg version="1.1" id="Слой_1" xmlns="http://www.w3.org/2000/svg" x="0" y="0" viewBox="0 0 595.3 595.3" xml:space="preserve"><path d="M438.4,574.9c-3.3,0-6-2.7-6-6v-44.2H321.9v44.2c0,3.3-2.7,6-6,6s-6-2.7-6-6v-50.2c0-3.3,2.7-6,6-6h122.5c3.3,0,6,2.7,6,6 v50.2C444.4,572.2,441.7,574.9,438.4,574.9z M282.6,574.9c-3.3,0-6-2.7-6-6v-44.2H166.1v44.2c0,3.3-2.7,6-6,6c-3.3,0-6-2.7-6-6 v-50.2c0-3.3,2.7-6,6-6h122.5c3.3,0,6,2.7,6,6v50.2C288.6,572.2,286,574.9,282.6,574.9z M434.3,508.5c-3.3,0-6-2.7-6-6V493h-86.4 v9.6c0,3.3-2.7,6-6,6s-6-2.7-6-6V487c0-3.3,2.7-6,6-6h98.4c3.3,0,6,2.7,6,6v15.6C440.3,505.8,437.7,508.5,434.3,508.5z M262.6,508.5c-3.3,0-6-2.7-6-6V493h-86.4v9.6c0,3.3-2.7,6-6,6c-3.3,0-6-2.7-6-6V487c0-3.3,2.7-6,6-6h98.4c3.3,0,6,2.7,6,6v15.6 C268.6,505.8,266,508.5,262.6,508.5z M430.6,477.9c-1.2,0-2.5-0.4-3.5-1.2c-2.7-2-3.3-5.7-1.3-8.4l6.5-8.9c0.6-0.8,1.4-1.5,2.3-1.9 l91.9-43.3c9.1-4.7,16-12.6,19.3-22.3l28.4-82.7c0.7-27.6,1.6-71.6,1-78.4c-0.6-0.8-2.7-2.6-5.8-3.2c-4.1-0.8-8.5,0.5-13.1,4.1 c-9.2,7.2-12.8,39.3-13,57.8c0,0.9-0.2,1.8-0.6,2.7l-15.6,30.9c-1.5,3-5.1,4.1-8.1,2.6c-3-1.5-4.1-5.1-2.6-8.1l15-29.7 c0.2-9.7,1.9-53.4,17.6-65.7c10.9-8.6,20.5-7.3,25.3-5.8c6,1.9,11.2,6.4,12.5,10.8c0.4,1.3,1.5,5.1-0.5,83.2c0,0.6-0.1,1.2-0.3,1.8 l-28.7,83.5c-4.4,12.7-13.3,23-25.3,29.1c-0.1,0-0.1,0.1-0.2,0.1l-90.6,42.7l-5.6,7.7C434.3,477,432.5,477.9,430.6,477.9z M167.9,477.9c-1.8,0-3.7-0.9-4.8-2.5l-5.6-7.7l-90.6-42.7c-0.1,0-0.1-0.1-0.2-0.1c-12-6.1-20.9-16.4-25.3-29.1l-28.7-83.5 c-0.2-0.6-0.3-1.2-0.3-1.8c-2.1-78-0.9-81.9-0.5-83.2c1.3-4.5,6.5-8.9,12.5-10.8c4.8-1.5,14.4-2.8,25.3,5.8 c15.6,12.3,17.4,56,17.6,65.7l15,29.7c1.5,3,0.3,6.6-2.6,8.1c-3,1.5-6.6,0.3-8.1-2.6l-15.6-30.9c-0.4-0.8-0.6-1.7-0.6-2.7 c-0.2-18.5-3.9-50.6-13-57.8c-4.5-3.6-8.9-4.9-13.1-4.1c-3.1,0.6-5.1,2.4-5.8,3.2c-0.6,6.8,0.2,50.8,1,78.4L52.6,392 c3.3,9.7,10.2,17.6,19.3,22.3l91.9,43.3c0.9,0.4,1.7,1.1,2.3,1.9l6.5,8.9c2,2.7,1.4,6.4-1.3,8.4 C170.3,477.5,169.1,477.9,167.9,477.9z M23.1,231.1L23.1,231.1L23.1,231.1z M349,476c-3.3,0-6-2.7-6-6c0-20.9,9-42.7,9.4-43.6 c0-0.1,0.1-0.2,0.1-0.2c18.4-39.3,41.7-54.6,58-60.5c13-4.7,23.8-4.4,29.1-3.8l26.5-26.5c21.7-21.7,47.8-11.9,58.6-3.7 c1.4,1,2.2,2.6,2.4,4.4s-0.5,3.4-1.7,4.6l-55.6,55.6c-2.3,2.3-6.1,2.3-8.5,0c-2.3-2.3-2.3-6.1,0-8.5l50.1-50.1 c-8.2-3.8-23.1-7.5-36.8,6.1l-28.6,28.6c-1.5,1.5-3.6,2.1-5.6,1.6c-0.1,0-11.5-2.5-26.4,3.1c-20,7.5-37.4,26.2-50.4,53.9 c-0.6,1.6-8.4,21.1-8.4,38.9C355,473.4,352.3,476,349,476z M249.6,476c-3.3,0-6-2.7-6-6c0-17.8-7.8-37.3-8.4-38.9 c-31.5-67.1-76.4-57.1-76.9-57c-2,0.5-4.2-0.1-5.6-1.6L124,343.9c-13.6-13.6-28.6-9.9-36.8-6.1l50.1,50.1c2.3,2.3,2.3,6.1,0,8.5 c-2.3,2.3-6.1,2.3-8.5,0l-55.6-55.6c-1.2-1.2-1.9-2.9-1.7-4.6s1-3.3,2.4-4.4c10.8-8.2,36.9-18,58.6,3.7l26.5,26.5 c5.3-0.6,16.1-0.9,29.1,3.8c16.3,5.9,39.6,21.2,58,60.5c0,0.1,0.1,0.1,0.1,0.2c0.4,0.9,9.4,22.7,9.4,43.6 C255.6,473.4,252.9,476,249.6,476z M300,377.5c-92.8,0-168.2-75.5-168.2-168.2c0-92.8,75.5-168.2,168.2-168.2 c92.8,0,168.2,75.5,168.2,168.2C468.3,302,392.8,377.5,300,377.5z M300,53.1c-86.1,0-156.2,70.1-156.2,156.2 c0,86.1,70.1,156.2,156.2,156.2c86.1,0,156.2-70.1,156.2-156.2C456.3,123.1,386.2,53.1,300,53.1z M300,343.9 c-74.2,0-134.6-60.4-134.6-134.6S225.8,74.6,300,74.6S434.7,135,434.7,209.3S374.3,343.9,300,343.9z M300,86.6 c-67.6,0-122.6,55-122.6,122.6s55,122.6,122.6,122.6c67.6,0,122.6-55,122.6-122.6S367.7,86.6,300,86.6z M259.7,291.8 c-3.3,0-6-2.7-6-6V262h-19.4c-3.3,0-6-2.7-6-6c0-3.3,2.7-6,6-6h19.4V149.3c0-7,5.7-12.6,12.6-12.6h52.9c28.5,0,51.7,23.2,51.7,51.7 v0c0,28.5-23.2,51.7-51.7,51.7h-53.6v9.8h46c3.3,0,6,2.7,6,6c0,3.3-2.7,6-6,6h-46v23.8C265.7,289.1,263,291.8,259.7,291.8z M265.7,228.1h53.6c21.9,0,39.7-17.8,39.7-39.7s-17.8-39.7-39.7-39.7h-52.9c-0.3,0-0.6,0.3-0.6,0.6V228.1z"/></svg>