<svg version="1.1" id="Слой_1" xmlns="http://www.w3.org/2000/svg" x="0" y="0" viewBox="0 0 595.3 595.3" xml:space="preserve"><path d="M329.6,573.2c-63.2,0-122.6-24.6-167.2-69.3c-44.7-44.7-69.3-104.1-69.3-167.2c0-63.2,24.6-122.6,69.3-167.2 c36.4-36.4,82.6-59.5,132.6-66.8c-10.9-10-18-24.2-18-37.7c0-28.4,23.1-51.5,51.5-51.5s51.5,23.1,51.5,51.5 c0,14.3-7.7,27.9-17.6,37.4c44.9,6.2,86.8,25,121.5,54.8l8.4-9.7l-14.8-13.2c-3.5-3.2-5.6-7.5-5.9-12.2c-0.3-4.7,1.3-9.3,4.5-12.8 l3.7-4.1c6.5-7.3,17.8-7.9,25.1-1.4l35,31.3c3.5,3.2,5.6,7.5,5.9,12.2c0.3,4.7-1.3,9.3-4.5,12.8l-3.7,4.1v0 c-6.5,7.3-17.8,7.9-25.1,1.4L501,155.6l-8.5,9.7c1.4,1.4,2.8,2.7,4.2,4.1c44.7,44.7,69.3,104.1,69.3,167.2 c0,63.2-24.6,122.6-69.3,167.2C452.1,548.6,392.7,573.2,329.6,573.2z M329.6,112.2c-123.8,0-224.5,100.7-224.5,224.5 c0,123.8,100.7,224.5,224.5,224.5c123.8,0,224.5-100.7,224.5-224.5C554.1,212.9,453.4,112.2,329.6,112.2z M532.9,160.3L532.9,160.3 L532.9,160.3z M504.5,142.6l15.8,14.2c2.4,2.1,6,1.9,8.1-0.4l3.7-4.1c1-1.1,1.5-2.6,1.5-4.1c-0.1-1.5-0.8-2.9-1.9-4l-35-31.3 c-2.4-2.1-6-1.9-8.1,0.4l-3.7,4.1c-1,1.1-1.5,2.6-1.5,4.1c0.1,1.5,0.8,2.9,1.9,4L504.5,142.6C504.5,142.6,504.5,142.6,504.5,142.6z M317.9,66.2v34.3c7.4-0.4,14.9-0.4,22.3,0V66.2H317.9z M328.4,25.5c-21.8,0-39.5,17.7-39.5,39.5c0,11.2,7,23.6,17,31.3V60.2 c0-3.3,2.7-6,6-6h34.3c3.3,0,6,2.7,6,6v35.2c9.3-8.2,15.6-20,15.6-30.4C367.8,43.2,350.1,25.5,328.4,25.5z M174,549.5H36.3 c-3.3,0-6-2.7-6-6s2.7-6,6-6H174c3.3,0,6,2.7,6,6S177.4,549.5,174,549.5z M140.7,524.6H74.3c-3.3,0-6-2.7-6-6s2.7-6,6-6h66.5 c3.3,0,6,2.7,6,6S144,524.6,140.7,524.6z M329.6,513.6c-55.9,0-109.2-26.9-142.4-71.9c-0.9-1.3-1.3-2.9-1.1-4.5 c0.2-1.6,1.1-3,2.4-3.9l91.8-67.8c2.7-2,6.4-1.4,8.4,1.3c2,2.7,1.4,6.4-1.3,8.4l-86.9,64.1c31.1,39.1,78.9,62.2,129.1,62.2 c90.9,0,164.9-74,164.9-164.9c0-89.1-71-161.9-159.4-164.8v108.6c0,3.3-2.7,6-6,6s-6-2.7-6-6V165.8c0-3.3,2.7-6,6-6l0.5,0 c47,0,91.3,18.5,124.9,52.1c33.6,33.6,52.1,77.9,52.1,124.9S488,428,454.4,461.6C420.9,495.2,376.5,513.6,329.6,513.6z M336.7,488 c-3.2,0-5.8-2.5-6-5.7l-1.8-33.4c-0.2-3.3,2.4-6.1,5.7-6.3c3.3-0.2,6.1,2.4,6.3,5.7l1.8,33.4c0.2,3.3-2.4,6.1-5.7,6.3 C336.9,488,336.8,488,336.7,488z M263.1,472.4c-0.9,0-1.8-0.2-2.7-0.7c-3-1.5-4.1-5.1-2.6-8.1l15.2-29.9c1.5-3,5.1-4.1,8.1-2.6 c3,1.5,4.1,5.1,2.6,8.1l-15.2,29.9C267.4,471.2,265.2,472.4,263.1,472.4z M408.3,464.7c-2,0-3.9-1-5-2.7L385,433.9 c-1.8-2.8-1-6.5,1.8-8.3c2.8-1.8,6.5-1,8.3,1.8l18.3,28.1c1.8,2.8,1,6.5-1.8,8.3C410.6,464.4,409.5,464.7,408.3,464.7z M174.3,414.1c-2.3,0-4.4-1.3-5.5-3.5c-10.6-23-16.2-48.6-16.2-73.9c0-41.7,14.9-82.2,42.1-114.3s64.7-53.4,105.8-60.3 c3.3-0.5,6.4,1.7,6.9,4.9c0.5,3.3-1.7,6.4-4.9,6.9c-78.6,13.1-137.8,83-137.8,162.7c0,23.6,5.2,47.5,15.1,68.9c1.4,3,0.1,6.6-2.9,8 C176,413.9,175.1,414.1,174.3,414.1z M458.7,408.7c-0.9,0-1.8-0.2-2.7-0.7l-29.9-15.2c-3-1.5-4.1-5.1-2.6-8.1s5.1-4.1,8.1-2.6 l29.9,15.2c3,1.5,4.1,5.1,2.6,8.1C463,407.5,460.9,408.7,458.7,408.7z M329.6,368.9c-17.8,0-32.2-14.5-32.2-32.2 s14.5-32.2,32.2-32.2s32.2,14.5,32.2,32.2S347.3,368.9,329.6,368.9z M329.6,316.5c-11.2,0-20.2,9.1-20.2,20.2s9.1,20.2,20.2,20.2 s20.2-9.1,20.2-20.2S340.7,316.5,329.6,316.5z M183.8,350.4c-3.2,0-5.8-2.5-6-5.7c-0.2-3.3,2.4-6.1,5.7-6.3l33.4-1.8 c3.3-0.2,6.1,2.4,6.3,5.7c0.2,3.3-2.4,6.1-5.7,6.3l-33.4,1.8C184,350.4,183.9,350.4,183.8,350.4z M440.9,336.8 c-3.2,0-5.8-2.5-6-5.7c-0.2-3.3,2.4-6.1,5.7-6.3L474,323c3.3-0.2,6.1,2.4,6.3,5.7c0.2,3.3-2.4,6.1-5.7,6.3l-33.4,1.8 C441.1,336.8,441,336.8,440.9,336.8z M229.2,291.9c-0.9,0-1.8-0.2-2.7-0.7l-29.9-15.2c-3-1.5-4.1-5.1-2.6-8.1 c1.5-3,5.1-4.1,8.1-2.6l29.9,15.2c3,1.5,4.1,5.1,2.6,8.1C233.5,290.7,231.4,291.9,229.2,291.9z M422.9,281.7c-2,0-3.9-1-5-2.7 c-1.8-2.8-1-6.5,1.8-8.3l28.1-18.3c2.8-1.8,6.5-1,8.3,1.8c1.8,2.8,1,6.5-1.8,8.3l-28.1,18.3C425.2,281.4,424.1,281.7,422.9,281.7z M268,248.8c-2,0-3.9-1-5-2.7L244.7,218c-1.8-2.8-1-6.5,1.8-8.3c2.8-1.8,6.5-1,8.3,1.8l18.3,28.1c1.8,2.8,1,6.5-1.8,8.3 C270.3,248.5,269.1,248.8,268,248.8z M379.8,242.9c-0.9,0-1.8-0.2-2.7-0.7c-3-1.5-4.1-5.1-2.6-8.1l15.2-29.9c1.5-3,5.1-4.1,8.1-2.6 c3,1.5,4.1,5.1,2.6,8.1l-15.2,29.9C384.1,241.7,382,242.9,379.8,242.9z M174,140.8h-66.6c-3.3,0-6-2.7-6-6c0-3.3,2.7-6,6-6H174 c3.3,0,6,2.7,6,6C180,138.1,177.4,140.8,174,140.8z M214.3,114.4H71.1c-3.3,0-6-2.7-6-6c0-3.3,2.7-6,6-6h143.2c3.3,0,6,2.7,6,6 C220.3,111.7,217.6,114.4,214.3,114.4z M254.9,89.2H31.4c-3.3,0-6-2.7-6-6s2.7-6,6-6h223.4c3.3,0,6,2.7,6,6S258.2,89.2,254.9,89.2z"/></svg>