<svg version="1.1" id="Слой_1" xmlns="http://www.w3.org/2000/svg" x="0" y="0" viewBox="0 0 595.3 595.3" xml:space="preserve"><path d="M297.9,581.7c-0.1,0-0.2,0-0.2,0c-2,0.1-4-0.8-5.2-2.6l-19.6-28.5c-0.8-1.2-1.2-2.6-1-4.1l4.6-41.4 c-6.7,5.9-12.7,12.6-12.8,17.1c0,0.9,0.2,2,2,3.4c1.9,1.4,2.8,3.8,2.3,6.1c-0.5,2.3-2.4,4.1-4.7,4.6c-2.8,0.6-4.7,2.2-5.6,5.1 c-1.8,5.6,0.3,13.7,5,18.9c1.6,1.8,2,4.3,1,6.5c-1,2.2-3.2,3.5-5.6,3.5c-16.3-0.3-37.9-9.8-45.9-26.6c-3.9-8.1-6-21,5.8-36.4 c20.3-26.4,53.6-44.8,63.9-50l0.1-0.8c-25.6-25.6-30-41.6-29.8-50c-0.4-0.2-0.8-0.4-1.2-0.5c-10.2,13.3-1.9,28.8,5.6,39.6l0.1,0.1 c1.9,2.7,1.2,6.4-1.5,8.3c-7,4.9-14.9,6.4-21.4,5.8l-4.2,16.9c-0.5,2-2,3.7-4,4.3l-82.2,25.8l11.5,21.3c1.6,2.9,0.5,6.6-2.4,8.1 c-2.9,1.6-6.6,0.5-8.1-2.4l-14.6-27.1l-16.1-18.1c-1.3-1.5-1.8-3.4-1.4-5.1c-0.1-0.4-0.1-0.8-0.1-1.2c0-1.8,0.8-3.4,2.1-4.5 l-26.8-49.9L61.9,426c-1.8-0.1-3.5-1.1-4.5-2.5l-14.5-20.7c-1.9-2.7-1.2-6.5,1.5-8.4c2.7-1.9,6.5-1.2,8.4,1.5l12.9,18.4l21.6,1.5 l5.6-13.5L88,382.8c-0.8-3.2,1.2-6.5,4.4-7.3c3.2-0.8,6.5,1.2,7.3,4.4l5.2,21.2c0.3,1.2,0.2,2.5-0.3,3.7l-6.9,16.7l29.3,54.5h4.7 l39.8-13.8c3.1-1.1,6.5,0.6,7.6,3.7c1.1,3.1-0.6,6.5-3.7,7.6l-40.8,14.1c-0.4,0.1-0.8,0.2-1.3,0.3l4.2,7.8l81.1-25.5l3.1-12.5 c-4.8,2.9-10.3,5.1-13.3,6.2c-1.8,0.7-3.8,0.4-5.4-0.6c-2-1.3-7.7-5.3-11-10.3c-9.9-0.6-21.5-2.8-26.9-9.7c-2-2.5-1.7-6.1,0.7-8.2 c0.1-0.1,11.9-11.3,15.7-30.4c3.8-18.8,33.9-26.3,47.5-28.7c-0.3-2-0.5-4-0.5-6.1V355h-25.3c-7.8,17.7-32.4,30.7-41.8,32.3 c-2.3,0.4-4.6-0.6-5.9-2.4c-6-8.4-10.2-23.3-11.2-38.1c-16.1,9.7-39.7,12-43,12.3c-1.9,0.2-3.8-0.6-5.1-2.1 c-1.3-1.5-1.7-3.5-1.3-5.3c0.2-0.8,3.9-15.4,12-28.6c-19,2.5-41.9,2.6-43.2,2.6c-2.2,0-4.3-1.2-5.3-3.2c-1.1-2-0.9-4.3,0.3-6.2 c0.4-0.7,9.1-13.4,27.2-27.2c-43.9-7.2-62.2-35.3-63-36.7c-1.2-1.8-1.2-4.1-0.2-6s3-3.1,5.2-3.2c0.2,0,12.4-0.3,35.4-0.2 c-33.7-19.5-49.2-51.7-50-53.4c-1-2.1-0.7-4.6,0.8-6.4c1.5-1.8,3.9-2.6,6.1-2c0.2,0.1,16.1,4.2,39.4,11.9 c-31.4-30.3-30.2-57.6-30.1-59c0.1-2,1.3-3.8,3-4.8s3.9-1,5.7-0.1c0.7,0.4,13.6,7.1,33.2,19.6c-10.7-30.3,2.4-54.5,3.1-55.8 c1-1.8,2.8-2.9,4.9-3.1c2-0.1,4,0.8,5.2,2.4l48.2,65c2,2.7,1.4,6.4-1.2,8.4c-2.7,2-6.4,1.4-8.4-1.2l-41.7-56.3 c-3.2,11.6-5.2,32.6,11.2,55.1c1.7,2.4,1.5,5.6-0.6,7.7c-2,2.1-5.3,2.4-7.7,0.7c-17.4-12-32.1-20.9-41.3-26.2 c0.9,3.4,2.4,7.6,4.7,12.2c6.2,12.6,20,31.3,50.3,49.3c2.7,1.6,3.7,5,2.3,7.8c-1.4,2.8-4.7,4.1-7.6,3 c-25.1-9.7-47.4-16.8-61.3-20.8c10.4,15,31.8,39.1,65.2,46.4c3,0.7,5,3.5,4.7,6.5c-0.3,3-2.9,5.3-6,5.3c0,0,0,0-0.1,0 c-25-0.3-43.4-0.3-54.6-0.2c9.9,9.4,29.7,22.7,62.3,23.6c2.7,0.1,5,1.9,5.6,4.5c0.7,2.6-0.4,5.3-2.7,6.7 c-13.6,8.2-23.3,17-29.4,23.5c13.2-0.5,33-1.8,43.4-5.1c2.7-0.8,5.6,0.3,7,2.8c1.4,2.5,0.9,5.6-1.3,7.4 c-8.2,7.2-13.6,19.2-16.6,27.4c12.2-2.2,29.8-7,36-15.7c1.6-2.2,4.4-3.1,6.9-2.2c2.5,0.9,4.1,3.4,3.9,6.1c-1,13.6,2,30.4,6.9,40.2 c9.7-3.7,27-15.4,30-26.9c0.7-2.6,3.1-4.5,5.8-4.5h29.5v-25l-11.9,0.2l-18,8c-2.2,1-4.8,0.6-6.5-1.1L175,309.4l-20.3-2.3 c-2.9-0.3-5.1-2.6-5.3-5.5c-0.1-0.8-0.4-7.3,2.7-21.8c-18-11.3-14.5-39.3-14.3-40.5c0.3-1.9,1.1-3.8,2.8-4.7c1.7-0.9,3.3-1,5-0.2 c0.7,0.1,3.4,0.4,9.1-0.4c-11.7-19.7-8-47.7-7.9-49.1c0.3-2.2,1.8-4.1,3.9-4.8c2.1-0.8,4.5-0.3,6.1,1.2 c1.2,1.1,30.5,28.2,46.4,47.2c8.5,10.1,10.3,22,5,32.5c-2.9,5.8-7.8,10.4-12.8,12.6c0.4,1.9,1,3.3,2,4.2c1.8,1.8,5.1,2.7,10.1,2.7 c6.5,0,16.3-5.5,21.2-8.7v-7.6c0-2.3,0.7-4.4,2-6.1c-5.7-5.3-11.5-13.6-11.3-25.6c0-3,2.2-5.5,5.2-5.9c0.2,0,17.4-2.7,20.2-13.5 c1.6-5.9-0.3-18.1-22.1-39.8H172c-3,0-5.5-2.2-5.9-5.2c-0.1-0.7-2.1-16.2,7.2-26.3c4.5-4.9,10.6-7.6,18.2-8.2 c-6.7-9.9-13.8-27-8.7-37.9c2.7-5.9,9.4-11.7,25.7-8.8V74.5c0-3.3,2.7-6,6-6c3.3,0,6,2.7,6,6v12.7c11.1-1.6,19.1,0.6,23.7,6.5 c6.8,8.8,3.3,22.5-0.4,31.7c6.7-0.1,14.3-0.2,23-0.2c2.4,0,4.6,1.5,5.5,3.7c0.9,2.2,0.4,4.8-1.3,6.5c-3.3,3.3-6.3,6.9-8.6,10 c3.7,1.1,7.8,3.1,12.2,6.6c10.5,8.5,18.2,23,23,43.3c4.9-20.3,12.6-34.8,23-43.3c4.3-3.5,8.5-5.5,12.2-6.6c-2.3-3.1-5.2-6.6-8.6-10 c-1.7-1.7-2.2-4.3-1.3-6.5s3.1-3.7,5.5-3.7c8.7,0,16.3,0.1,23,0.2c-3.7-9.3-7.1-23-0.4-31.7c4.6-5.9,12.5-8.1,23.7-6.5V74.5 c0-3.3,2.7-6,6-6s6,2.7,6,6v12.3c16.3-2.9,23,3,25.7,8.8c5.1,10.9-2,28-8.7,37.9c7.6,0.5,13.7,3.3,18.2,8.2 c9.3,10.1,7.3,25.7,7.2,26.3c-0.4,3-2.9,5.2-5.9,5.2h-50.7c-21.8,21.8-23.7,33.9-22.1,39.8c2.8,10.8,20.1,13.5,20.2,13.5 c2.9,0.4,5.1,2.9,5.2,5.9c0.2,11.9-5.4,20.1-11.1,25.4c1.4,1.7,2.2,3.9,2.2,6.3v7.9c5.2,3.3,14.5,8.3,20.8,8.3 c5,0,8.3-0.9,10.1-2.7c0.9-1,1.6-2.4,2-4.2c-5-2.1-9.9-6.7-12.8-12.6c-5.3-10.5-3.5-22.4,5-32.5c15.9-19,45.1-46,46.4-47.2 c1.6-1.5,4-2,6.1-1.2c2.1,0.8,3.6,2.6,3.9,4.8c0.2,1.4,3.9,29.4-7.9,49.1c5.7,0.8,8.4,0.5,9.1,0.4c1.7-0.8,3.3-0.6,5,0.2 c1.7,0.9,2.6,2.7,2.8,4.7c0.2,1.3,3.7,29.2-14.3,40.5c3.1,14.5,2.8,21,2.7,21.8c-0.2,2.9-2.4,5.2-5.3,5.5l-20.3,2.3L403,325.2 c-1.8,1.6-4.3,2-6.5,1.1l-18-8l-11.4-0.2v25h29.1c2.7,0,5.1,1.8,5.8,4.5c3,11.5,20.3,23.1,30,26.9c4.9-9.7,7.9-26.6,6.9-40.2 c-0.2-2.7,1.4-5.2,3.9-6.1c2.5-0.9,5.4,0,6.9,2.2c6.2,8.7,23.7,13.5,36,15.7c-3-8.2-8.5-20.2-16.6-27.4c-2.1-1.9-2.7-5-1.3-7.4 c1.4-2.5,4.3-3.6,7-2.8c10.3,3.2,30.2,4.6,43.4,5.1c-6.2-6.5-15.9-15.3-29.4-23.5c-2.3-1.4-3.4-4.1-2.7-6.7s3-4.4,5.6-4.5 c32.6-0.9,52.4-14.3,62.3-23.6c-11.2-0.1-29.6-0.1-54.6,0.2c0,0,0,0-0.1,0c-3,0-5.6-2.3-6-5.3c-0.3-3.1,1.7-5.9,4.7-6.5 c33.5-7.4,54.9-31.4,65.3-46.4c-13.8,4.1-36.2,11.1-61.3,20.8c-2.9,1.1-6.2-0.2-7.6-3s-0.3-6.2,2.3-7.8 c39.4-23.3,51.4-47.9,55.1-61.5c-9.2,5.3-23.9,14.2-41.3,26.3c-2.4,1.7-5.7,1.4-7.7-0.7c-2-2.1-2.3-5.4-0.6-7.7 c16.2-22.3,14.3-43.4,11.2-55.1l-41.6,56.2c-2,2.7-5.7,3.2-8.4,1.2c-2.7-2-3.2-5.7-1.2-8.4l48.2-65c1.2-1.6,3.2-2.6,5.2-2.4 c2,0.1,3.9,1.3,4.9,3.1c0.7,1.2,13.8,25.4,3.1,55.8c19.6-12.5,32.5-19.2,33.2-19.6c1.8-0.9,3.9-0.9,5.7,0.1c1.8,1,2.9,2.8,3,4.8 c0.1,1.4,1.3,28.8-30.1,59c23.3-7.7,39.2-11.8,39.4-11.9c2.3-0.6,4.6,0.2,6.1,2c1.5,1.8,1.8,4.3,0.8,6.4 c-0.8,1.7-16.3,33.9-50,53.4c23.1,0,35.3,0.2,35.4,0.2c2.2,0,4.1,1.3,5.2,3.2c1,1.9,0.9,4.2-0.2,6c-0.8,1.3-19.2,29.5-63,36.7 c18.1,13.8,26.8,26.6,27.2,27.2c1.2,1.8,1.3,4.2,0.3,6.2s-3.1,3.2-5.3,3.2c-1.3,0-24.2-0.2-43.2-2.6c8.1,13.3,11.8,27.8,12,28.6 c0.5,1.9,0,3.9-1.3,5.3c-1.3,1.5-3.2,2.2-5.1,2.1c-3.3-0.3-26.9-2.7-43-12.3c-1,14.8-5.2,29.7-11.2,38.1c-1.3,1.9-3.6,2.8-5.9,2.4 c-9.4-1.6-33.9-14.6-41.8-32.3h-24.8v15.2c0,2.1-0.2,4.2-0.5,6.2c13.9,2.5,43.4,10,47.1,28.6c3.8,19.1,15.6,30.3,15.7,30.4 c2.4,2.1,2.7,5.7,0.7,8.2c-5.4,6.8-17,9.1-26.9,9.6c-3.3,5-9,9-11,10.3c-1.6,1-3.6,1.3-5.4,0.6c-3-1.1-8.6-3.3-13.3-6.2l3.1,12.5 l82.2,25.8l8.1-9.1c-3-1-5.8-2.3-8.4-3.9l-2.8,1c-1.3,0.5-2.7,0.5-4,0l-30.4-10.6c-3.1-1.1-4.8-4.5-3.7-7.6 c1.1-3.1,4.5-4.8,7.6-3.7l19,6.6c-3.9-6.3-6.1-13.8-6.1-21.7c0-21.1,15.6-38.6,35.9-41.5v-6h-5.1c-3.3,0-6-2.7-6-6s2.7-6,6-6h5.1 v-6.3c0-3.3,2.7-6,6-6s6,2.7,6,6v6.3h5.7c3.3,0,6,2.7,6,6s-2.7,6-6,6h-5.7v6c20.3,2.9,35.9,20.4,35.9,41.5 c0,22.7-18.2,41.3-40.7,41.9l-16,17.9c-1.6,1.8-4,2.4-6.3,1.7l-89.1-28c-2-0.6-3.5-2.3-4-4.3l-4.2-16.9c-6.6,0.6-14.5-0.9-21.4-5.8 c-2.7-1.9-3.4-5.6-1.5-8.3l0.1-0.1c7.4-10.8,15.7-26.2,5.7-39.5c-0.4,0.2-0.9,0.4-1.3,0.6c0.2,8.4-4.4,24.4-29.8,49.8l0.1,0.8 c10.3,5.2,43.6,23.6,63.9,50c11.8,15.4,9.7,28.3,5.8,36.4c-8.1,16.8-29.7,26.2-45.9,26.6c-2.4,0.1-4.6-1.3-5.6-3.5 c-1-2.2-0.6-4.7,1-6.5c4.7-5.2,6.9-13.4,5-18.9c-0.9-2.8-2.8-4.5-5.6-5.1c-2.3-0.5-4.2-2.3-4.7-4.6c-0.5-2.3,0.4-4.7,2.3-6.1 c1.8-1.4,2-2.4,2-3.4c-0.1-4.5-6.1-11.2-12.8-17.1l4.6,41.4c0.2,1.4-0.2,2.9-1,4.1l-19.6,28.5C301.7,580.8,299.8,581.7,297.9,581.7 z M284,545.6l13.6,19.8l13.6-19.8l-8.8-78.9c-0.2,0.2-0.4,0.3-0.5,0.5c-1.2,1.1-2.7,1.6-4.2,1.5c-1.5,0-3-0.4-4.2-1.5 c-0.2-0.2-0.4-0.3-0.5-0.5l-2.9,25.7c0,0,0,0.1,0,0.1L284,545.6z M342.5,528.1c3,2.3,5.2,5.5,6.5,9.5c1.9,5.7,1.6,12.5-0.6,18.8 c9.9-3,19.8-9.3,23.8-17.8c3.5-7.4,2-15.4-4.5-23.9c-15.2-19.8-39.3-35.2-52.7-42.8l1.9,16.6c7.6,5.3,26.2,19.6,26.7,33.3 C343.7,523.6,343.4,525.8,342.5,528.1z M280.2,471.8c-13.4,7.6-37.5,22.9-52.7,42.8c-6.5,8.5-8,16.6-4.5,23.9 c4.1,8.5,13.9,14.8,23.8,17.8c-2.1-6.3-2.4-13.1-0.6-18.8c1.3-4,3.5-7.2,6.5-9.5c-0.9-2.3-1.2-4.5-1.1-6.3 c0.4-13.8,19.1-28.1,26.7-33.3L280.2,471.8z M479.9,417.4c-16.5,0-29.9,13.4-29.9,29.9c0,16.5,13.4,29.9,29.9,29.9 c16.5,0,29.9-13.4,29.9-29.9C509.8,430.8,496.4,417.4,479.9,417.4z M292.6,450.1c1.6,1.6,3.3,3.1,5.1,4.8c1.8-1.6,3.5-3.2,5.1-4.8 c0.1-0.1,0.2-0.2,0.3-0.3c21.5-21,26.7-33.9,27.8-40.1c-1.1,0.1-2.1,0.1-3.2,0.1h-9.3c-2.6,0-5.1,1.1-6.7,3.1 c-4.1,4.8-7,8.9-8.2,11.5c-1,2.1-3.1,3.5-5.5,3.5c0,0-0.1,0-0.1,0c-2.4,0-4.5-1.5-5.4-3.6c-1.1-2.6-3.7-6.5-7.3-11 c-1.8-2.3-4.5-3.6-7.4-3.6h-9.4c-1.2,0-2.5-0.1-3.7-0.2c1.1,6.2,6.2,19.1,27.8,40.1C292.4,449.8,292.5,450,292.6,450.1z M371,442.2 c2,0,4,1,5.1,2.8c1,1.5,6.3,4.4,11.9,6.8c2.9-2.3,5.3-4.8,5.7-6.1c0.7-2.5,3-4.2,5.6-4.3c7.9-0.2,13.5-1.3,17-2.6 c-4.7-6-11.5-16.7-14.5-31.4c-2.1-10.3-24.9-17-39-19.4c-2.1,4.3-5,8.1-8.5,11.3c6.3,8.6,8.2,18.9,5.5,30.1 c-1.7,6.8-4.8,12.9-7.6,17.4c6,2.1,11.7,0.8,13.1-0.4c0.7-2.1,2.5-3.7,4.7-4.1C370.3,442.3,370.7,442.2,371,442.2z M178.9,438.9 c3.5,1.3,9.1,2.4,17,2.6c2.6,0.1,4.9,1.8,5.6,4.3c0.4,1.3,3,3.9,5.7,6.1c5.6-2.4,10.9-5.3,12-6.8c1.3-2.1,3.7-3.1,6.1-2.7 c2.2,0.4,4,2,4.7,4.1c1.4,1.2,7,2.4,13.1,0.4c-2.7-4.5-5.9-10.5-7.6-17.4c-2.8-11.3-0.8-21.7,5.7-30.4c-3.4-3.2-6.2-6.9-8.3-11.1 c-14.1,2.4-37.4,9.1-39.5,19.5C190.4,422.2,183.6,432.9,178.9,438.9z M240.7,265.8v104.5c0,15.2,12.3,27.5,27.5,27.5h9.4 c6.5,0,12.7,2.9,16.8,8c1.3,1.7,2.5,3.2,3.6,4.7c1.3-1.7,2.7-3.5,4.3-5.4c4-4.7,9.8-7.4,15.9-7.4h9.3c15.2,0,27.5-12.3,27.5-27.5 v-95c0,0,0-0.1,0-0.1v-9.4h-3.6c-0.1,0-0.2,0-0.3,0H244c-0.1,0-0.1,0-0.2,0H240.7z M161.6,295.8l16.7,1.9c1.3,0.1,2.5,0.7,3.4,1.6 l15.7,14.5l15.6-6.9c0.7-0.3,1.5-0.5,2.4-0.5l13.3-0.2v-20.4c-6,3.3-14.1,6.7-21.2,6.7c-8.4,0-14.5-2-18.6-6.3 c-4-4-5.9-9.9-5.8-17.5c0-1.6,0.7-3.2,1.9-4.3c1.2-1.1,2.8-1.7,4.4-1.6c1.2,0,5.5-2.1,8.1-7.3c2.2-4.3,3.4-11.2-3.5-19.4 c-9.9-11.9-25.8-27.5-35.8-37.1c0.2,10.8,2.3,25.9,11.4,34.6c1.6,1.5,2.2,3.8,1.6,5.9c-0.6,2.1-2.3,3.8-4.4,4.3 c-7.9,1.8-13.5,2.5-17.4,2.6c0,7.6,1.7,20.6,11.8,24.5c2.8,1.1,4.3,4.1,3.6,7C162.9,286.2,162,292.1,161.6,295.8z M367.1,306.1 l12.8,0.2c0.8,0,1.6,0.2,2.4,0.5l15.6,6.9l15.7-14.5c0.9-0.9,2.1-1.4,3.4-1.6l16.7-1.9c-0.4-3.7-1.2-9.5-3.2-17.9 c-0.7-2.9,0.9-5.9,3.6-7c10.1-4,11.7-16.9,11.8-24.5c-3.9-0.1-9.5-0.8-17.4-2.6c-2.1-0.5-3.9-2.1-4.4-4.3c-0.6-2.1,0-4.4,1.6-5.9 c9.1-8.7,11.2-23.9,11.4-34.6c-10.1,9.7-25.9,25.3-35.8,37.1c-6.8,8.2-5.7,15.1-3.5,19.4c2.6,5.1,6.8,7.3,8,7.3c0,0,0,0,0.1,0 c1.6-0.1,3.2,0.5,4.4,1.6c1.2,1.1,1.9,2.7,1.9,4.3c0.1,7.5-1.8,13.4-5.8,17.5c-4.1,4.2-10.2,6.3-18.6,6.3c-6.9,0-14.8-3.3-20.8-6.5 V306.1z M303.8,253.8H350c3-1.5,11.5-6.7,13.6-16.5c-9.4-2.6-21.4-8.9-24.6-21.1c-5-18.9,12.2-43.5,52.5-75.1 c-2-0.7-5.7-1.5-12-2.2c-4.9-0.5-10.9-0.9-18.5-1.1c-0.1,0-0.1,0-0.2,0c-5.5-0.2-11.8-0.3-19-0.4c4.2,5.5,6.8,9.8,7,10 c1.2,2.1,1.2,4.7-0.2,6.7c-1.4,1.9-3.8,2.8-6.1,2.3c-0.7-0.1-7.1-0.8-14.5,5.4c-10.3,8.7-22.3,30.2-24.2,83.6 C303.7,248.1,303.8,250.9,303.8,253.8z M245.3,253.8h46.1c0-2.9,0.1-5.7,0.2-8.5c-1.8-53.4-13.9-75-24.2-83.6 c-7.4-6.2-13.8-5.5-14.5-5.4c-2.3,0.6-4.7-0.4-6.1-2.3c-1.4-1.9-1.5-4.6-0.2-6.7c0.2-0.3,2.7-4.6,7-10c-7.2,0.1-13.5,0.2-19,0.4 c-0.1,0-0.1,0-0.2,0c-7.5,0.3-13.6,0.6-18.5,1.1c-6.3,0.7-10,1.5-12,2.2c40.3,31.6,57.5,56.2,52.5,75.1 c-3.2,12.2-15.2,18.6-24.6,21.1C233.8,247.1,242.4,252.3,245.3,253.8z M449.5,234.4L449.5,234.4L449.5,234.4z M145.8,234.4 L145.8,234.4L145.8,234.4z M449.8,234.3L449.8,234.3L449.8,234.3z M145.4,234.3L145.4,234.3L145.4,234.3z M385.7,161.2h31.8 c-0.3-3.6-1.2-8.2-4.2-11.5c-2-2.2-4.9-3.6-8.6-4.1c-0.3,0.4-0.7,0.8-1.2,1.2C396.7,152,390.8,156.8,385.7,161.2z M177.9,161.2 h31.8c-5.2-4.5-11-9.2-17.7-14.3c-0.4-0.3-0.8-0.7-1.2-1.2c-3.7,0.5-6.6,1.9-8.6,4.1C179.1,153,178.1,157.7,177.9,161.2z M364.8,125.8c13.5,0.6,22,1.6,27.7,3c4.5-5.8,12.3-21.8,9.1-28.3c-1.6-3.2-8.4-3.4-18.3-0.7c-0.8,0.4-1.7,0.6-2.6,0.5 c-0.5,0-1.1,0-1.6-0.2c-9.5-2.4-16.2-2.1-18.4,0.7C357.3,105.4,360.8,117.4,364.8,125.8z M200.4,98c-3.5,0-5.9,0.9-6.8,2.6 c-3.3,6.5,4.5,22.5,9.1,28.3c5.7-1.4,14.3-2.4,27.7-3c4-8.4,7.5-20.4,4.1-24.8c-2.2-2.9-8.9-3.1-18.4-0.7c-0.5,0.1-1.1,0.2-1.6,0.2 c-0.9,0-1.8-0.2-2.6-0.5C207.4,98.6,203.5,98,200.4,98z M324.4,109.5h-52.8c-2.2,0-4.2-1.2-5.2-3.1c-2.3-4-21.7-40-7.9-60.4 c6.1-9.1,17.4-13.2,33.5-12.3V19.6c0-3.3,2.7-6,6-6s6,2.7,6,6v14.2c16.2-0.8,27.4,3.3,33.6,12.5c13.7,20.4-5.7,56.2-7.9,60.2 C328.5,108.4,326.5,109.5,324.4,109.5z M275.2,97.5h45.6c5.5-11,14.2-33.6,6.8-44.6c-4.2-6.3-13.9-8.5-28.8-6.6 c-0.3,0-0.5,0.1-0.8,0.1c0,0,0,0,0,0c0,0,0,0,0,0c0,0,0,0,0,0h0c0,0,0,0,0,0c0,0,0,0,0,0c0,0,0,0,0,0c0,0,0,0,0,0 c-0.3,0-0.5,0-0.8-0.1c-14.9-1.9-24.5,0.3-28.7,6.5C260.9,63.8,269.6,86.5,275.2,97.5z"/></svg>