<svg version="1.1" id="Слой_1" xmlns="http://www.w3.org/2000/svg" x="0" y="0" viewBox="0 0 595.3 595.3" xml:space="preserve"><path d="M330.1,576.2c-8.3,0-16.6-1.3-24.6-3.9l-144.9-47.2h-9.9v5.9c0,3.3-2.7,6-6,6h-25.1c-3.3,0-6-2.7-6-6s2.7-6,6-6h19.1V383.8 c0-0.1,0-0.2,0-0.3V378h-19.1c-3.3,0-6-2.7-6-6s2.7-6,6-6h25.1c3.3,0,6,2.7,6,6v3.2c60.2-19.9,100.7-11.3,124.5-0.2 c21.3,10,33,23.4,37.4,29.3h62.2c27.1,0,43.3,12.7,52.7,25.1l34.9-7.5c4-3.8,16.8-15.8,32.4-27.6c25.7-19.4,46-28.4,60.1-26.7 c20.5,2.5,29.3,13.8,32.7,20.3c4.7,9,4.5,18.5,1.9,23.2c-3.5,6.4-67.5,67.5-94.9,93.4c-0.4,0.4-0.9,0.8-1.5,1l-128.2,62.6 C353.8,573.5,342,576.2,330.1,576.2z M150.6,513.1h10.8c0.6,0,1.3,0.1,1.9,0.3l145.8,47.5c16.7,5.4,34.6,4.2,50.4-3.5l127.4-62.2 c33.6-31.9,87.4-83.6,92-89.9c0.4-1.2,0.9-6.5-2.4-12.4c-2.9-5.2-9.2-11.7-23.1-13.4c-22.5-2.7-68.2,36.8-83.9,52.2 c-0.8,0.8-1.8,1.3-2.9,1.6l-32.3,6.9c6.3,12.3,7.9,23.1,8,23.7c0.2,1.7-0.3,3.5-1.4,4.8s-2.8,2.1-4.5,2.1H309.3c-3.3,0-6-2.7-6-6 s2.7-6,6-6h119.4c-3.8-13.5-16.5-42.4-54.1-42.4h-65.4c-2.1,0-4-1.1-5.1-2.9c-0.1-0.1-10.6-16.7-34.9-27.9 c-31.5-14.5-72.5-13.7-118.7,2.3V513.1z M93.3,575.8H12.3c-3.3,0-6-2.7-6-6s2.7-6,6-6h75.1V378H12.3c-3.3,0-6-2.7-6-6s2.7-6,6-6 h81.1c3.3,0,6,2.7,6,6v197.9C99.3,573.1,96.7,575.8,93.3,575.8z M420.6,410.5c-2.4,0-4.6-1.4-5.6-3.7c-1.3-3.1,0.2-6.6,3.3-7.8 c71.7-29.4,118.1-98.4,118.1-175.9C536.4,118.2,451.2,33,346.4,33C241.6,33,156.3,118.2,156.3,223c0,39,11.7,76.4,34,108.4 c1.9,2.7,1.2,6.5-1.5,8.4c-2.7,1.9-6.5,1.2-8.4-1.5c-23.6-34-36.1-73.9-36.1-115.3c0-53.6,21.1-104.3,59.5-142.6 c38.3-38.3,89-59.5,142.6-59.5C400,21,450.6,42.1,489,80.4c38.3,38.3,59.5,89,59.5,142.6c0,40.2-11.9,79.1-34.3,112.6 c-22.5,33.5-54,59.2-91.2,74.4C422.2,410.3,421.4,410.5,420.6,410.5z M405,372.7c-2.4,0-4.6-1.4-5.6-3.7c-1.3-3.1,0.2-6.6,3.3-7.8 c56.4-23,92.8-77.2,92.8-138.1c0-82.2-66.9-149.1-149.1-149.1S197.2,140.8,197.2,223c0,30.4,9.1,59.7,26.4,84.7 c1.9,2.7,1.2,6.5-1.5,8.3c-2.7,1.9-6.5,1.2-8.3-1.5c-18.7-27-28.5-58.7-28.5-91.6c0-42.8,16.8-83.2,47.4-113.7s71-47.4,113.7-47.4 s83.2,16.8,113.7,47.4s47.4,71,47.4,113.7c0,32.1-9.5,63.1-27.4,89.8c-17.9,26.7-43.1,47.2-72.8,59.3 C406.5,372.5,405.8,372.7,405,372.7z M301.6,318c-3.3,0-6-2.7-6-6v-28.4h-23.3c-3.3,0-6-2.7-6-6s2.7-6,6-6h23.3V154.7 c0-7.5,6.1-13.6,13.6-13.6h61c32.4,0,58.7,26.3,58.7,58.7c0,32.4-26.3,58.7-58.7,58.7h-62.6v13.2h53.9c3.3,0,6,2.7,6,6s-2.7,6-6,6 h-53.9V312C307.6,315.3,304.9,318,301.6,318z M307.6,246.4h62.6c25.7,0,46.7-20.9,46.7-46.7s-20.9-46.7-46.7-46.7h-61 c-0.9,0-1.6,0.7-1.6,1.6V246.4z"/></svg>