<svg version="1.1" id="Слой_6__x28_копия2_x29_" xmlns="http://www.w3.org/2000/svg" x="0" y="0" viewBox="0 0 595.3 595.3" xml:space="preserve"><path d="M137.2,470.6c-0.1,0-0.2,0-0.3,0c-2.8-0.1-4.9-2.5-4.7-5.2c2.3-45.4,4.6-93.6,4.9-107.9c0-2.2,1.6-4.2,3.8-4.7 c2.2-0.6,4.5,0.4,5.6,2.3c10.2,17.7,43.7,72.9,51.1,85c3.2,5.1,7.4,7.3,11.1,5.6c3-1.3,5.4-5.4,3.9-11.4c-0.1-0.3-0.2-0.6-0.4-0.9 c-0.3-0.7-0.7-1.8-1.2-3.2c-1.1-3-2.6-7.3-4.3-12.2c-0.9-2.6,0.5-5.5,3.1-6.4c2.6-0.9,5.5,0.5,6.4,3.1c2.8,8,4.5,12.8,5.2,14.8 c0.2,0.4,0.4,0.7,0.5,1.1c0,0.1,0,0.1,0.1,0.2c3.5,12-2.3,20.8-9.2,23.9c-6.9,3.1-16.9,1.4-23.7-9.5c-6-9.6-28.5-46.7-42.5-70.4 c-0.9,21.3-2.6,55.7-4.3,90.9C142.1,468.5,139.9,470.6,137.2,470.6z M49.1,470.6c-2.7,0-4.9-2.1-5-4.8c-0.2-4.5-0.4-9-0.5-13 c-37-2.5-38.8-33.4-38.8-33.7c0-0.1,0-0.1,0-0.2V324c0-17.4,4.8-30.2,14.3-38c13-10.8,29.7-7.8,30.4-7.7c1.4,0.3,2.6,1.1,3.4,2.3 l25.9,42.7l4.2-25.5c-3.9-2.2-6.5-6.4-6.5-11.2v-3.7c0-7.1,5.7-12.8,12.8-12.8h7.3c7.1,0,12.8,5.7,12.8,12.8v3.7 c0,4.9-2.8,9.2-6.9,11.4l5.2,25.9l26.3-43.2c0.7-1.2,2-2.1,3.4-2.3c1.2-0.2,28.9-4.8,46.3,43.8c2.8,7.6,5.4,15.1,7.9,22.2 c2.1,5.8,4.1,11.5,6,16.9c0.9,2.6-0.4,5.5-3,6.4c-2.6,0.9-5.5-0.4-6.4-3c-1.9-5.4-3.9-11.1-6-16.9c-2.5-7.1-5.1-14.5-7.9-22.2 c-11.9-33.1-27.5-37.1-33.1-37.4l-31.4,51.8c0,0.1-0.1,0.2-0.2,0.2l-11.8,19.4c-0.2,0.4-0.5,0.7-0.8,1c-0.4,0.4-0.9,0.8-1.4,1 c-0.7,0.3-1.4,0.5-2.1,0.5c0,0,0,0,0,0c-0.7,0-1.4-0.1-2.1-0.4c-0.5-0.2-1-0.6-1.5-1c-0.3-0.3-0.6-0.7-0.8-1l-11.8-19.4 c0-0.1-0.1-0.2-0.1-0.2l-31.6-52c-4-0.3-13.1-0.1-20.1,5.8c-7,5.9-10.6,16.1-10.6,30.3v94.8c0.1,1.7,2.4,24.2,33.7,24.2 c2.7,0,4.9,2.2,5,4.9c0.1,4.9,0.3,11.1,0.6,17.5c0.1,2.8-2,5.1-4.8,5.2C49.2,470.6,49.2,470.6,49.1,470.6z M86.6,336.4l6.7,11 l6.6-10.9l-7.3-36.1L86.6,336.4z M90.3,289.4h4.8c0.1,0,0.3-0.1,0.4-0.1c0.6-0.1,1.2-0.1,1.8,0c1.1-0.4,2-1.4,2-2.7v-3.7 c0-1.5-1.3-2.8-2.8-2.8h-7.3c-1.5,0-2.8,1.3-2.8,2.8v3.7c0,1.1,0.7,2.1,1.6,2.5c0.5-0.1,0.9,0,1.4,0 C89.7,289.2,90,289.3,90.3,289.4z M92.9,251.7c-23.8,0-43.2-19.4-43.2-43.2s19.4-43.2,43.2-43.2c23.8,0,43.2,19.4,43.2,43.2 S116.7,251.7,92.9,251.7z M92.9,175.3c-18.3,0-33.2,14.9-33.2,33.2s14.9,33.2,33.2,33.2s33.2-14.9,33.2-33.2 S111.2,175.3,92.9,175.3z"/><path d="M545.7,470.6c-0.1,0-0.1,0-0.2,0c-2.8-0.1-4.9-2.5-4.8-5.2c0.3-6.4,0.5-12.6,0.6-17.5c0.1-2.7,2.3-4.9,5-4.9 c31.2,0,33.6-22.3,33.7-24.3V324c0-14.2-3.6-24.4-10.6-30.3c-7.1-5.9-16.1-6.1-20.1-5.8l-43.4,71.6c-0.2,0.4-0.5,0.7-0.8,1 c-0.4,0.4-0.9,0.8-1.4,1c-0.7,0.3-1.4,0.5-2.1,0.5c0,0,0,0,0,0c-0.7,0-1.4-0.1-2.1-0.4c-0.5-0.2-1-0.6-1.5-1 c-0.3-0.3-0.6-0.7-0.8-1l-11.8-19.4c0-0.1-0.1-0.1-0.1-0.2l-31.5-51.8c-5.5,0.3-21.3,4.2-33.1,37.4c-2.7,7.5-5.4,15.1-8,22.5 c-2,5.6-4,11.2-6,16.6c-0.9,2.6-3.8,4-6.4,3c-2.6-0.9-4-3.8-3-6.4c1.9-5.4,3.9-11,6-16.6c2.7-7.4,5.4-15,8-22.5 c17.3-48.7,45.2-44.1,46.3-43.8c1.4,0.3,2.6,1.1,3.4,2.3l26.3,43.2l5.2-25.8c-4.2-2.1-7-6.4-7-11.4v-3.7c0-7.1,5.7-12.8,12.8-12.8 h7.3c7.1,0,12.8,5.7,12.8,12.8v3.7c0,4.8-2.6,9-6.5,11.2l4.3,25.6l25.9-42.7c0.7-1.2,2-2.1,3.4-2.3c0.7-0.1,17.4-3,30.4,7.8 c9.4,7.9,14.2,20.6,14.2,38v94.9c0,0.1,0,0.1,0,0.2c0,0.3-1.8,31.2-38.8,33.7c-0.1,4-0.3,8.4-0.5,13 C550.6,468.5,548.4,470.6,545.7,470.6z M495,336.5l6.6,10.9l6.6-10.9l-6-35.9L495,336.5z M499.8,289.4h4.7c0.3-0.1,0.6-0.2,0.9-0.2 c0.5-0.1,1-0.1,1.4,0c0.9-0.4,1.6-1.4,1.6-2.5v-3.7c0-1.5-1.3-2.8-2.8-2.8h-7.3c-1.5,0-2.8,1.3-2.8,2.8v3.7c0,1.3,0.8,2.3,2,2.7 c0.6-0.1,1.2-0.1,1.9,0C499.5,289.3,499.7,289.4,499.8,289.4z M457.6,470.6c-2.6,0-4.9-2.1-5-4.8c-1.6-33.3-3.4-68.9-4.3-90.9 c-12.4,20.8-31.2,51.7-39.4,65.2l-3.2,5.2c-6.7,10.9-16.7,12.7-23.7,9.5c-7-3.1-12.8-12-9.2-24.1c0.9-3.1,2.9-8.9,5.3-15.6 c0.9-2.6,3.8-4,6.4-3c2.6,0.9,4,3.8,3,6.4c-2.3,6.6-4.3,12.2-5.1,15.1c-1.9,6.3,0.6,10.7,3.7,12.1c3.7,1.6,7.9-0.5,11.1-5.6 l3.1-5.2c10.6-17.4,38.6-63.6,48-79.8c1.1-1.9,3.4-2.9,5.6-2.3c2.2,0.6,3.7,2.5,3.8,4.7c0.3,14.6,2.7,63.3,4.9,107.9 c0.1,2.8-2,5.1-4.7,5.2C457.8,470.6,457.7,470.6,457.6,470.6z M501.9,251.7c-23.8,0-43.2-19.4-43.2-43.2s19.4-43.2,43.2-43.2 s43.2,19.4,43.2,43.2S525.7,251.7,501.9,251.7z M501.9,175.3c-18.3,0-33.2,14.9-33.2,33.2s14.9,33.2,33.2,33.2 c18.3,0,33.2-14.9,33.2-33.2S520.2,175.3,501.9,175.3z"/><path d="M400.6,421.8H193.8c-2.8,0-5-2.2-5-5V110.5c0-2.8,2.2-5,5-5h138.1c0.7,0,1.3,0.1,1.9,0.4c0.6,0.2,1.2,0.6,1.6,1.1 l68.7,68.3c1,1,1.5,2.3,1.5,3.6c0,0,0,0,0,0.1v237.9C405.6,419.6,403.4,421.8,400.6,421.8z M198.8,411.8h196.8V183.9l-63.7-0.4 c-2.8,0-5-2.3-5-5v-63H198.8V411.8z M336.9,173.5l51.6,0.3l-51.6-51.3V173.5z M266.6,394.9c-1.9,0-3.6-1-4.4-2.7l-28.5-54.1 c-1.3-2.4-0.3-5.5,2.1-6.8c2.4-1.3,5.5-0.3,6.8,2.1l23.8,45.2l13.5-28.7c0.7-1.4,1.9-2.4,3.4-2.8c1.5-0.3,3.1,0,4.3,1l17.7,14.7 l50.5-25.8c2.5-1.3,5.5-0.3,6.7,2.2c1.3,2.5,0.3,5.5-2.2,6.7l-53.4,27.3c-1.8,0.9-3.9,0.7-5.5-0.6l-15.2-12.7l-15,32 c-0.8,1.7-2.5,2.8-4.4,2.9C266.7,394.9,266.6,394.9,266.6,394.9z M315.2,299.5h-68.4c-2.8,0-5-2.2-5-5s2.2-5,5-5h68.4 c2.8,0,5,2.2,5,5S318,299.5,315.2,299.5z M348,268.8H245.9c-2.8,0-5-2.2-5-5s2.2-5,5-5H348c2.8,0,5,2.2,5,5S350.8,268.8,348,268.8z M348.5,238.1H246.4c-2.8,0-5-2.2-5-5s2.2-5,5-5h102.1c2.8,0,5,2.2,5,5S351.3,238.1,348.5,238.1z M348.5,207.6H246.4 c-2.8,0-5-2.2-5-5s2.2-5,5-5h102.1c2.8,0,5,2.2,5,5S351.3,207.6,348.5,207.6z"/></svg>