<svg version="1.1" id="Слой_1" xmlns="http://www.w3.org/2000/svg" x="0" y="0" viewBox="0 0 595.3 595.3" xml:space="preserve"><path d="M330.8,396.5h-5.2c-6.4,0-11.6-5.2-11.6-11.6v-5.2c0-6.4,5.2-11.6,11.6-11.6h5.2c6.4,0,11.6,5.2,11.6,11.6v5.2 C342.4,391.4,337.2,396.5,330.8,396.5z M325.6,377.2c-1.4,0-2.6,1.1-2.6,2.6v5.2c0,1.4,1.1,2.6,2.6,2.6h5.2c1.4,0,2.6-1.1,2.6-2.6 v-5.2c0-1.4-1.1-2.6-2.6-2.6H325.6z M269,396.5h-5.2c-6.4,0-11.6-5.2-11.6-11.6v-5.2c0-6.4,5.2-11.6,11.6-11.6h5.2 c6.4,0,11.6,5.2,11.6,11.6v5.2C280.5,391.4,275.4,396.5,269,396.5z M263.8,377.2c-1.4,0-2.6,1.1-2.6,2.6v5.2c0,1.4,1.1,2.6,2.6,2.6 h5.2c1.4,0,2.6-1.1,2.6-2.6v-5.2c0-1.4-1.1-2.6-2.6-2.6H263.8z M204.3,396.5h-5.2c-6.4,0-11.6-5.2-11.6-11.6v-5.2 c0-6.4,5.2-11.6,11.6-11.6h5.2c6.4,0,11.6,5.2,11.6,11.6v5.2C215.8,391.4,210.6,396.5,204.3,396.5z M199.1,377.2 c-1.4,0-2.6,1.1-2.6,2.6v5.2c0,1.4,1.1,2.6,2.6,2.6h5.2c1.4,0,2.6-1.1,2.6-2.6v-5.2c0-1.4-1.1-2.6-2.6-2.6H199.1z M392.6,341h-5.2 c-6.4,0-11.6-5.2-11.6-11.6v-5.2c0-6.4,5.2-11.6,11.6-11.6h5.2c6.4,0,11.6,5.2,11.6,11.6v5.2C404.2,335.8,399,341,392.6,341z M387.4,321.7c-1.4,0-2.6,1.1-2.6,2.6v5.2c0,1.4,1.1,2.6,2.6,2.6h5.2c1.4,0,2.6-1.1,2.6-2.6v-5.2c0-1.4-1.1-2.6-2.6-2.6H387.4z M330.8,341h-5.2c-6.4,0-11.6-5.2-11.6-11.6v-5.2c0-6.4,5.2-11.6,11.6-11.6h5.2c6.4,0,11.6,5.2,11.6,11.6v5.2 C342.4,335.8,337.2,341,330.8,341z M325.6,321.7c-1.4,0-2.6,1.1-2.6,2.6v5.2c0,1.4,1.1,2.6,2.6,2.6h5.2c1.4,0,2.6-1.1,2.6-2.6v-5.2 c0-1.4-1.1-2.6-2.6-2.6H325.6z M269,341h-5.2c-6.4,0-11.6-5.2-11.6-11.6v-5.2c0-6.4,5.2-11.6,11.6-11.6h5.2 c6.4,0,11.6,5.2,11.6,11.6v5.2C280.5,335.8,275.4,341,269,341z M263.8,321.7c-1.4,0-2.6,1.1-2.6,2.6v5.2c0,1.4,1.1,2.6,2.6,2.6h5.2 c1.4,0,2.6-1.1,2.6-2.6v-5.2c0-1.4-1.1-2.6-2.6-2.6H263.8z M204.3,341h-5.2c-6.4,0-11.6-5.2-11.6-11.6v-5.2 c0-6.4,5.2-11.6,11.6-11.6h5.2c6.4,0,11.6,5.2,11.6,11.6v5.2C215.8,335.8,210.6,341,204.3,341z M199.1,321.7 c-1.4,0-2.6,1.1-2.6,2.6v5.2c0,1.4,1.1,2.6,2.6,2.6h5.2c1.4,0,2.6-1.1,2.6-2.6v-5.2c0-1.4-1.1-2.6-2.6-2.6H199.1z M454.4,286.7 h-5.2c-6.4,0-11.6-5.2-11.6-11.6V270c0-6.4,5.2-11.6,11.6-11.6h5.2c6.4,0,11.6,5.2,11.6,11.6v5.2 C466,281.5,460.8,286.7,454.4,286.7z M449.2,267.4c-1.4,0-2.6,1.1-2.6,2.6v5.2c0,1.4,1.1,2.6,2.6,2.6h5.2c1.4,0,2.6-1.1,2.6-2.6 V270c0-1.4-1.1-2.6-2.6-2.6H449.2z M392.6,286.7h-5.2c-6.4,0-11.6-5.2-11.6-11.6V270c0-6.4,5.2-11.6,11.6-11.6h5.2 c6.4,0,11.6,5.2,11.6,11.6v5.2C404.2,281.5,399,286.7,392.6,286.7z M387.4,267.4c-1.4,0-2.6,1.1-2.6,2.6v5.2c0,1.4,1.1,2.6,2.6,2.6 h5.2c1.4,0,2.6-1.1,2.6-2.6V270c0-1.4-1.1-2.6-2.6-2.6H387.4z M330.8,286.7h-5.2c-6.4,0-11.6-5.2-11.6-11.6V270 c0-6.4,5.2-11.6,11.6-11.6h5.2c6.4,0,11.6,5.2,11.6,11.6v5.2C342.4,281.5,337.2,286.7,330.8,286.7z M325.6,267.4 c-1.4,0-2.6,1.1-2.6,2.6v5.2c0,1.4,1.1,2.6,2.6,2.6h5.2c1.4,0,2.6-1.1,2.6-2.6V270c0-1.4-1.1-2.6-2.6-2.6H325.6z M269,286.7h-5.2 c-6.4,0-11.6-5.2-11.6-11.6V270c0-6.4,5.2-11.6,11.6-11.6h5.2c6.4,0,11.6,5.2,11.6,11.6v5.2C280.5,281.5,275.4,286.7,269,286.7z M263.8,267.4c-1.4,0-2.6,1.1-2.6,2.6v5.2c0,1.4,1.1,2.6,2.6,2.6h5.2c1.4,0,2.6-1.1,2.6-2.6V270c0-1.4-1.1-2.6-2.6-2.6H263.8z M204.3,286.7h-5.2c-6.4,0-11.6-5.2-11.6-11.6V270c0-6.4,5.2-11.6,11.6-11.6h5.2c6.4,0,11.6,5.2,11.6,11.6v5.2 C215.8,281.5,210.6,286.7,204.3,286.7z M199.1,267.4c-1.4,0-2.6,1.1-2.6,2.6v5.2c0,1.4,1.1,2.6,2.6,2.6h5.2c1.4,0,2.6-1.1,2.6-2.6 V270c0-1.4-1.1-2.6-2.6-2.6H199.1z M454.4,232.5h-5.2c-6.4,0-11.6-5.2-11.6-11.6v-5.2c0-6.4,5.2-11.6,11.6-11.6h5.2 c6.4,0,11.6,5.2,11.6,11.6v5.2C466,227.3,460.8,232.5,454.4,232.5z M449.2,213.2c-1.4,0-2.6,1.1-2.6,2.6v5.2c0,1.4,1.1,2.6,2.6,2.6 h5.2c1.4,0,2.6-1.1,2.6-2.6v-5.2c0-1.4-1.1-2.6-2.6-2.6H449.2z M392.6,232.5h-5.2c-6.4,0-11.6-5.2-11.6-11.6v-5.2 c0-6.4,5.2-11.6,11.6-11.6h5.2c6.4,0,11.6,5.2,11.6,11.6v5.2C404.2,227.3,399,232.5,392.6,232.5z M387.4,213.2 c-1.4,0-2.6,1.1-2.6,2.6v5.2c0,1.4,1.1,2.6,2.6,2.6h5.2c1.4,0,2.6-1.1,2.6-2.6v-5.2c0-1.4-1.1-2.6-2.6-2.6H387.4z M330.8,232.5 h-5.2c-6.4,0-11.6-5.2-11.6-11.6v-5.2c0-6.4,5.2-11.6,11.6-11.6h5.2c6.4,0,11.6,5.2,11.6,11.6v5.2 C342.4,227.3,337.2,232.5,330.8,232.5z M325.6,213.2c-1.4,0-2.6,1.1-2.6,2.6v5.2c0,1.4,1.1,2.6,2.6,2.6h5.2c1.4,0,2.6-1.1,2.6-2.6 v-5.2c0-1.4-1.1-2.6-2.6-2.6H325.6z M269,232.5h-5.2c-6.4,0-11.6-5.2-11.6-11.6v-5.2c0-6.4,5.2-11.6,11.6-11.6h5.2 c6.4,0,11.6,5.2,11.6,11.6v5.2C280.5,227.3,275.4,232.5,269,232.5z M263.8,213.2c-1.4,0-2.6,1.1-2.6,2.6v5.2c0,1.4,1.1,2.6,2.6,2.6 h5.2c1.4,0,2.6-1.1,2.6-2.6v-5.2c0-1.4-1.1-2.6-2.6-2.6H263.8z M204.3,232.5h-5.2c-6.4,0-11.6-5.2-11.6-11.6v-5.2 c0-6.4,5.2-11.6,11.6-11.6h5.2c6.4,0,11.6,5.2,11.6,11.6v5.2C215.8,227.3,210.6,232.5,204.3,232.5z M199.1,213.2 c-1.4,0-2.6,1.1-2.6,2.6v5.2c0,1.4,1.1,2.6,2.6,2.6h5.2c1.4,0,2.6-1.1,2.6-2.6v-5.2c0-1.4-1.1-2.6-2.6-2.6H199.1z"/><path d="M370.1,434.8H174.7c0,0,0,0,0,0c0,0,0,0,0,0c-1.6,0-3.1-0.7-4.2-1.7L97.7,361c-2.4-2.3-2.4-6.1,0-8.5s6.1-2.4,8.5,0 l62.6,62v-53.2h-41.1c-3.3,0-6-2.7-6-6s2.7-6,6-6h47.1c3.3,0,6,2.7,6,6v67.6h189.5c3.3,0,6,2.7,6,6S373.4,434.8,370.1,434.8z M493.5,307.7c-3.3,0-6-2.7-6-6V179.7H101.9c-3.3,0-6-2.7-6-6v-48.4c0-12.4,10.1-22.6,22.6-22.6c3.3,0,6,2.7,6,6c0,3.3-2.7,6-6,6 c-5.8,0-10.6,4.7-10.6,10.6v42.4h379.6v-42.4c0-5.8-4.7-10.6-10.6-10.6c-3.3,0-6-2.7-6-6c0-3.3,2.7-6,6-6 c12.4,0,22.6,10.1,22.6,22.6v176.4C499.5,305,496.8,307.7,493.5,307.7z M451.8,153.8c-8.5,0-15.5-6.9-15.5-15.5V89.1 c0-8.5,6.9-15.5,15.5-15.5c8.5,0,15.5,6.9,15.5,15.5v49.2C467.3,146.9,460.4,153.8,451.8,153.8z M451.8,85.7 c-1.9,0-3.5,1.5-3.5,3.5v49.2c0,1.9,1.5,3.5,3.5,3.5s3.5-1.5,3.5-3.5V89.1C455.3,87.2,453.7,85.7,451.8,85.7z M390,153.8 c-8.5,0-15.5-6.9-15.5-15.5V89.1c0-8.5,6.9-15.5,15.5-15.5s15.5,6.9,15.5,15.5v13.6h14.9c3.3,0,6,2.7,6,6c0,3.3-2.7,6-6,6h-14.9 v23.7C405.5,146.9,398.5,153.8,390,153.8z M390,85.7c-1.9,0-3.5,1.5-3.5,3.5v49.2c0,1.9,1.5,3.5,3.5,3.5s3.5-1.5,3.5-3.5V89.1 C393.5,87.2,391.9,85.7,390,85.7z M328.2,153.8c-8.5,0-15.5-6.9-15.5-15.5V89.1c0-8.5,6.9-15.5,15.5-15.5s15.5,6.9,15.5,15.5v13.6 h15.1c3.3,0,6,2.7,6,6c0,3.3-2.7,6-6,6h-15.1v23.7C343.7,146.9,336.7,153.8,328.2,153.8z M328.2,85.7c-1.9,0-3.5,1.5-3.5,3.5v49.2 c0,1.9,1.5,3.5,3.5,3.5s3.5-1.5,3.5-3.5V89.1C331.7,87.2,330.1,85.7,328.2,85.7z M266.4,153.8c-8.5,0-15.5-6.9-15.5-15.5V89.1 c0-8.5,6.9-15.5,15.5-15.5s15.5,6.9,15.5,15.5v13.6h14.9c3.3,0,6,2.7,6,6c0,3.3-2.7,6-6,6h-14.9v23.7 C281.8,146.9,274.9,153.8,266.4,153.8z M266.4,85.7c-1.9,0-3.5,1.5-3.5,3.5v49.2c0,1.9,1.5,3.5,3.5,3.5s3.5-1.5,3.5-3.5V89.1 C269.8,87.2,268.3,85.7,266.4,85.7z M204.6,153.8c-8.5,0-15.5-6.9-15.5-15.5V89.1c0-8.5,6.9-15.5,15.5-15.5S220,80.6,220,89.1v13.6 h14.9c3.3,0,6,2.7,6,6c0,3.3-2.7,6-6,6H220v23.7C220,146.9,213.1,153.8,204.6,153.8z M204.6,85.7c-1.9,0-3.5,1.5-3.5,3.5v49.2 c0,1.9,1.5,3.5,3.5,3.5s3.5-1.5,3.5-3.5V89.1C208,87.2,206.5,85.7,204.6,85.7z M142.8,153.8c-8.5,0-15.5-6.9-15.5-15.5V89.1 c0-8.5,6.9-15.5,15.5-15.5s15.5,6.9,15.5,15.5v13.6h15.1c3.3,0,6,2.7,6,6c0,3.3-2.7,6-6,6h-15.1v23.7 C158.2,146.9,151.3,153.8,142.8,153.8z M142.8,85.7c-1.9,0-3.5,1.5-3.5,3.5v49.2c0,1.9,1.5,3.5,3.5,3.5c1.9,0,3.5-1.5,3.5-3.5V89.1 C146.2,87.2,144.7,85.7,142.8,85.7z"/><path d="M82.8,292c-15.6,0-28.3-12.7-28.3-28.3s12.7-28.3,28.3-28.3s28.3,12.7,28.3,28.3S98.4,292,82.8,292z M82.8,247.5 c-9,0-16.3,7.3-16.3,16.3S73.9,280,82.8,280s16.3-7.3,16.3-16.3S91.8,247.5,82.8,247.5z" id="XMLID_224_"/><path d="M88.4,342.1H77.3c-9.4,0-17.1-7.7-17.1-17.1v-3.4c0-3.9-2-7.3-5.3-9.3c-3.3-1.9-7.3-1.9-10.7,0l-2.9,1.7 c-8.2,4.7-18.7,1.9-23.4-6.3l-5.6-9.6c-4.7-8.2-1.9-18.7,6.3-23.4l2.9-1.7c3.4-1.9,5.3-5.4,5.3-9.3s-2-7.3-5.3-9.3l-2.9-1.7 c-8.2-4.7-11-15.2-6.3-23.4l5.6-9.6c4.7-8.2,15.2-11,23.4-6.3l2.9,1.7c3.3,1.9,7.3,1.9,10.7,0c3.3-1.9,5.3-5.4,5.3-9.3v-3.4 c0-9.4,7.7-17.1,17.1-17.1h11.1c9.4,0,17.1,7.7,17.1,17.1v3.4c0,3.9,2,7.3,5.3,9.3c3.3,1.9,7.3,1.9,10.7,0l2.9-1.7 c8.2-4.7,18.7-1.9,23.4,6.3l5.6,9.6c2.3,4,2.9,8.6,1.7,13c-1.2,4.4-4,8.1-8,10.4l-2.9,1.7c-3.4,1.9-5.4,5.4-5.4,9.3s2,7.3,5.3,9.3 l2.9,1.7c4,2.3,6.8,6,8,10.4c1.2,4.4,0.6,9-1.7,13l-5.6,9.6c-4.7,8.2-15.2,11-23.4,6.3l-2.9-1.7c-3.3-1.9-7.3-1.9-10.7,0 c-3.3,1.9-5.3,5.4-5.3,9.3v3.4C105.5,334.4,97.8,342.1,88.4,342.1z M49.4,298.8c3.9,0,7.8,1,11.3,3.1c7.1,4.1,11.3,11.5,11.3,19.7 v3.4c0,2.8,2.3,5.1,5.1,5.1h11.1c2.8,0,5.1-2.3,5.1-5.1v-3.4c0-8.2,4.2-15.6,11.3-19.7c7.1-4.1,15.6-4.1,22.7,0l2.9,1.7 c2.4,1.4,5.6,0.6,7-1.9l5.6-9.6c0.7-1.2,0.9-2.6,0.5-3.9c-0.4-1.3-1.2-2.4-2.4-3.1l-2.9-1.7c-7.1-4.1-11.3-11.4-11.3-19.7 s4.2-15.5,11.3-19.7l2.9-1.7c1.2-0.7,2-1.8,2.4-3.1c0.4-1.3,0.2-2.7-0.5-3.9c0,0,0,0,0,0l-5.6-9.6c-0.7-1.2-1.8-2-3.1-2.4 c-1.3-0.4-2.7-0.2-3.9,0.5l-2.9,1.7c-7.1,4.1-15.6,4.1-22.7,0c-7.1-4.1-11.3-11.4-11.3-19.6v-3.4c0-2.8-2.3-5.1-5.1-5.1H77.3 c-2.8,0-5.1,2.3-5.1,5.1v3.4c0,8.2-4.2,15.6-11.3,19.7c-7.1,4.1-15.6,4.1-22.7,0l-2.9-1.7c-2.4-1.4-5.6-0.6-7,1.9l-5.6,9.6 c-0.7,1.2-0.9,2.6-0.5,3.9c0.4,1.3,1.2,2.4,2.4,3.1l2.9,1.7c7.1,4.1,11.3,11.4,11.3,19.7s-4.2,15.5-11.3,19.7l-2.9,1.7 c-1.2,0.7-2,1.8-2.4,3.1c-0.4,1.3-0.2,2.7,0.5,3.9l5.6,9.6c1.4,2.5,4.6,3.3,7,1.9l2.9-1.7C41.6,299.9,45.5,298.8,49.4,298.8z" id="XMLID_242_"/><path d="M486.1,521.6c-54.4,0-98.6-44.2-98.6-98.6s44.2-98.6,98.6-98.6s98.6,44.2,98.6,98.6S540.5,521.6,486.1,521.6z M486.1,336.4 c-47.7,0-86.6,38.8-86.6,86.6s38.8,86.6,86.6,86.6s86.6-38.8,86.6-86.6S533.8,336.4,486.1,336.4z"/><path d="M549.6,496.4c-2.2,0-4.4-1.2-5.4-3.4c-2-4-15.9-9.4-27.1-13.7l-2.8-1.1c-18.5-7.1-17.7-21.4-17.3-29 c0.1-1.2,0.1-2.3,0.1-3.2c0-2.1,1.1-4.1,3-5.2c4.8-2.8,6.8-7,6.5-13.5c-0.1-2.3,1.1-4.5,3.1-5.6c2.1-1.2,2.8-3.5,3-4.8 c0.4-2.3-0.2-4.4-0.9-5.1c-1.5-1.5-2-3.7-1.4-5.8c4.1-14.4,4-25.6-0.2-32.6c-3.4-5.6-8.5-6.6-8.7-6.7c-1.7-0.2-2.8-1-3.8-2.4 c-0.2-0.3-7-8.7-22.6-3.5c-22.9,7.5-20.6,26.9-16,42.8l0.2,0.9c0.6,2,0.1,4.1-1.3,5.7c-2.6,2.9-2.2,4.8,2.4,11 c0.6,0.8,1.2,1.6,1.7,2.3c0.7,1,1,2.1,1,3.2c0.1,5.7,5.9,11.3,8.6,14.1l0.5,0.5c1.1,1.1,1.8,2.7,1.8,4.2c0,17.1-2.4,25.9-16.8,32.2 c-10.2,4.5-30.3,15.9-30.5,16c-2.9,1.6-6.5,0.6-8.2-2.2c-1.6-2.9-0.6-6.5,2.2-8.2c0.8-0.5,20.9-11.9,31.6-16.6 c6.8-3,9.3-4.8,9.6-18.7c-3.7-3.7-9.7-10.5-10.7-19c-0.2-0.2-0.3-0.4-0.5-0.7c-3.2-4.2-10.2-13.6-3.9-23.5 c-1.6-5.7-3.8-15.2-2.4-25.2c2-14.7,11.3-25.2,26.8-30.3c19.3-6.3,30.5,2.1,34.4,6c3.4,1.1,9.8,3.9,14.4,11.3 c6,9.5,6.9,22.9,2.5,39.8c1.9,3.5,2.6,7.9,1.9,12.2c-0.7,4.5-2.8,8.4-5.9,11.2c-0.4,9.7-4.9,15.6-9.6,19.2c0,0.2,0,0.4,0,0.6 c-0.4,7.3-0.7,13.1,9.6,17.1l2.8,1.1c16.5,6.4,29.6,11.4,33.6,19.7c1.4,3,0.2,6.6-2.8,8C551.4,496.2,550.5,496.4,549.6,496.4z"/></svg>