<svg version="1.1" id="Слой_1" xmlns="http://www.w3.org/2000/svg" x="0" y="0" viewBox="0 0 595.3 595.3" xml:space="preserve"><path d="M297.5,571.4c-1,0-2.1-0.3-3-0.8c-2.9-1.7-3.8-5.3-2.2-8.2l83.1-143.3l-25.3-9.3c-1.7-0.6-3-1.9-3.6-3.6 c-0.6-1.7-0.5-3.5,0.4-5l22.4-39.5c0-0.1,0.1-0.2,0.2-0.3l1-1.7l-54.5-25.3l-8.9,58.3c0,0.1,0,0.2,0,0.3l-25.4,167.1 c-0.5,3.3-3.6,5.5-6.8,5c-3.3-0.5-5.5-3.6-5-6.8l24.8-163.1l-37.9-20.3c-2.9-1.6-4-5.2-2.5-8.1c1.6-2.9,5.2-4,8.1-2.5l34.2,18.3 l8.8-57.8c0-0.3,0.1-0.7,0.2-1c0.2-0.7,0.5-1.3,0.9-1.8c0.5-0.7,1.2-1.3,2-1.7c0.8-0.4,1.6-0.7,2.5-0.7c0.7,0,1.4,0,2.1,0.3 c0.3,0.1,0.6,0.2,0.9,0.4l67.5,31.3c1.5,0.7,2.7,2,3.2,3.6c0.5,1.6,0.3,3.3-0.5,4.8l-0.9,1.5c5.8,2.5,14.8,6.5,26.8,12.1 c30.7,14.1,45.3,34.5,45.8,64.3c0.4,23.2,1.3,122.2,1.3,123.1c0,3.3-2.6,6-5.9,6.1c0,0,0,0-0.1,0c-3.3,0-6-2.6-6-5.9 c0-1-0.9-99.9-1.3-123.1c-0.4-25-12.4-41.5-38.8-53.6c-15.6-7.1-23.6-10.7-27.8-12.5L360.9,401l25.4,9.3c1.7,0.6,3,1.9,3.6,3.6 c0.6,1.7,0.4,3.5-0.5,5.1l-86.7,149.5C301.6,570.4,299.6,571.4,297.5,571.4z"/><path d="M200.3,571.4c-2.1,0-4.1-1.1-5.2-3l-86.7-149.5c-0.9-1.5-1.1-3.4-0.5-5.1c0.6-1.7,1.9-3,3.6-3.6L137,401L120.6,372 c-4.1,1.8-12.2,5.3-27.8,12.5c-26.4,12.1-38.4,28.6-38.8,53.6c-0.4,23.2-1.3,122.1-1.3,123.1c0,3.3-2.7,5.9-6,5.9c0,0,0,0-0.1,0 c-3.3,0-6-2.7-5.9-6.1c0-1,0.9-99.9,1.3-123.1c0.5-29.8,15-50.3,45.8-64.3c12-5.5,21.1-9.6,26.8-12.1l-0.9-1.5 c-0.8-1.5-1-3.2-0.5-4.8s1.7-2.9,3.2-3.6l67.5-31.3c0.3-0.1,0.6-0.3,0.9-0.4c0.7-0.2,1.4-0.3,2.1-0.2c0.9,0,1.7,0.3,2.5,0.7 c0.8,0.4,1.5,1,2,1.7c0.4,0.5,0.7,1.2,0.9,1.8c0.1,0.3,0.2,0.6,0.2,1l8.8,57.8l34.2-18.3c2.9-1.6,6.6-0.5,8.1,2.5 c1.6,2.9,0.5,6.6-2.5,8.1l-37.9,20.3l24.8,163.1c0.5,3.3-1.8,6.3-5,6.8c-3.3,0.5-6.3-1.8-6.8-5L190.8,393c0-0.1,0-0.2,0-0.3 l-8.9-58.3l-54.5,25.3l1,1.7c0,0.1,0.1,0.2,0.1,0.2l22.4,39.5c0.9,1.5,1,3.4,0.4,5c-0.6,1.7-1.9,3-3.6,3.6l-25.3,9.3l83.1,143.3 c1.7,2.9,0.7,6.5-2.2,8.2C202.4,571.2,201.3,571.4,200.3,571.4z"/><path d="M249.7,316.3c-29.2,0-53.7-17.7-71-51.2c-10.5-20.4-15.5-40.8-17.4-50.1c-3.8-0.4-7.1-1.8-9.9-4.2 c-8.5-7.4-8.9-21.7-9.1-33.1c-0.1-2.9-0.1-5.7-0.3-7.8c-1-10.8,4.1-17,9.1-20.1c-4.9-46.7,1.9-80.8,20.2-101.3 c21.8-24.6,55.1-24.5,75-24.6h0.5c31.1,0,54.4,15,61.4,20.1c4.9-0.4,14.8,0.1,23.9,8.3c17.4,15.5,23,49.8,16.6,102 c-0.4,3.3-3.4,5.6-6.7,5.2c-3.3-0.4-5.6-3.4-5.2-6.7c7.4-59.5-2.7-82.5-12.4-91.4c-7.8-7.1-16.1-5.4-16.5-5.3 c-1.8,0.5-3.7,0-5.2-1.2c-0.2-0.2-23.7-19-55.9-19h-0.5c-19,0-47.8,0-66,20.5c-16.4,18.5-22.1,50.9-16.7,96.3 c0.4,3.1-1.5,5.9-4.5,6.5c-1.4,0.4-5.7,2.3-5,9.5c0.2,2.6,0.3,5.5,0.4,8.7c0.2,8.6,0.5,20.4,5,24.3c0.9,0.8,2.6,1.8,6.3,1.3 c3.3-0.4,6.2,1.9,6.7,5.2c0.1,1,15.3,96.1,77.4,96.1c3.3,0,6,2.7,6,6S253,316.3,249.7,316.3z"/><path d="M249.7,316.3c-3.3,0-6-2.7-6-6s2.7-6,6-6c62.1,0,77.3-95.1,77.4-96.1c0.4-3.3,3.4-5.6,6.7-5.2c3.8,0.5,5.4-0.5,6.3-1.3 c4.5-3.9,4.8-15.7,5-24.3c0.1-3.1,0.1-6.1,0.4-8.7c0.7-7.3-3.7-9.1-5-9.5l0.1,0l2.7-11.7c5.5,1.3,15.5,7.6,14.1,22.3 c-0.2,2.1-0.3,4.9-0.3,7.8c-0.3,11.5-0.6,25.7-9.1,33.1c-2.8,2.4-6.1,3.8-9.9,4.2c-1.9,9.3-6.8,29.8-17.4,50.1 C303.5,298.6,278.9,316.3,249.7,316.3z"/><path d="M157.4,158.4c-1,0-1.9-0.3-2.8-0.9c-2.3-1.5-2.9-4.6-1.4-6.9c0.1-0.2,8.5-13.1,10-34.7c0.2-5.2,3-9.7,7.3-12.2 c5.3-3,12.1-2.6,18.8,1.1c10,5.5,46.8,20.8,101.2-10.1c6.1-3.4,16.2-8.9,25.8-5.5c5.9,2.1,10.5,7.1,13.7,14.9 c8.1,19.5,17.8,37.9,17.9,38.1c1.3,2.4,0.4,5.5-2.1,6.8c-2.4,1.3-5.5,0.4-6.8-2.1c-0.1-0.2-10.1-19-18.4-39 c-2.1-5.1-4.7-8.2-7.8-9.3c-5.4-1.9-12.7,2.1-17.6,4.8c-58.8,33.5-99.7,16.2-110.8,10.2c-3.6-2-6.9-2.4-9.1-1.2 c-1.4,0.8-2.2,2.2-2.2,4c0,0,0,0.1,0,0.1c-1.7,24.6-11.2,39-11.6,39.6C160.6,157.6,159,158.4,157.4,158.4z"/><path d="M200.9,204.8c-6.6,0-12.4-0.4-15.7-1.2c-10.7-2.6-11.5-28.9-11.5-31.8c0-0.2,0-2.7,2.6-5.5c4.8-5,15.1-7.6,30.5-7.6 c12.4,0,28.3,1.2,34,6.9c1.5,1.5,2.3,3.3,2.3,5.3c0,0.1,0,0.2,0,0.3c-0.2,1.3-0.3,2.8-0.5,4.6c-0.9,9.6-2.2,24.2-13,26.6 C222.9,203.9,211.1,204.8,200.9,204.8z M206.8,162.7c-28.5,0-29.1,8.9-29.1,9c0.2,10.1,2.6,26.6,8.5,28c6.9,1.7,31.4,1.3,42.6-1.3 c7.9-1.8,9.1-14.6,9.9-23.1c0.2-1.7,0.3-3.3,0.5-4.6c0-0.8-0.4-1.6-1.1-2.3C234.4,164.8,223,162.7,206.8,162.7z M241.1,170.9 L241.1,170.9L241.1,170.9z"/><path d="M300.5,204.8c-10.1,0-21.9-0.9-28.7-2.4c-10.7-2.4-12.1-17-13-26.6c-0.2-1.8-0.3-3.3-0.5-4.6c0-0.1,0-0.2,0-0.3 c0-2,0.8-3.8,2.3-5.3c5.7-5.7,21.6-6.9,34-6.9c15.4,0,25.7,2.6,30.5,7.6c2.6,2.7,2.6,5.3,2.6,5.5c0,2.9-0.8,29.2-11.5,31.8 C312.9,204.4,307.1,204.8,300.5,204.8z M262.3,170.8c0.2,1.3,0.3,2.9,0.5,4.6c0.8,8.5,2,21.3,9.9,23.1c11.2,2.6,35.7,3,42.6,1.3 c5.8-1.4,8.3-17.9,8.5-28c0-0.1-0.6-9-29.1-9c-16.2,0-27.6,2.1-31.2,5.7C262.7,169.2,262.3,169.9,262.3,170.8z"/><path d="M250.5,374.3c-34.2,0-58.5-30.9-59.5-32.2c-0.8-1.1-1.3-2.3-1.3-3.7v-57.3c0-3.3,2.7-6,6-6s6,2.7,6,6v55.1 c5,5.7,24.4,26,48.8,26c24.3,0,42.9-20.3,47.7-26v-55.2c0-3.3,2.7-6,6-6s6,2.7,6,6v57.3c0,1.3-0.4,2.5-1.2,3.6 C308,343.4,284.8,374.3,250.5,374.3z"/><path d="M272.4,414.1h-41.7c-2.3,0-4.4-1.3-5.4-3.5l-6.4-13.7c-1.4-3-0.1-6.6,2.9-8c3-1.4,6.6-0.1,8,2.9l4.8,10.3h33.7l3.7-9.8 c1.2-3.1,4.6-4.7,7.7-3.5c3.1,1.2,4.7,4.6,3.5,7.7l-5.1,13.7C277.1,412.5,274.9,414.1,272.4,414.1z"/><path d="M227.9,487.4c-0.4,0-0.7,0-1.1-0.1c-3.3-0.6-5.4-3.7-4.8-7l11.3-60.6c0.6-3.3,3.7-5.4,7-4.8c3.3,0.6,5.4,3.7,4.8,7 l-11.3,60.6C233.2,485.3,230.7,487.4,227.9,487.4z"/><path d="M273.7,487.4c-2.8,0-5.4-2-5.9-4.9l-11.3-60.6c-0.6-3.3,1.5-6.4,4.8-7c3.3-0.6,6.4,1.5,7,4.8l11.3,60.6 c0.6,3.3-1.5,6.4-4.8,7C274.4,487.3,274.1,487.4,273.7,487.4z"/><path d="M567.6,107.3l2.9-27.5l-25.3-11.2L534,43.2l-27.5,2.9L484,29.8l-22.4,16.2l-27.5-2.9l-11.2,25.3l-25.3,11.2l2.9,27.5 l-16.2,22.4l16.2,22.4l-2.9,27.5l25.3,11.2l5.8,13.1v121.3l55.3-34.6l55.3,34.6V204l5.8-13.1l25.3-11.2l-2.9-27.5l16.2-22.4 L567.6,107.3z M484,276.2l-43,26.9v-87.6l20.6-2.2l22.4,16.2l22.4-16.2l20.6,2.2v87.6L484,276.2z M557.3,172l-21.4,9.5l-9.5,21.4 l-23.3-2.4l-19,13.8l-19-13.8l-23.3,2.4l-9.5-21.4l-21.4-9.5l2.4-23.3l-13.8-19l13.8-19l-2.4-23.3l21.4-9.5l9.5-21.4l23.3,2.4 L484,45l19,13.8l23.3-2.4l9.5,21.4l21.4,9.5l-2.4,23.3l13.8,19l-13.8,19L557.3,172z"/><path d="M484,68.2c-33.9,0-61.5,27.6-61.5,61.5s27.6,61.5,61.5,61.5s61.5-27.6,61.5-61.5S517.9,68.2,484,68.2z M484,178.9 c-27.1,0-49.2-22.1-49.2-49.2s22.1-49.2,49.2-49.2s49.2,22.1,49.2,49.2S511.2,178.9,484,178.9z"/><path d="M507.4,157.6l-21.8-11.5l-21.8,11.5l4.2-24.3l-17.7-17.2l24.4-3.5l10.9-22.1l10.9,22.1l24.4,3.5l-17.7,17.2L507.4,157.6z M471.8,123.1l6.9,6.7l-1.6,9.5l8.5-4.5l8.5,4.5l-1.6-9.5l6.9-6.7l-9.5-1.4l-4.3-8.7l-4.3,8.7L471.8,123.1z"/></svg>