<svg version="1.1" id="Слой_1" xmlns="http://www.w3.org/2000/svg" x="0" y="0" viewBox="0 0 595.3 595.3" xml:space="preserve"><path d="M524.3,573.4H61.7c-21,0-38.1-17.1-38.1-38.1V184.3v0c0-17.2,14-31.1,31.1-31.1h101.4c3.3,0,6,2.7,6,6c0,3.3-2.7,6-6,6 H54.7c-10.5,0-19.1,8.6-19.1,19.1s8.6,19.1,19.1,19.1h457.9v-16.9c0-11.8-9.6-21.4-21.4-21.4h-47.3c-3.3,0-6-2.7-6-6 c0-3.3,2.7-6,6-6h47.3c18.4,0,33.4,15,33.4,33.4v16.9c20.9,0.2,37.8,17.2,37.8,38.1v67.3c0,3.3-2.7,6-6,6s-6-2.7-6-6v-67.3 c0-14.4-11.7-26.1-26.1-26.1c-1,0-2-0.3-2.8-0.7c-0.8,0.5-1.8,0.7-2.8,0.7H54.7c-7.2,0-13.8-2.5-19.1-6.6v326.4 c0,14.4,11.7,26.1,26.1,26.1h462.6c14.4,0,26.1-11.7,26.1-26.1v-67.8c0-3.3,2.7-6,6-6s6,2.7,6,6v67.8 C562.4,556.3,545.3,573.4,524.3,573.4z M551.9,453.9h-80.1c-35.5,0-64.4-28.9-64.4-64.4v-2.8c0-35.5,28.9-64.4,64.4-64.4h80.1 c16.1,0,29.1,13.1,29.1,29.1v73.2C581.1,440.8,568,453.9,551.9,453.9z M471.8,334.4c-28.9,0-52.4,23.5-52.4,52.4v2.8 c0,28.9,23.5,52.4,52.4,52.4h80.1c9.4,0,17.1-7.7,17.1-17.1v-73.2c0-9.4-7.7-17.1-17.1-17.1H471.8z M485.2,427.8 c-21.7,0-39.4-17.7-39.4-39.4s17.7-39.4,39.4-39.4s39.4,17.7,39.4,39.4S506.9,427.8,485.2,427.8z M485.2,361 c-15.1,0-27.4,12.3-27.4,27.4s12.3,27.4,27.4,27.4s27.4-12.3,27.4-27.4S500.3,361,485.2,361z M222.4,195.6c-2,0-4-1-5.1-2.8 c-9.6-15.4-14.7-33.2-14.7-51.4c0-53.7,43.7-97.4,97.4-97.4s97.4,43.7,97.4,97.4c0,18.2-5.1,36-14.7,51.4c-1.8,2.8-5.5,3.7-8.3,1.9 s-3.7-5.5-1.9-8.3c8.4-13.5,12.9-29.1,12.9-45.1c0-47.1-38.3-85.4-85.4-85.4s-85.4,38.3-85.4,85.4c0,16,4.4,31.6,12.9,45.1 c1.8,2.8,0.9,6.5-1.9,8.3C224.6,195.3,223.5,195.6,222.4,195.6z M195.3,195.6c-2.3,0-4.4-1.3-5.5-3.5c-7.4-16-11.1-33.1-11.1-50.8 c0-66.9,54.4-121.3,121.3-121.3c66.9,0,121.3,54.4,121.3,121.3c0,17.7-3.7,34.8-11.1,50.8c-1.4,3-5,4.3-8,2.9s-4.3-5-2.9-8 c6.6-14.4,10-29.8,10-45.8c0-60.2-49-109.3-109.3-109.3c-60.2,0-109.3,49-109.3,109.3c0,16,3.4,31.4,10,45.8c1.4,3,0.1,6.6-2.9,8 C197,195.4,196.2,195.6,195.3,195.6z M272,191.3c-3.3,0-6-2.7-6-6v-14.6h-11.6c-3.3,0-6-2.7-6-6c0-3.3,2.7-6,6-6H266V91 c0-5.8,4.7-10.6,10.6-10.6h36.6c20.7,0,37.6,16.9,37.6,37.6c0,20.7-16.9,37.6-37.6,37.6H278v3.1h29.9c3.3,0,6,2.7,6,6 c0,3.3-2.7,6-6,6H278v14.6C278,188.6,275.4,191.3,272,191.3z M278,143.6h35.2c14.1,0,25.6-11.5,25.6-25.6s-11.5-25.6-25.6-25.6H278 V143.6z"/><path d="M502,532.3h-32c-3.3,0-6-2.7-6-6s2.7-6,6-6h32c3.3,0,6,2.7,6,6S505.3,532.3,502,532.3z M437,532.3h-32c-3.3,0-6-2.7-6-6 s2.7-6,6-6h32c3.3,0,6,2.7,6,6S440.3,532.3,437,532.3z M372,532.3h-32c-3.3,0-6-2.7-6-6s2.7-6,6-6h32c3.3,0,6,2.7,6,6 S375.3,532.3,372,532.3z M307,532.3h-32c-3.3,0-6-2.7-6-6s2.7-6,6-6h32c3.3,0,6,2.7,6,6S310.3,532.3,307,532.3z M242,532.3h-32 c-3.3,0-6-2.7-6-6s2.7-6,6-6h32c3.3,0,6,2.7,6,6S245.3,532.3,242,532.3z M177,532.3h-32c-3.3,0-6-2.7-6-6s2.7-6,6-6h32 c3.3,0,6,2.7,6,6S180.3,532.3,177,532.3z M112,532.3H80c-3.3,0-6-2.7-6-6s2.7-6,6-6h32c3.3,0,6,2.7,6,6S115.3,532.3,112,532.3z M518.6,515.9c-3.3,0-6-2.7-6-6v-32c0-3.3,2.7-6,6-6s6,2.7,6,6v32C524.6,513.2,521.9,515.9,518.6,515.9z"/><path d="M518.6,288.4c-3.3,0-6-2.7-6-6v-32c0-3.3,2.7-6,6-6s6,2.7,6,6v32C524.6,285.7,521.9,288.4,518.6,288.4z M486,256h-32 c-3.3,0-6-2.7-6-6s2.7-6,6-6h32c3.3,0,6,2.7,6,6S489.3,256,486,256z M421,256h-32c-3.3,0-6-2.7-6-6s2.7-6,6-6h32c3.3,0,6,2.7,6,6 S424.3,256,421,256z M356,256h-32c-3.3,0-6-2.7-6-6s2.7-6,6-6h32c3.3,0,6,2.7,6,6S359.3,256,356,256z M291,256h-32 c-3.3,0-6-2.7-6-6s2.7-6,6-6h32c3.3,0,6,2.7,6,6S294.3,256,291,256z M226,256h-32c-3.3,0-6-2.7-6-6s2.7-6,6-6h32c3.3,0,6,2.7,6,6 S229.3,256,226,256z M161,256h-32c-3.3,0-6-2.7-6-6s2.7-6,6-6h32c3.3,0,6,2.7,6,6S164.3,256,161,256z M96,256H64c-3.3,0-6-2.7-6-6 s2.7-6,6-6h32c3.3,0,6,2.7,6,6S99.3,256,96,256z"/></svg>