<svg version="1.1" id="Слой_1" xmlns="http://www.w3.org/2000/svg" x="0" y="0" viewBox="0 0 595.3 595.3" xml:space="preserve"><path d="M260.2,571.2c-6.6,0-12.9-2.6-17.6-7.3l-3.5-3.5c-5.2-5.2-7.6-12.2-7.2-19c-3.4,1.7-7.2,2.6-11.1,2.6 c-6.6,0-12.9-2.6-17.6-7.3l-3.5-3.5c-4.7-4.7-7.3-10.9-7.3-17.6c0-0.2,0-0.4,0-0.6c-9.6,6.2-22.6,5.1-31-3.3l-4.3-4.3 c-4.7-4.7-7.3-10.9-7.3-17.6c0-3.9,0.9-7.7,2.6-11.1c-0.1,0-0.2,0-0.2,0c-6.5,0-12.7-2.6-17.3-7.2l-4.5-4.5 c-4.6-4.6-7.2-10.8-7.2-17.3c0-6.5,2.6-12.7,7.2-17.3l0.9-0.9L105,422l-6.3,18c-1,2.8-3.9,4.5-6.9,3.9L29.4,431 c-3.2-0.7-5.3-3.8-4.7-7.1c0.7-3.2,3.8-5.3,7.1-4.7l57.4,11.8l6.5-18.7c0,0,0-0.1,0-0.1l36.8-105.7c0-0.1,0.1-0.2,0.1-0.2l1.8-5.3 L28.7,264.7c-3.1-1.1-4.8-4.5-3.7-7.6c1.1-3.1,4.5-4.8,7.6-3.7L144,291.6c1.5,0.5,2.8,1.6,3.5,3c0.7,1.4,0.8,3.1,0.3,4.6l-1.6,4.5 l74.4,13.3c3.3,0.6,5.4,3.7,4.9,7c-0.6,3.3-3.7,5.4-7,4.9l-76.2-13.6L109,410.7l31.7,11.5c9.6-9,24.7-8.8,34,0.6l4.5,4.5 c4.6,4.6,7.2,10.8,7.2,17.3c0,0.9,0,1.8-0.1,2.7c2.3-0.7,4.8-1.1,7.3-1.1c6.6,0,12.9,2.6,17.6,7.3l4.3,4.3c5.7,5.7,8,13.4,7.1,20.7 c2.8-1,5.7-1.6,8.7-1.6c6.6,0,12.9,2.6,17.6,7.3l3.5,3.5c6,6,8.3,14.3,6.9,22c2.2-0.6,4.4-0.9,6.7-0.9c6.6,0,12.9,2.6,17.6,7.3 l3.5,3.5c7.3,7.3,9.1,18,5.4,27l16.3,9c1.2,0.5,10.1,4,16.2-2.7c3-3.3,4.4-7.8,3.8-12.4c-0.6-5.1-3.6-9.7-8.3-13 c-0.1-0.1-0.3-0.2-0.4-0.3c-2.7-1.8-3.5-5.6-1.6-8.3c1.8-2.7,5.5-3.5,8.3-1.7c0.2,0.1,0.3,0.2,0.5,0.3 c12.1,8.1,29.6,16.7,33.7,18.7c3.8,0.4,12.6,0.4,15.2-4.2c2.8-4.8,3.6-9.3,2.3-13.5c-1.8-5.8-7.8-11.5-17.5-16.4 c-0.7-0.3-1.4-0.7-2.1-1.1c-3-1.5-4.2-5-2.7-8c1.4-3,5-4.2,8-2.8c0.8,0.4,1.5,0.7,2.3,1.1c26.4,13,35,16.6,35.1,16.6 c0.9,0.4,9.5,3.5,14.1-3.9c3.5-5.6,3.4-8.4,2.9-10.4c-1.6-5.9-10.4-13-27-21.5c-0.1-0.1-0.2-0.1-0.3-0.2c0,0,0,0,0,0c0,0,0,0,0,0 c-2.9-1.5-4.1-5.1-2.6-8.1c1.5-2.9,5.1-4.1,8.1-2.6c0.1,0.1,0.3,0.1,0.4,0.2c29.1,15.1,45.9,22.3,49.4,23.8c2,0.2,9,0.3,13.1-6.8 c2.7-4.6,3.5-9.1,2.4-13.1c-0.9-3.4-3.3-6.2-6.7-8.1c-1.8-1-5.1-2.7-9.2-4.8c-18.6-9.5-53-27.2-69.5-41.3l-0.3-0.1 c-16.5-6.8-41.2-16.9-52.7-53.4c-10.7-0.1-26.2,0-33.7,0c-2.6,7.3-9,21.5-21.7,29.1c-8.5,5.1-18.3,6.3-28.9,3.5 c-7.5-2-13.2-6.8-16.2-13.7c-3-7-2.8-15.6,0.5-21.8c4.3-8,20.7-34.3,21.4-35.4c0.5-0.7,1.1-1.4,1.8-1.9c1.6-1,39.5-25.6,82.3-33.3 c0.9-0.2,1.7-0.1,2.6,0.1c18.4,4.8,68.1,24.5,79,28.8l38.2-13.2l-0.4-1.1c-0.5-1.5-0.4-3.2,0.3-4.6c0.7-1.4,1.9-2.5,3.4-3.1 l110.5-38.2c3.1-1.1,6.5,0.6,7.6,3.7c1.1,3.1-0.6,6.5-3.7,7.6L461.3,301l0.4,1.1c0,0,0,0,0,0.1c0,0,0,0,0,0l37.5,107.8 c0,0,0,0.1,0,0.1l7.3,21.1l56.4-11.5c3.3-0.7,6.4,1.4,7.1,4.7c0.7,3.2-1.4,6.4-4.7,7.1l-61.5,12.6c-2.9,0.6-5.9-1.1-6.9-3.9 l-6.9-19.7l-19.8,9.6v4.8c0,3.3-2.7,6-6,6s-6-2.7-6-6v-8.6c0-2.3,1.3-4.4,3.4-5.4l24.5-11.9l-33.8-97.2L412,325.6 c-1.4,0.5-2.9,0.4-4.2-0.1c-0.6-0.2-57.6-23.1-78.4-28.9c-36,6.8-69.1,26.6-75.4,30.6c-3.3,5.3-16.6,26.8-20.3,33.6 c-1.3,2.4-1.9,7-0.1,11.3c1.5,3.5,4.3,5.8,8.2,6.9c7.5,2,14,1.2,19.8-2.2c12.7-7.6,17.5-26,17.5-26.2c0.7-2.7,3-4.5,5.8-4.6 c1.2,0,29-0.3,42.9,0c2.7,0.1,5,1.9,5.7,4.4c9.2,34.3,30.1,42.9,46.9,49.8l1.2,0.5c0.6,0.3,1.2,0.6,1.7,1 c15.1,13.2,50.7,31.5,67.9,40.3c4.2,2.1,7.5,3.8,9.5,4.9c6.3,3.4,10.7,8.9,12.5,15.4c2,7.1,0.7,15-3.6,22.3 c-9,15.4-25.4,12.6-26.1,12.5c-0.4-0.1-0.8-0.2-1.2-0.3c-0.3-0.1-4.5-1.8-12.4-5.5c1.9,7.9-1.6,14.8-4.4,19.3 c-8.1,12.9-22.4,11.3-28.9,8.6c-0.2-0.1-2.1-0.8-6.7-3c1.8,7.1,0.6,14.7-3.7,22c-7.6,13-27.4,10-28.3,9.9c-0.6-0.1-1.1-0.3-1.6-0.5 c-0.5-0.2-7.3-3.5-15.8-8c0.9,7.9-1.6,15.7-6.9,21.5c-9.9,10.9-24.1,8.3-30.3,5.4c-0.1-0.1-0.2-0.1-0.4-0.2l-17.8-9.9l-7.4,7.4 C273,568.6,266.8,571.2,260.2,571.2z M265.8,520.9c-3.4,0-6.6,1.3-9.1,3.8l-9.1,9.1c-5,5-5,13.1,0,18.1l3.5,3.5 c2.4,2.4,5.6,3.8,9.1,3.8c3.4,0,6.6-1.3,9.1-3.8l9.1-9.1c5-5,5-13.1,0-18.1l-3.5-3.5C272.5,522.2,269.2,520.9,265.8,520.9z M231.2,489c-3.4,0-6.6,1.3-9.1,3.8l-13.9,13.9c-2.4,2.4-3.8,5.6-3.8,9.1s1.3,6.7,3.8,9.1l3.5,3.5c2.4,2.4,5.6,3.8,9.1,3.8 s6.7-1.3,9.1-3.8l13.9-13.9c2.4-2.4,3.8-5.6,3.8-9.1c0-3.4-1.3-6.7-3.8-9.1l-3.5-3.5C237.9,490.4,234.6,489,231.2,489z M192.4,507.6L192.4,507.6L192.4,507.6z M193.6,458.3c-3.4,0-6.6,1.3-9.1,3.8l-18.8,18.8c-2.4,2.4-3.8,5.6-3.8,9.1s1.3,6.7,3.8,9.1 l4.3,4.3c5,5,13.1,5,18.1,0l18.8-18.8c5-5,5-13.1,0-18.1l-4.3-4.3C200.3,459.7,197,458.3,193.6,458.3z M146.4,433.5l-7.5,7.5 c-2.4,2.4-3.7,5.5-3.7,8.9c0,3.3,1.3,6.5,3.7,8.9l4.5,4.5c2.4,2.4,5.5,3.7,8.9,3.7c3.3,0,6.5-1.3,8.9-3.7l9.7-9.7 c2.4-2.4,3.7-5.5,3.7-8.8c0-3.3-1.3-6.5-3.7-8.8l-4.5-4.5c-4.9-4.9-12.8-4.9-17.7,0l-2,2C146.5,433.4,146.5,433.4,146.4,433.5z M199.2,299.5c-1,0-2.1-0.3-3-0.8c-2.9-1.7-3.8-5.4-2.1-8.2l16.4-27.8c1.7-2.9,5.4-3.8,8.2-2.1c2.9,1.7,3.8,5.4,2.1,8.2l-16.4,27.8 C203.3,298.4,201.3,299.5,199.2,299.5z M391.5,290.1c-2,0-4-1-5.1-2.9l-11.7-19.4c-1.7-2.8-0.8-6.5,2-8.2c2.8-1.7,6.5-0.8,8.2,2 l11.7,19.4c1.7,2.8,0.8,6.5-2,8.2C393.7,289.8,392.6,290.1,391.5,290.1z M298.8,277.9c-12.4,0-20.3-11-20.6-11.5 c-1.9-2.7-1.3-6.5,1.5-8.4c2.7-1.9,6.4-1.3,8.3,1.4c0.1,0.2,4.8,6.4,10.8,6.4c5.8,0,9.5-5.9,9.6-6c1.7-2.9,5.4-3.8,8.2-2.1 c2.9,1.7,3.8,5.4,2.1,8.2C318.4,266.5,311.5,277.9,298.8,277.9z M468,270.7c-1.4,0-2.8-0.5-3.9-1.4l-40.2-34.2 c-2.5-2.1-2.8-5.9-0.7-8.5c2.1-2.5,5.9-2.8,8.5-0.7l40.2,34.2c2.5,2.1,2.8,5.9,0.7,8.5C471.3,270,469.6,270.7,468,270.7z M129.8,269c-1.7,0-3.4-0.7-4.6-2.1c-2.1-2.5-1.8-6.3,0.7-8.5l38.5-32.5c2.5-2.1,6.3-1.8,8.5,0.7c2.1,2.5,1.8,6.3-0.7,8.5 l-38.5,32.5C132.5,268.5,131.1,269,129.8,269z M320.8,252.7h-45c-1.5,0-3-0.6-4.1-1.7l-7.6-7.2c-2.4-2.3-2.5-6.1-0.2-8.5 c2.3-2.4,6.1-2.5,8.5-0.2l5.9,5.6h40.4l6.9-5.8c2.5-2.1,6.3-1.8,8.5,0.7c2.1,2.5,1.8,6.3-0.7,8.5l-8.6,7.2 C323.6,252.2,322.2,252.7,320.8,252.7z M319.1,228.1h-20.5c-0.2,0-0.4,0-0.5,0c-0.2,0-0.4,0-0.5,0h-20.5c-3.3,0-6-2.7-6-6 c0-5.4-11.8-19.6-17.4-23.2c-25.9-16.4-41.9-46.4-41.9-78.3c0-50.3,38.5-91.2,85.8-91.2c0.2,0,0.4,0,0.5,0c0.2,0,0.4,0,0.5,0 c47.3,0,85.8,40.9,85.8,91.2c0,31.9-16.1,62-41.9,78.3c-5.6,3.5-17.4,17.8-17.4,23.2C325.1,225.4,322.4,228.1,319.1,228.1z M304.5,216.1h9.7c3.8-10.9,15.9-23.6,21.8-27.3c22.4-14.2,36.3-40.3,36.3-68.2c0-43.6-33.1-79.2-73.8-79.2c-0.2,0-0.4,0-0.5,0 c-0.2,0-0.4,0-0.5,0c-40.7,0-73.8,35.5-73.8,79.2c0,27.9,13.9,54,36.3,68.2c5.9,3.7,18.1,16.4,21.8,27.3h10.7v-49.7 c0-1,0.2-1.9,0.7-2.8l18.9-35.8h-39c-3.3,0-6-2.7-6-6c0-3.3,2.7-6,6-6h49c2.1,0,4.1,1.1,5.1,2.9c1.1,1.8,1.1,4,0.2,5.9l-22.9,43.3 V216.1z M526.2,211.7c-0.7,0-1.4-0.1-2.1-0.4L451.6,184c-3.1-1.2-4.7-4.6-3.5-7.7c1.2-3.1,4.6-4.7,7.7-3.5l72.5,27.3 c3.1,1.2,4.7,4.6,3.5,7.7C531,210.2,528.7,211.7,526.2,211.7z M71,211.7c-2.4,0-4.7-1.5-5.6-3.9c-1.2-3.1,0.4-6.6,3.5-7.7 l71.3-27.3c3.1-1.2,6.6,0.4,7.7,3.5c1.2,3.1-0.4,6.6-3.5,7.7l-71.3,27.3C72.4,211.5,71.7,211.7,71,211.7z M539.1,127.8h-74.9 c-3.3,0-6-2.7-6-6c0-3.3,2.7-6,6-6h74.9c3.3,0,6,2.7,6,6C545.1,125.1,542.5,127.8,539.1,127.8z M131.8,127.8H57.3c-3.3,0-6-2.7-6-6 c0-3.3,2.7-6,6-6h74.4c3.3,0,6,2.7,6,6C137.8,125.1,135.1,127.8,131.8,127.8z M142.2,71.5c-0.7,0-1.4-0.1-2.1-0.4L68.9,44.3 c-3.1-1.2-4.7-4.6-3.5-7.7c1.2-3.1,4.6-4.7,7.7-3.5l71.3,26.8c3.1,1.2,4.7,4.6,3.5,7.7C147,70,144.7,71.5,142.2,71.5z M453.7,71.5 c-2.4,0-4.7-1.5-5.6-3.9c-1.2-3.1,0.4-6.6,3.5-7.7l70.8-26.8c3.1-1.2,6.6,0.4,7.7,3.5c1.2,3.1-0.4,6.6-3.5,7.7l-70.8,26.8 C455.1,71.4,454.4,71.5,453.7,71.5z"/></svg>