<svg version="1.1" id="Слой_1" xmlns="http://www.w3.org/2000/svg" x="0" y="0" viewBox="0 0 595.3 595.3" xml:space="preserve"><path d="M391,559.9c-20.1,0-36.4-16.3-36.4-36.4l0-10.4c0-3.3,2.7-6,6-6s6,2.7,6,6l0,10.4c0,13.4,10.9,24.4,24.4,24.4 c13.4,0,24.4-10.9,24.4-24.4V475c-23.1,10.9-48.9,17-76.1,17h-42.2c-3.3,0-6-2.7-6-6s2.7-6,6-6h42.2c91.9,0,166.7-74.8,166.7-166.7 v-23.3c0-69.1-43.5-131.9-108.1-156.2c-3.1-1.2-4.7-4.6-3.5-7.7c1.2-3.1,4.6-4.7,7.7-3.5c33.7,12.7,62.5,35,83.4,64.5 c21.3,30.2,32.6,65.8,32.6,102.9v23.3c0,66.6-36.6,124.7-90.7,155.5v54.7C427.4,543.6,411.1,559.9,391,559.9z M165.8,556.8 c-70.9,0-128.5-57.7-128.5-128.5s57.7-128.5,128.5-128.5s128.5,57.7,128.5,128.5S236.7,556.8,165.8,556.8z M165.8,311.8 c-64.2,0-116.5,52.3-116.5,116.5s52.3,116.5,116.5,116.5s116.5-52.3,116.5-116.5S230.1,311.8,165.8,311.8z M128.7,505.4 c-3.3,0-6-2.7-6-6v-22h-17.8c-3.3,0-6-2.7-6-6s2.7-6,6-6h17.8v-94c0-6.7,5.5-12.2,12.2-12.2h49.6c26.9,0,48.9,21.9,48.9,48.9 s-21.9,48.9-48.9,48.9h-49.8v8.5h42.7c3.3,0,6,2.7,6,6s-2.7,6-6,6h-42.7v22C134.7,502.7,132,505.4,128.7,505.4z M134.7,444.9h49.8 c20.3,0,36.9-16.5,36.9-36.9s-16.5-36.9-36.9-36.9h-49.6c-0.1,0-0.2,0.1-0.2,0.2V444.9z M536.4,342.3c-1.7,0-3.4-0.7-4.6-2.1 c-2.1-2.5-1.8-6.3,0.7-8.5l36.7-30.7c1.6-1.4,2.6-3.4,2.6-5.5v-70.2c0-4-3.2-7.2-7.2-7.2h-43.8c-3.3,0-6-2.7-6-6c0-3.3,2.7-6,6-6 h43.8c10.6,0,19.2,8.6,19.2,19.2v70.2c0,5.7-2.5,11.1-6.9,14.7l-36.7,30.7C539.1,341.9,537.8,342.3,536.4,342.3z M54.9,340.4 c-3,0-5.6-2.2-5.9-5.3c-0.9-7.2-1.3-14.6-1.3-21.9v-23.3c0-34.4,9.8-66.6,26.7-93.8l-4.1,2.6c-0.1,0.1-0.3,0.2-0.4,0.2 c-6.3,3.5-13.5,5.3-20.7,5.3c-22.8,0-41.3-17.6-41.3-39.1c0-21.6,18.5-39.1,41.3-39.1c12.1,0,23.6,5,31.5,13.8 c2.2,2.5,2,6.3-0.4,8.5c-2.5,2.2-6.3,2-8.5-0.4c-5.6-6.2-13.8-9.8-22.5-9.8c-16.2,0-29.3,12.2-29.3,27.1s13.2,27.1,29.3,27.1 c5.2,0,10.3-1.3,14.8-3.7l32.6-21.3c32.6-34.5,78.8-56.1,129.9-56.1H284c3.3,0,6,2.7,6,6c0,3.3-2.7,6-6,6h-57.6 c-91.9,0-166.7,74.8-166.7,166.7v23.3c0,6.8,0.4,13.7,1.2,20.4c0.4,3.3-1.9,6.3-5.2,6.7C55.4,340.4,55.2,340.4,54.9,340.4z M394.1,237.7c-0.5,0-1-0.1-1.4-0.2c-3.2-0.8-5.2-4.1-4.4-7.3c2.1-8.4,11.8-24.3,33.8-24.3c22.3,0,31,16.1,32.5,24.7 c0.6,3.3-1.6,6.4-4.9,6.9c-3.2,0.6-6.3-1.6-6.9-4.8c-0.3-1.5-3.4-14.8-20.7-14.8c-17.7,0-21.7,13.6-22.2,15.2 C399.3,235.9,396.8,237.7,394.1,237.7z M313.7,177.1c-2.5,0-4.8-1.6-5.7-4.1c-13.9-40.6-13.9-74.9-0.2-102 c15.8-31.1,45.5-44.2,61.9-49.3c4.1-1.3,8.4-0.5,11.9,2c3.5,2.5,5.4,6.5,5.4,10.8v136.6c0,3.3-2.7,6-6,6s-6-2.7-6-6V34.5 c0-0.6-0.3-0.9-0.6-1.1c-0.3-0.2-0.7-0.4-1.2-0.2c-14.5,4.5-40.9,16.1-54.7,43.3c-12.2,24.1-11.9,55.2,0.8,92.7 c1.1,3.1-0.6,6.5-3.7,7.6C315,177,314.3,177.1,313.7,177.1z M459.2,142.9c-3.3,0-6-2.7-6-6V46.4c0-0.1,0-0.3-0.2-0.4 c-0.2-0.2-0.4-0.1-0.5,0c-10.2,4.3-28.9,13.4-39.4,25.9c-2.1,2.5-5.9,2.9-8.5,0.7c-2.5-2.1-2.9-5.9-0.7-8.5 c11.5-13.7,30.3-23.4,44-29.2c3.9-1.6,8.3-1.2,11.8,1.1c3.5,2.3,5.6,6.2,5.6,10.5v90.4C465.2,140.2,462.5,142.9,459.2,142.9z"/></svg>