<svg version="1.1" id="Слой_2" xmlns="http://www.w3.org/2000/svg" x="0" y="0" viewBox="0 0 32 32" xml:space="preserve"><path d="M16,31.4C7.5,31.4,0.6,24.5,0.6,16S7.5,0.5,16,0.5c8.5,0,15.5,6.9,15.5,15.5S24.6,31.4,16,31.4z M4,22 c1.9,3.8,5.6,6.6,10,7.3c-1-1.6-2.4-4.1-3.3-7.3H4z M21.4,22c-0.9,3.1-2.3,5.7-3.3,7.3c4.4-0.7,8-3.4,10-7.3H21.4z M12.8,22 c0.9,3,2.4,5.4,3.2,6.7c0.9-1.3,2.3-3.7,3.2-6.7H12.8z M21.8,20h7c0.4-1.3,0.6-2.6,0.6-4.1c0-1.5-0.2-3-0.7-4.3h-7 c0.3,1.3,0.4,2.8,0.4,4.3C22.2,17.4,22.1,18.7,21.8,20z M12.3,20h7.5c0.3-1.3,0.4-2.7,0.4-4.1c0-1.5-0.2-2.9-0.5-4.3h-7.4 c-0.3,1.3-0.5,2.8-0.5,4.3C11.9,17.4,12,18.7,12.3,20z M3.2,20h7c-0.2-1.3-0.4-2.7-0.4-4.1c0-1.5,0.2-2.9,0.4-4.3h-7 C2.8,13,2.6,14.4,2.6,16C2.6,17.4,2.8,18.7,3.2,20z M21.3,9.6h6.6c-2-3.7-5.6-6.3-9.8-7C19.1,4.2,20.4,6.6,21.3,9.6z M12.9,9.6h6.3 c-0.9-2.9-2.3-5.2-3.2-6.5C15.2,4.4,13.8,6.7,12.9,9.6z M4.2,9.6h6.6c0.9-3,2.2-5.5,3.2-7C9.7,3.3,6.1,6,4.2,9.6z"/></svg>