<svg version="1.1" id="Слой_2" xmlns="http://www.w3.org/2000/svg" x="0" y="0" viewBox="0 0 32 32" xml:space="preserve"><path d="M29,30.1h-0.2c0,0,0,0,0,0C14,30,2,17.9,2,3.1V3c0-0.6,0.4-1,1-1h7c0.4,0,0.7,0.2,0.9,0.6l2.6,5.2c0.3,0.7,0.3,1.6,0,2.3 l-1.6,3.6c-0.3,0.6-0.2,1.2,0.1,1.8c1.2,1.7,2.7,3.3,4.7,4.5c0.5,0.3,1.3,0.4,1.9,0.1c1.1-0.5,2.4-1.2,3.2-1.6c0,0,0.1,0,0.1-0.1 c0.7-0.3,1.5-0.3,2.2,0l5.3,2.6c0.3,0.2,0.6,0.5,0.6,0.9v7.1C30,29.7,29.6,30.1,29,30.1z M4,4c0.5,13,11,23.6,24,24.1v-5.5 l-4.6-2.3c-0.2-0.1-0.4-0.1-0.7,0c-0.8,0.4-2.2,1.1-3.3,1.6c-1.2,0.5-2.6,0.4-3.7-0.3c-2.2-1.4-4-3.1-5.3-5.1 c-0.7-1.1-0.8-2.5-0.3-3.7l1.6-3.7c0.1-0.2,0.1-0.4,0-0.6L9.4,4H4z"/></svg>