<svg version="1.1" id="Слой_2" xmlns="http://www.w3.org/2000/svg" x="0" y="0" viewBox="0 0 32 32" xml:space="preserve"><path d="M16,30.4l-0.6-0.5C12.2,27.3,5,20.4,5,13.1c0-6.1,4.9-11,11-11s11,4.9,11,11c0,5.5-3.8,11.6-10.4,16.8L16,30.4z M16,4.1 c-5,0-9,4-9,9c0,4.4,3.4,9.8,9,14.7c5.7-4.7,9-10,9-14.7C25,8.1,21,4.1,16,4.1z M15.9,17c-2.3,0-4.1-1.8-4.1-4.1s1.8-4.1,4.1-4.1 c2.3,0,4.1,1.8,4.1,4.1C20,15.2,18.2,17,15.9,17z M15.9,10.8c-1.1,0-2.1,1-2.1,2.1s1,2.1,2.1,2.1s2.1-1,2.1-2.1 C18,11.7,17.1,10.8,15.9,10.8z"/></svg>